<?xml version="1.0" encoding="utf-8"?>
<!-- Generator: Adobe Illustrator 15.1.0, SVG Export Plug-In . SVG Version: 6.00 Build 0)  -->
<!DOCTYPE svg PUBLIC "-//W3C//DTD SVG 1.1//EN" "http://www.w3.org/Graphics/SVG/1.1/DTD/svg11.dtd">
<svg version="1.1" id="Layer_1" xmlns="http://www.w3.org/2000/svg" xmlns:xlink="http://www.w3.org/1999/xlink" x="0px" y="0px"
	 width="612px" height="792px" viewBox="0 0 612 792" enable-background="new 0 0 612 792" xml:space="preserve">
<g>
	<path fill="#EE3124" d="M373.05,409.473c17.74-0.205,22.88-13.034,22.91-22.244c0.01-3.106-0.65-5.705-2.141-9.18
		c-1.05-2.443-4.449-7.263-9.279-10.058c0,0,1.149,2.099-0.98,3.745c-2.6,2.011-7.68,3.352-19.96,3.657
		c-12.11,0.302-28.35-0.382-56.47-1.065c-28.84-0.7-62.34-2.659-71.82-1.218c-11.229,1.706-19.18,9.049-19.18,20.905
		c0,9.167,7.13,20.884,19.34,29.602c0,0-0.86-4.626,5.1-8.271c11.801-7.217,38-8.271,66.271-7.791
		C333.609,408.01,364.229,409.575,373.05,409.473"/>
	<path fill="#FFFFFF" d="M236.79,424.518c-0.11-1.172,0.06-5.299,3.909-7.65c11.79-7.217,37.87-8.57,66.141-8.09
		c26.77,0.455,57.33,1.965,66.149,1.861c17.74-0.203,22.94-12.69,22.971-21.901c0-0.267-0.01-0.53-0.021-0.79
		c-0.28,9.145-5.609,21.327-22.89,21.527c-8.82,0.102-39.44-1.465-66.21-1.92c-28.271-0.479-54.47,0.574-66.271,7.791
		c-5.96,3.646-5.1,8.272-5.1,8.272L236.79,424.518z"/>
	<path fill="#C6B261" d="M302.869,410.238c-38.449,0.252-51.51,4.119-56.979,7.205c-7.51,4.24-5.86,9.047-5.86,9.047l-3.239-1.975
		c-0.11-1.174,0.069-5.299,3.909-7.652c11.801-7.215,37.88-8.568,66.15-8.09c26.77,0.455,57.33,1.965,66.15,1.863
		C373,410.637,326.51,410.085,302.869,410.238"/>
	<path fill="#FFFFFF" d="M235.31,373.11c9.47-1.441,42.97,0.518,71.811,1.219c28.13,0.682,44.359,1.366,56.47,1.064
		c12.28-0.305,17.37-1.645,19.97-3.657c1.7-1.31,1.36-2.968,0.98-3.743c-0.551-0.35-1.24-0.711-1.88-1.059
		c0,0,1.869,2.24-0.21,3.909c-2.66,2.122-8.721,3.072-20.711,3.304c-11.97,0.232-28.01-0.382-55.8-1.064
		c-28.489-0.7-61.59-2.66-70.96-1.219c-11.09,1.706-18.939,9.049-18.939,20.905c0,0.651,0.029,1.317,0.1,1.993
		c-0.01-0.251-0.01-0.501-0.01-0.747C216.13,382.159,224.08,374.816,235.31,373.11"/>
	<path fill="#C6B261" d="M382.66,366.934c0,0.002,1.869,2.242-0.21,3.911c-2.66,2.122-8.721,3.071-20.711,3.304
		c-11.97,0.232-28.01-0.382-55.8-1.065c-6.01-0.148-12.229-0.351-18.39-0.568c0,0,61.33,0.783,73.95,0.199
		c12.069-0.559,15.529-2.005,17.39-3.519c1.8-1.466,0.54-3.686,0.54-3.686S381.359,366.263,382.66,366.934"/>
	<path fill="#9E0B0F" d="M373.05,409.473c17.74-0.205,22.88-13.034,22.91-22.244c0.01-3.106-0.65-5.705-2.141-9.18
		c-1.05-2.443-4.449-7.263-9.279-10.058c0,0,1.149,2.099-0.98,3.745c-2.6,2.011-7.68,3.352-19.96,3.657
		c-12.11,0.302-28.35-0.382-56.47-1.065c-28.84-0.7-62.34-2.659-71.82-1.218c-11.229,1.706-19.18,9.049-19.18,20.905
		c0,9.167,7.13,20.884,19.34,29.602c0,0-0.86-4.626,5.1-8.271c11.801-7.217,38-8.271,66.271-7.791
		C333.609,408.01,364.229,409.575,373.05,409.473"/>
	<path d="M226.979,401.733c-0.55,1.917,0.41,2.946,1.32,2.257l0.05-0.041c1.37,1.385,2.99,2.521,4.78,3.328
		c0.729,5.047,1.42,9.01,3.56,8.322c1.26,3.852,2.23,5.166,3.07,5.047l0.229-0.078c0.261,0.215,0.54,0.323,0.82,0.268
		c1.36-0.268,0.64-3.07,0.64-3.07c0.21,0.503,0.841,0.309,1.11-0.45c0.38-0.958-0.03-2.448-0.03-2.448
		c0.98-0.168,0.54-2.135,0.15-3.535c-0.22-0.834-0.58-1.551-1.08-2.795c7.79-0.981,13.82-7.631,13.82-15.69
		c0-1.708-0.28-3.352-0.78-4.893c-0.16-0.499-0.3-0.884-0.3-0.884s0.149-0.263,0.21-0.375c0.12-0.225,0.55-0.852-0.19-1.518
		c-0.439-0.392-0.8-0.675-1.689-1.369l-0.221-0.178v-0.003c-0.609-0.849-1.3-1.634-2.06-2.345c0.54,0.586,1.04,1.213,1.49,1.877
		c-1.141-0.93-2.37-1.862-2.641-1.844l-0.199,0.033c-0.15-0.14-0.301-0.278-0.45-0.412c0.069-0.072,0.13-0.16,0.149-0.255
		c0.07-0.498-0.22-0.73-0.75-0.457l-0.109,0.126c-0.19-0.148-0.38-0.292-0.58-0.431c0.28-0.09,0.33-0.207,0.33-0.207
		c-0.2-0.279-0.23-0.622-0.21-0.926c0.229,0.152,0.46,0.309,0.68,0.472c0.021,0.109,0.021,0.179,0.021,0.179l0.14-0.067
		c0.31,0.232,0.61,0.473,0.899,0.725c1.36-0.992,1.44-3.221,0.66-4.224c0.931-0.78,0.67-2.652-0.27-3.696
		c-0.07-0.175-0.16-0.345-0.26-0.504l-0.04-0.07l-0.091-0.12l-0.1-0.142l-0.08-0.085l-0.14-0.146l-0.05-0.051l-0.2-0.163
		c-0.03,0.27-0.181,0.396-0.181,0.396c-0.75-0.965-1.989-1.225-1.989-1.225c0.1,0.24,0.029,0.339,0.029,0.339
		c-1.569-0.489-2.699-0.047-2.699-0.047c0.18,0.029,0.35,0.14,0.35,0.14c-3.06,0.807-3.729,4.184-5.13,5.712l-0.021,0.023
		l-0.239,0.248v0.002c-0.271,0.285-0.53,0.543-0.79,0.779c-3.74,0.219-7.101,1.822-9.59,4.309
		c-2.681,2.682-4.341,6.381-4.341,10.472c0,3.096,0.95,5.967,2.57,8.343c-0.01,0.138-0.02,0.273-0.02,0.404
		c0,0.18,0.01,0.354,0.08,0.547c0.05,0.136,0.199,0.336,0.359,0.4C227.109,401.791,226.979,401.733,226.979,401.733 M228.37,403.929
		c0.229-0.183,0.47-0.418,0.729-0.702c1.14,0.988,2.43,1.807,3.83,2.416c0.04,0.287,0.09,0.68,0.15,1.145
		C231.34,406.111,229.75,405.139,228.37,403.929 M240.439,407.771c-0.12-0.327-0.25-0.653-0.38-0.976
		c3.59-0.301,6.811-1.877,9.21-4.279c2.68-2.682,4.34-6.382,4.34-10.474c0-1.508-0.229-2.963-0.64-4.334
		c0.27-0.407,0.51-0.776,0.689-1.07c0.62,1.686,0.95,3.506,0.95,5.404C254.609,400.221,248.399,406.947,240.439,407.771"/>
	<path fill="#C6B261" d="M238.8,376.23c-8.73,0.001-15.81,7.08-15.81,15.812c0,3.961,1.449,7.582,3.859,10.355l0.03-0.169
		c0.04-0.202,0.07-0.376,0.1-0.491c-0.18-0.094-0.31-0.265-0.359-0.4c-0.07-0.193-0.08-0.367-0.08-0.547
		c0-0.131,0.01-0.266,0.02-0.404c-1.62-2.376-2.569-5.247-2.569-8.343c0-4.091,1.659-7.79,4.34-10.472
		c2.489-2.487,5.85-4.09,9.59-4.309c0.18-0.163,0.36-0.338,0.55-0.525l0.01-0.019l0.23-0.236v-0.001l0.24-0.248L238.8,376.23z
		 M229.1,403.227c-0.26,0.284-0.5,0.52-0.729,0.702c1.38,1.21,2.97,2.183,4.71,2.858c-0.061-0.465-0.11-0.857-0.15-1.145
		C231.53,405.033,230.24,404.216,229.1,403.227 M253.66,386.638c-0.181,0.294-0.42,0.663-0.69,1.07
		c0.41,1.371,0.64,2.826,0.64,4.334c0,4.092-1.659,7.792-4.34,10.474c-2.399,2.402-5.62,3.979-9.21,4.28
		c0.13,0.321,0.26,0.647,0.38,0.976c7.96-0.824,14.17-7.551,14.17-15.73C254.609,390.144,254.28,388.324,253.66,386.638
		 M247.3,379.918c0.2,0.139,0.39,0.283,0.58,0.431l0.11-0.126c0.529-0.273,0.819-0.041,0.75,0.457
		c-0.021,0.095-0.08,0.183-0.15,0.255c0.15,0.134,0.3,0.271,0.45,0.412l0.2-0.033c0.27-0.018,1.5,0.914,2.64,1.844
		c-0.45-0.664-0.95-1.291-1.49-1.877c-0.39-0.417-0.8-0.814-1.229-1.187c-0.29-0.252-0.591-0.493-0.9-0.725l-0.16-0.112
		c-0.22-0.163-0.45-0.321-0.68-0.472c-0.021,0.304,0.01,0.647,0.21,0.926C247.63,379.712,247.58,379.829,247.3,379.918"/>
	<path fill="#FFF200" d="M242.58,378.245c-0.33-0.197-0.7-0.515-1.07-1.017c-0.77-1.622-0.79-2.439-0.64-3.104
		c-0.471,0.742-0.96,1.599-1.65,2.451C240.78,376.372,241.91,377.9,242.58,378.245"/>
	<path fill-rule="evenodd" clip-rule="evenodd" fill="#FFF200" d="M246.05,372.267c-0.66-0.649-1.92-0.815-3.28-0.128
		c-0.37,2.885,1.72,3.457,2.16,5.006c0.43-0.65,1.08-0.528,1.48-1.137c0.39-0.583,0.859-1.04,1.119-1.107
		C246.83,374.199,246.97,372.931,246.05,372.267"/>
	<path d="M246.119,409.141l-0.359,1.041c-0.05,0.14-0.09,0.309-0.13,0.488h-0.011c-0.04-0.18-0.079-0.339-0.13-0.484l-0.359-1.045
		h-0.36l-0.14,1.925h0.26l0.07-1.161c0.01-0.174,0.01-0.338,0.01-0.523h0.01c0.04,0.178,0.09,0.368,0.14,0.523l0.37,1.141h0.21
		l0.391-1.111c0.05-0.172,0.109-0.375,0.149-0.553h0.021c0,0.188-0.01,0.373,0,0.523l0.08,1.161h0.279l-0.14-1.925H246.119z"/>
	<polygon points="243.16,409.387 243.72,409.387 243.72,411.064 244,411.064 244,409.387 244.56,409.387 244.56,409.14 
		243.16,409.14 	"/>
	<path d="M244.819,373.657c0.44-0.247,0.931,0.089,1.03,0.383l0.021,0.058c-0.15-1.159-1.311-0.747-1.53-0.385
		c0,0-0.12-0.587-0.11-0.798c-0.46,1.689,0.95,2.191,1.021,2.629c0,0,0.04-0.347-0.051-0.534c0.28,0.112,0.53-0.099,0.591-0.393
		c0.02-0.115,0.02-0.241-0.03-0.366c-0.1-0.24-0.45-0.465-0.55-0.329c-0.09,0.123,0.22,0.472-0.021,0.542
		c-0.21,0.065-0.16-0.506-0.399-0.376c-0.11,0.054-0.08,0.315-0.17,0.308c-0.03-0.002-0.07-0.072-0.08-0.171l-0.011-0.053v-0.066
		C244.54,373.953,244.62,373.773,244.819,373.657"/>
	<path fill-rule="evenodd" clip-rule="evenodd" fill="#E4DBC1" d="M245.41,381.94l0.02-0.097c0.2-0.149,0.4-0.299,0.61-0.451
		c0.1-0.049,0.199-0.044,0.31-0.044c0.4,0,0.8,0.198,1.13,0.36c0.13,0.389,0.12,0.719-0.02,0.961c-0.141,0.235-0.59,0.5-0.8,0.455
		C246.439,383.078,245.449,382.09,245.41,381.94"/>
	<path fill-rule="evenodd" clip-rule="evenodd" fill="#E4DBC1" d="M248.25,380.897c-0.12,0-0.23-0.064-0.341-0.142
		c0.021-0.041,0.101-0.317,0.23-0.382c0.12-0.054,0.2-0.065,0.25-0.065l0.11,0.041c0.04,0.044,0.06,0.132,0.05,0.241l-0.28,0.307
		H248.25z"/>
	<path fill-rule="evenodd" clip-rule="evenodd" fill="#E4DBC1" d="M246.1,384.892l-0.13-0.024v-0.022
		c-0.021-0.123-0.03-0.206,0.34-0.359c0.11-0.03,0.22-0.046,0.311-0.046l0.149,0.017C246.67,384.61,246.37,384.892,246.1,384.892"/>
	<path fill="#FFFFFF" d="M244.819,373.657c-0.229,0.133-0.3,0.35-0.29,0.515l0.011,0.053c0.01,0.099,0.05,0.169,0.08,0.171
		c0.09,0.007,0.06-0.254,0.17-0.308c0.239-0.13,0.189,0.441,0.399,0.376c0.24-0.07-0.069-0.419,0.021-0.542
		c0.1-0.136,0.45,0.089,0.55,0.329c0.05,0.125,0.05,0.251,0.03,0.366c0.069-0.155,0.1-0.342,0.069-0.54l-0.01-0.037
		C245.75,373.746,245.26,373.41,244.819,373.657"/>
	<path fill="#EE3124" d="M233.29,405.563c0,0,0.06,1.969,0.8,5.779c0.75,3.811,2.09,4.348,2.479,3.815
		c-0.72-1.82-2.52-9.679-2.52-9.679C233.569,405.889,233.29,405.563,233.29,405.563"/>
	<path fill="#EE3124" d="M235.279,402.145c0.04,0.377,0.03,0.67-0.01,0.897c0.44,1.417,2.7,8.896,4.36,16.755
		c-2.3-8.605-4.17-15.017-4.54-16.275c-0.23,0.332-0.59,0.244-0.74,0.139c0.29,0.764-0.04,1.577-0.04,1.577s3.44,15.64,5.4,15.021
		c2.39-0.759-4.061-18.023-4.061-18.023C235.45,402.307,235.279,402.145,235.279,402.145"/>
	<path fill="#EE3124" d="M236.63,401.613c0,0-0.12,0.027-0.24,0.017c-0.1,0.183-0.271,0.402-0.48,0.5c0,0,4.24,11.966,4.511,14.94
		c0.1,1.07,1.43,0.314,1.029-1.508C240.819,412.701,237.239,403.26,236.63,401.613"/>
	<path fill="#EE3124" d="M237.52,401.215c-0.28,0.342-0.64,0.348-0.64,0.348s2.41,6.188,4.52,12.736
		C243.06,413.875,239.42,406.045,237.52,401.215"/>
	<path fill-rule="evenodd" clip-rule="evenodd" fill="#EE3124" d="M232.77,386.263c-0.1,1.457-2.71,5.278-4.08,5.311
		c0,0-1,1.623-0.74,2.088c0.261,0.468,1.5-0.27,2.37-0.972c2.311-1.875,4.561-6.071,4.561-6.071s-1.25,3.55-4.07,6.015
		c-0.3,0.254-1.729,1.532-0.93,1.894c1.1,0.502,2.34-0.983,2.66-1.311c2.56-2.672,4.43-6.505,4.43-6.505s-0.97,3.168-4.03,6.509
		c-0.64,0.692-1.54,1.353-0.83,1.643c0.721,0.291,1.67-0.724,1.971-1.019c3.329-3.292,4.92-7.268,4.92-7.268s-0.86,3.24-3.811,6.527
		c-0.54,0.603-1.41,1.244-0.83,1.493c0.58,0.248,1.55-0.596,2.32-1.369c3.21-3.204,4.57-7.421,4.57-7.421
		c-0.83,0.192-1.061-0.318-1.061-0.318c-1.89,1.24-2.25-0.031-2.25-0.031c-2.22,1.389-2.63,0.193-2.63,0.193
		c-2.17,1.354-2.479-0.154-2.479-0.154c-1.471,1.27-2.381,0.397-2.381,0.397c-0.77,1.079-2.58,5.048-1.72,5.197
		C229.54,391.231,232.109,388.303,232.77,386.263"/>
	<path fill-rule="evenodd" clip-rule="evenodd" fill="#EE3124" d="M248.6,374.792c-1.74,0.329-0.7-2.527-3.12-3.3
		c-1.7-0.545-3.359,0.684-3.359,0.684c2.71-2.597,4.22-1.142,4.569-1.305c0.12-0.053,0.05-0.317,0.05-0.317s1.32,0.449,1.78,1.719
		c0,0,0.141-0.262,0.17-0.592C249.689,372.74,249.56,374.613,248.6,374.792"/>
	<path fill-rule="evenodd" clip-rule="evenodd" fill="#EE3124" d="M246.67,377.942c0,0,0.62,0.367,0.28,1.284
		C246.95,379.226,246.45,378.924,246.67,377.942"/>
	<path fill="#00C0F3" d="M234.08,380.608"/>
	<path fill="#00C0F3" d="M238.859,396.342c-0.159-0.072-0.25-0.197-0.25-0.197c-0.739,0.753-1.5,0.095-1.5,0.095
		c-0.79,0.64-1.229-0.063-1.229-0.063c-0.15,0.142-0.44,0.105-0.44,0.105l0.2,0.937l0.03,0.111c1.069-0.501,1.85,0.027,1.85,0.027
		S237.81,396.554,238.859,396.342 M234.27,399.813c0,0,0.04,0.133,0.141,0.27c0.109,0.146,0.3,0.298,0.609,0.291
		c-0.39-1.039-0.17-2.526,0.42-2.947l-0.01-0.055l-0.24-1.104c-0.34,0.014-0.51-0.064-0.62-0.217
		c-0.069-0.088-0.119-0.199-0.17-0.333l-0.529,0.803c-0.17,0.253-0.33,0.509-0.5,0.771l0.3,0.836L234.27,399.813z M233.069,401.295
		c-0.47,0.08-0.729-0.208-0.729-0.208c-0.07-0.101-0.39-0.984-0.58-1.39c-0.07,0.112-0.15,0.221-0.23,0.332
		c0.011,0.065,0.7,5.137,2.171,5.158c0.67,0.012,0.319-1.701,0.319-1.701C233.42,403.129,233.069,401.295,233.069,401.295
		 M234.189,400.25c-0.18,0.654-0.81,0.906-0.81,0.906s0.47,2.543,1.31,2.135c0.681-0.324,0.19-2.592,0.19-2.592
		C234.3,400.664,234.189,400.25,234.189,400.25 M235.12,400.793c0,0,0.14,0.769,0.149,0.9c0,0,0.33,0.406,0.771-0.139
		C236.04,401.555,235.42,401.478,235.12,400.793 M243.71,375.784c-0.141-0.156-0.29-0.335-0.431-0.538
		c-0.479-0.688-0.899-1.655-0.67-3.011c-0.72,0.38-1.22,1.065-1.739,1.889c-0.15,0.665-0.131,1.482,0.64,3.104
		c0.37,0.502,0.74,0.82,1.07,1.017c0.909,0.531,1.59,0.185,1.59,0.185C243.609,377.472,243.569,376.636,243.71,375.784
		 M234.05,399.975l-0.05-0.156l-0.48-1.347l-0.33-0.915c-0.37,0.572-0.76,1.152-1.14,1.727l-0.061,0.078l0.521,1.477
		C232.62,401.111,233.56,401.13,234.05,399.975"/>
	<path fill-rule="evenodd" clip-rule="evenodd" fill="#00C0F3" d="M234.29,380.519c0.25-0.733,3.439-2.299,6.71-1.271
		c3.279,1.031,2.979,3.402,2.229,4.559c-0.79,1.229-2.08,1.883-2.43,1.569c-0.271-0.25,0.17-0.386,0.729-1.178
		c0.74-1.037,0.75-1.623,0.75-1.623s-0.72,1.313-1.22,1.829c-0.49,0.512-1.5,1.529-2.26,1.201c-0.59-0.254-0.12-0.774,0.39-1.428
		c0.74-0.959,1.13-1.758,1.13-1.758s-1.109,1.454-1.52,1.886c-0.44,0.45-1.74,1.776-2.771,1.364c-0.609-0.245-0.04-0.783,0.42-1.228
		c1.41-1.352,1.82-2.33,1.82-2.33s-1.25,1.586-1.82,2.106c-0.569,0.519-2.029,1.911-2.85,1.479c-0.95-0.511,1.44-2.156,2.25-3.768
		c-2.2,2.411-3.55,4.073-4.74,3.613c-1.1-0.423,0.45-3.087,2.601-4.311c0,0,0.649,1.086,2.399,0.025c0,0,0.59,1.354,2.45,0.161
		c0,0,0.3,1.203,2.101,0.159c0,0,0.39,1.282,1.909-0.132c0,0-1.54,0.968-1.47-0.405c0,0-1.979,1.518-2.25-0.114
		c0,0-2.01,1.407-2.27-0.242C235.649,381.577,233.949,381.538,234.29,380.519"/>
	<path fill-rule="evenodd" clip-rule="evenodd" fill="#8CC63F" d="M233.64,394.773c0,0,0.06,0.421,0.689,0.373
		c-2.21,3.431-5.689,8.797-6.67,8.586c-0.449-0.098,0.051-2.111,0.051-2.111c1.3-0.676,3.47-3.949,3.85-5.255
		c0,0-3.32,4.978-4.07,4.862c-0.6-0.09,0.101-2.262,0.101-2.262s1.239-0.008,2.38-3.134c0,0-1.33,2.483-2.32,2.581
		c-1,0.088,0.63-3.927,0.63-3.927s0.44,0.039,0.82-0.357c-0.31,0.984,1.21,1.309,2.16,0.65
		C231.069,395.427,232.609,395.856,233.64,394.773"/>
	<path fill="#F99D1C" d="M245.609,391.22l-0.01-0.063l-0.05-0.103l-0.2-0.114c-0.04,0.136-0.49,1.478-2.62,2.936
		c0.46-0.277,0.86-0.007,1.36-0.228c1.09-0.483,1.58-0.84,1.78-1.107l-0.08-0.059C245.149,391.977,245.609,391.22,245.609,391.22"/>
	<path fill-rule="evenodd" clip-rule="evenodd" fill="#F99D1C" d="M248.81,375.117c0.811,1.01,0.79,2.763-0.46,3.688
		c-0.29-1.682-1.689-1.2-1.88-2.42C247.04,375.802,247.31,374.979,248.81,375.117"/>
	<path fill-rule="evenodd" clip-rule="evenodd" fill="#F99D1C" d="M247.04,379.625c-1.28-0.087-1.841-0.965-1.79-1.927
		c0.04-0.958,1.05-0.985,1.01-0.234C246.22,378.21,246.21,379.085,247.04,379.625"/>
	<path fill="#F99D1C" d="M235.1,399.498c-0.07-0.994,0.3-1.857,0.85-1.928c0.54-0.066,1.04,0.682,1.11,1.676
		c0.08,0.995-0.3,1.859-0.84,1.928C235.68,401.243,235.18,400.494,235.1,399.498"/>
	<path fill-rule="evenodd" clip-rule="evenodd" fill="#F99D1C" d="M247.42,388.998c-0.3,0.407,0.03,0.973-0.54,1.242
		c0,0,0.49,0.697-0.08,1.512c0.09,0.35-0.23,0.814-0.78,0.523c-0.35-0.19-0.18-0.609-0.18-0.609s0.34,0.089,0.52-0.116
		c0,0-0.25,0.012-0.39-0.168c0,0-0.1-0.56,0.2-0.893c0,0,0.21,0.069,0.319-0.047c0,0-0.21-0.11-0.239-0.382
		c0,0,0.029-0.489,0.43-0.633c0,0,0.01,0.071,0.24,0.112c0,0-0.08-0.228-0.04-0.341C246.979,388.871,247.42,388.998,247.42,388.998"
		/>
	<path fill-rule="evenodd" clip-rule="evenodd" fill="#F99D1C" d="M248.8,389.94c-0.23,0.345,0.11,0.912-0.35,1.154
		c0,0,0.439,0.549,0.01,1.24c0.1,0.283-0.141,0.672-0.62,0.458c-0.3-0.139-0.18-0.486-0.18-0.486s0.279,0.055,0.43-0.119
		c0,0-0.21,0.023-0.34-0.122c0,0-0.11-0.456,0.12-0.736c0,0,0.18,0.045,0.27-0.054c0,0-0.189-0.082-0.229-0.303
		c0,0,0-0.4,0.33-0.534c0,0,0.02,0.057,0.21,0.082c0,0-0.08-0.184-0.051-0.276C248.47,389.971,248.8,389.94,248.8,389.94"/>
	<path fill="#F99D1C" d="M243.819,398.446l-0.279,0.07v7.557c0.1-0.032,0.189-0.062,0.279-0.095v-7.525V398.446z"/>
	<path fill="#F99D1C" d="M243.989,398.406v7.51c0.32-0.118,0.631-0.249,0.931-0.389v-7.409
		C244.91,398.122,244.31,398.314,243.989,398.406"/>
	<path fill-rule="evenodd" clip-rule="evenodd" fill="#FFFFFF" d="M248.649,375.36c0.271,0.342,0.45,0.771,0.49,1.257
		c0.05,0.735-0.23,1.428-0.7,1.911c0.34-0.458,0.53-1.046,0.48-1.659c-0.04-0.62-0.311-1.15-0.721-1.509
		C248.199,375.36,248.56,375.242,248.649,375.36"/>
	<path d="M235.479,399.348c-0.05-0.609,0.16-1.141,0.48-1.178c0.31-0.039,0.6,0.424,0.649,1.035c0.051,0.611-0.17,1.143-0.479,1.18
		C235.81,400.426,235.52,399.965,235.479,399.348"/>
	<path fill="#E4DBC1" d="M253.41,384.833c-1.051-1.106-3.95-3.103-4.24-3.184c-0.28-0.08-0.721,0.501-0.66,0.692
		c0.28,1.009-0.35,1.178-0.35,1.178c0.409,1.27-0.62,1.758-0.62,1.758c-0.21,1.033-0.69,0.802-0.82,0.871
		c-0.13,0.07-0.75,0.824-1.73,0.518c-0.739,1.29-1.859,0.921-1.859,0.921s-0.521,0.366-0.45,0.963c0.04,0.31,0.58,0.725,3.06,2.08
		c0.051-0.19,0.021-0.412,0.23-0.707c0,0-0.07-0.785,0.729-0.944c0,0,0.24-0.411,0.851-0.292c0,0,0.24,0.062,0.03,0.52
		c0,0,0.229,0.633-0.271,1.165c0,0,0.14,0.682-0.16,1.18c0.11,0.063,0.21,0.121,0.311,0.176c-0.021-0.155,0-0.443,0.25-0.859
		c0,0-0.11-0.642,0.55-0.817c0,0,0.15-0.404,0.72-0.354c0,0,0.061,0.188-0.02,0.454l0.01,0.004l-0.01,0.006l-0.011,0.03
		c0,0,0.301,0.491-0.079,0.951c0,0,0.21,0.693-0.101,1.107v0.036c0.141-0.009,0.28-0.055,0.4-0.173c1.71-1.68,3.92-5.399,4.31-6.061
		C253.87,385.411,253.79,385.229,253.41,384.833"/>
	<polygon points="248.939,390.103 248.93,390.1 248.93,390.11 	"/>
	<path d="M245.85,387.755l-0.15,0.077l-0.02,0.006l0.06,0.935l0.141-0.067l0.01-0.005l-0.01-0.249l0.33-0.159l0.18,0.167l0.13-0.062
		l0.03-0.013l-0.03-0.021L245.85,387.755z M245.859,388.308l-0.02-0.355l0.26,0.243L245.859,388.308z M246.989,387.755l0.07-0.122
		l0.01-0.065l-0.029-0.112l-0.08-0.095l-0.11-0.031l-0.04-0.001l-0.07,0.011l-0.14,0.052l-0.25,0.123l0.38,0.781l0.13-0.06
		l0.021-0.009l-0.141-0.3l0.12-0.059l0.42,0.161l0.15-0.071l0.05-0.021l-0.05-0.017L246.989,387.755z M246.899,387.663l-0.05,0.052
		l-0.08,0.047l-0.09,0.048l-0.12-0.245l0.11-0.051l0.08-0.029l0.04-0.008l0.01,0.001l0.06,0.016l0.03,0.041l0.02-0.009l-0.02,0.009
		l0.02,0.067L246.899,387.663z M247.92,386.76l-0.13,0.063l-0.021,0.009l0.271,0.556l-0.591-0.4l-0.199,0.096l0.369,0.783
		l0.131-0.059l0.02-0.009l-0.3-0.616l0.649,0.44l0.15-0.068l0.021-0.009l-0.011-0.019L247.92,386.76z M249.02,386.503l-0.15-0.089
		v0.019v-0.02l-0.13-0.019l-0.029,0.002l-0.181,0.052l-0.149,0.104l-0.09,0.145l-0.021,0.159v0.009l0.05,0.185l0.11,0.156
		l0.149,0.09l0.131,0.021l0.04-0.004l0.17-0.048l0.149-0.109l0.09-0.139l0.021-0.158v-0.01l-0.05-0.187L249.02,386.503z
		 M249.01,386.978l-0.15,0.159l-0.12,0.034l-0.1-0.015c-0.061-0.025-0.12-0.086-0.17-0.179l-0.04-0.163l0.01-0.08l0.15-0.166
		l0.12-0.031l0.1,0.018c0.07,0.027,0.12,0.086,0.16,0.178l0.02-0.008l-0.02,0.008l0.05,0.165L249.01,386.978z M249.81,385.98
		l-0.04-0.086l-0.01-0.019l-0.74,0.358l0.05,0.106l0.01,0.019l0.301-0.142l0.31,0.656l0.13-0.063l0.021-0.009l-0.311-0.656
		l0.29-0.145L249.81,385.98z M250.63,385.583l-0.04-0.09l-0.011-0.019l-0.75,0.358l0.061,0.105l0.01,0.018l0.29-0.141l0.32,0.656
		l0.13-0.064l0.01-0.01l-0.31-0.653l0.3-0.142L250.63,385.583z M251.64,385.647l-0.021,0.008l0.021-0.01l-0.12-0.112l-0.1-0.01
		l-0.08,0.01l-0.13,0.033l-0.11,0.032l-0.06,0.009l-0.04-0.004l-0.051-0.05v-0.029l0.021-0.063l0.109-0.093l0.171-0.05l0.06-0.005
		l0.08,0.005l0.02-0.002l0.021-0.007l-0.061-0.139l-0.01-0.012l-0.01,0.001l-0.15,0.024l-0.17,0.064
		c-0.1,0.044-0.17,0.101-0.21,0.172l-0.029,0.135l0.02,0.084l0.12,0.119l0.1,0.011l0.12-0.019l0.11-0.035l0.09-0.025l0.05-0.009
		l0.04,0.005l0.05,0.049l0.011,0.034l-0.021,0.068l-0.13,0.101l-0.16,0.049l-0.06,0.004l-0.12-0.01l-0.01-0.002l-0.011,0.01
		l-0.02,0.01l0.07,0.141l0.01,0.011l0.01-0.001l0.17-0.023l0.18-0.065l0.131-0.091l0.09-0.105l0.029-0.111v-0.018L251.64,385.647z"
		/>
	<path d="M252.609,385.643l-0.02-0.046l-0.01-0.022l-0.021,0.008l-0.05,0.018l-0.07,0.171l0.08,0.184l0.19,0.071l0.149-0.032
		l0.08-0.041l0.05-0.026l-0.14-0.039C252.66,385.827,252.64,385.735,252.609,385.643 M253.16,385.34l-0.021,0.01L253.16,385.34
		l-0.16-0.105l-0.05,0.009l-0.101,0.127v0.031l0.101,0.082l0.02,0.007v0.001l0.05,0.153l0.021,0.114l0.01,0.072l0.08-0.173
		l0.06-0.198L253.16,385.34z M251.819,386.9l-0.02-0.046l-0.01-0.023l-0.021,0.008l-0.05,0.018l-0.07,0.169l0.07,0.184l0.2,0.072
		l0.149-0.032l0.08-0.037l0.051-0.024l-0.141-0.045C251.87,387.083,251.85,386.995,251.819,386.9 M252.37,386.602l-0.16-0.109
		l-0.05,0.01l-0.11,0.125l0.01,0.033l0.101,0.081l0.02,0.006l0.05,0.153l0.021,0.118l0.02,0.073l0.07-0.174l0.06-0.199
		L252.37,386.602z M251.02,388.156l-0.01-0.041l-0.01-0.02l-0.021,0.006l-0.05,0.017l-0.06,0.167l0.069,0.185l0.19,0.071
		l0.149-0.032l0.08-0.039l0.051-0.025l-0.141-0.042C251.08,388.338,251.05,388.248,251.02,388.156 M251.569,387.867L251.569,387.867
		l0.021-0.01l-0.17-0.106l-0.05,0.008l-0.11,0.127l0.01,0.036l0.101,0.077l0.02,0.007v0.011l0.061,0.142l0.01,0.115l0.01,0.073
		l0.08-0.172l0.06-0.202l-0.02-0.114L251.569,387.867z M250.239,389.414l-0.02-0.045l-0.01-0.022l-0.021,0.008l-0.05,0.019
		l-0.07,0.17l0.08,0.183l0.19,0.072l0.149-0.031l0.08-0.043l0.051-0.026l-0.141-0.039
		C250.29,389.597,250.27,389.507,250.239,389.414 M250.63,389.007l-0.05,0.01l-0.11,0.126l0.01,0.032l0.101,0.079l0.02,0.008
		l0.061,0.154l0.01,0.113l0.01,0.073l0.08-0.172l0.06-0.196l-0.029-0.118L250.63,389.007z M250.58,389.254v-0.022l0.02,0.007
		L250.58,389.254z M249.439,390.67l-0.01-0.044v-0.023l-0.03,0.007l-0.05,0.02l-0.07,0.171l0.08,0.184l0.19,0.07l0.15-0.032
		l0.079-0.041l0.051-0.025l-0.141-0.042C249.5,390.854,249.479,390.763,249.439,390.67 M250,390.373l-0.15-0.109l-0.06,0.012
		l-0.101,0.122v0.032l0.101,0.082l0.02,0.009l0.05,0.151l0.021,0.116l0.01,0.07l0.08-0.17l0.06-0.196L250,390.373z M252.12,384.622
		l0.02,0.007l0.061,0.153l0.02,0.119v0.074l0.09-0.174l0.05-0.205l-0.02-0.115l-0.16-0.107l-0.06,0.009l-0.101,0.123v0.039
		L252.12,384.622z M251.88,385.165L251.88,385.165l0.149-0.032l0.08-0.041l0.051-0.025l-0.141-0.041
		c-0.18-0.062-0.21-0.152-0.24-0.244l-0.02-0.046v-0.019l-0.021,0.006l-0.06,0.016v0.002l-0.01,0.005l-0.061,0.163l0.08,0.185
		L251.88,385.165z M249.76,388.396l0.01,0.004l0.061,0.155l0.02,0.113l0.01,0.068l0.08-0.166l0.05-0.2l-0.02-0.119l-0.02,0.009
		l0.02-0.01l-0.16-0.105l-0.06,0.007l-0.101,0.127v0.033L249.76,388.396z M249.51,388.937h0.01l0.141-0.031l0.079-0.04l0.051-0.024
		l-0.141-0.046c-0.189-0.061-0.21-0.151-0.239-0.244l-0.021-0.044v-0.02l-0.02,0.006l-0.061,0.017l-0.07,0.17l0.08,0.183
		L249.51,388.937z M249.01,389.401l-0.05,0.007l-0.101,0.128l0.011,0.036l0.09,0.076l0.029,0.011v0.01l0.051,0.139l0.02,0.116
		l0.01,0.064l0.08-0.16l0.051-0.203l-0.021-0.117L249.01,389.401z M250.3,387.679h0.01l0.141-0.03l0.079-0.043l0.051-0.026
		l-0.141-0.039c-0.18-0.064-0.21-0.154-0.239-0.246l-0.011-0.042l-0.01-0.022l-0.02,0.006l-0.051,0.016l-0.08,0.17l0.08,0.185
		L250.3,387.679z M250.6,386.887l-0.06,0.01l-0.101,0.125v0.038l0.101,0.078l0.02,0.005l0.061,0.153l0.02,0.116l0.01,0.069
		l0.08-0.168l0.05-0.198l-0.02-0.121L250.6,386.887z M250.81,384.338l0.15-0.029l0.08-0.044l0.04-0.025l-0.141-0.042
		c-0.18-0.059-0.21-0.154-0.239-0.244l-0.011-0.043l-0.01-0.021l-0.02,0.006l-0.051,0.017l-0.01,0.001v0.005l-0.06,0.166
		l0.069,0.181L250.81,384.338z M251.05,383.795l0.02,0.009l0.051,0.15l0.02,0.115l0.01,0.068l0.08-0.164l0.061-0.2l-0.03-0.118
		l-0.16-0.109l-0.05,0.009l-0.11,0.126l0.011,0.035L251.05,383.795z M250.22,384.753l-0.1,0.124v0.034l0.1,0.082l0.03,0.007
		l0.05,0.154l0.01,0.116l0.021,0.074l0.069-0.177l0.061-0.198l-0.03-0.117l-0.15-0.109L250.22,384.753z M249.88,385.151
		l-0.021-0.042v-0.021l-0.02,0.007l-0.061,0.015l-0.069,0.171l0.08,0.183l0.189,0.072l0.15-0.031l0.08-0.04l0.05-0.025l-0.14-0.042
		C249.93,385.336,249.91,385.246,249.88,385.151 M248.85,387.572l-0.02,0.01L248.85,387.572l-0.16-0.11l-0.05,0.01l-0.11,0.124
		l0.011,0.035l0.09,0.081v-0.001v0.001h0.01v0.002v0.001l0.021,0.002l0.06,0.154l0.01,0.115l0.01,0.072l0.08-0.17l0.061-0.2
		L248.85,387.572z M248.649,387.71l-0.01,0.003l0.01-0.021l0.011,0.002v0.001L248.649,387.71z M248.29,387.869l-0.011-0.045V387.8
		l-0.029,0.009l-0.05,0.019l-0.07,0.169l0.08,0.185l0.189,0.071l0.15-0.03l0.08-0.043l0.05-0.025l-0.14-0.041
		C248.35,388.054,248.33,387.963,248.29,387.869 M247.91,388.72l-0.061,0.011l-0.1,0.124v0.033l0.1,0.081l0.021,0.005l0.05,0.155
		l0.02,0.113l0.011,0.071l0.079-0.17l0.061-0.201l-0.03-0.113L247.91,388.72z M250.18,383.079l0.03,0.008l0.05,0.151l0.02,0.116
		l0.011,0.073l0.08-0.173l0.05-0.199l-0.021-0.117l-0.16-0.109l-0.06,0.013l-0.1,0.121v0.036L250.18,383.079z M249.939,383.622
		l0.15-0.034l0.09-0.037l0.05-0.023l-0.149-0.048c-0.181-0.06-0.21-0.149-0.24-0.244l-0.021-0.043v-0.021l-0.02,0.007l-0.05,0.016
		l-0.08,0.172l0.08,0.182L249.939,383.622z M249.45,384.085l-0.061,0.013l-0.1,0.12l0.01,0.038l0.1,0.078l0.011,0.007l0.06,0.153
		l0.02,0.117l0.011,0.071l0.08-0.171l0.05-0.198l-0.021-0.118L249.45,384.085z M249.05,384.493l-0.01-0.042l-0.011-0.024
		l-0.02,0.009l-0.05,0.019l-0.07,0.169l0.07,0.18l0.189,0.073h0.011l0.14-0.03l0.08-0.04l0.05-0.023l-0.14-0.046
		C249.109,384.676,249.08,384.586,249.05,384.493 M248.37,386.134L248.37,386.134l0.14-0.031l0.08-0.042l0.05-0.025l-0.14-0.041
		c-0.181-0.063-0.21-0.153-0.24-0.245l-0.021-0.045l-0.01-0.018l-0.01,0.005l-0.05,0.015l-0.01,0.001v0.005l-0.061,0.167l0.07,0.179
		L248.37,386.134z M248.609,385.591l0.011,0.007l0.06,0.155l0.021,0.116l0.01,0.074l0.08-0.175l0.05-0.199l-0.021-0.115
		l-0.159-0.111l-0.061,0.01l-0.1,0.124v0.038L248.609,385.591z M245.41,388.576l-0.16-0.109l-0.061,0.01l-0.1,0.123v0.035l0.1,0.082
		l0.03,0.008l0.05,0.151l0.01,0.116l0.011,0.071l0.09-0.168l0.05-0.201L245.41,388.576z M245.39,388.585L245.39,388.585
		L245.39,388.585z M244.85,388.877l-0.02-0.045v-0.022l-0.021,0.007l-0.06,0.016l-0.07,0.17l0.08,0.185l0.19,0.07l0.149-0.029
		l0.08-0.041l0.05-0.026l-0.14-0.041C244.899,389.059,244.88,388.971,244.85,388.877 M243.84,388.265l-0.01-0.044l-0.011-0.024
		l-0.02,0.009l-0.05,0.018l-0.07,0.172l0.07,0.182l0.2,0.071l0.14-0.029l0.09-0.042l0.04-0.023l-0.13-0.048
		C243.899,388.449,243.87,388.358,243.84,388.265 M244.399,387.964l-0.16-0.107l-0.05,0.009l-0.109,0.125l0.01,0.034l0.1,0.08
		l0.021,0.008l0.05,0.154l0.02,0.117l0.011,0.073l0.08-0.177l0.06-0.198L244.399,387.964z M244.97,387.625l0.15-0.032l0.08-0.041
		l0.05-0.024l-0.141-0.043c-0.189-0.061-0.21-0.15-0.239-0.245l-0.021-0.044l-0.01-0.019l-0.021,0.006l-0.05,0.015v0.002
		l-0.01,0.005l-0.06,0.165l0.079,0.182L244.97,387.625z M245.26,386.833l-0.05,0.01l-0.11,0.124l0.01,0.035l0.101,0.082l0.029,0.007
		l0.04,0.151l0.021,0.117l0.01,0.07l0.08-0.171l0.061-0.2l-0.021-0.116L245.26,386.833z M246.7,386.402l-0.051,0.012l-0.109,0.125
		l0.01,0.031l0.1,0.078l0.021,0.01v0.011l0.05,0.144l0.02,0.114l0.011,0.075l0.08-0.175l0.05-0.197l-0.021-0.121L246.7,386.402z
		 M246.3,386.81l-0.01-0.043l-0.011-0.024l-0.02,0.009l-0.05,0.02l-0.07,0.169l0.07,0.183l0.2,0.07l0.14-0.031l0.09-0.041
		l0.05-0.024l-0.149-0.042C246.359,386.995,246.33,386.903,246.3,386.81 M249.12,382.794l0.14-0.031l0.09-0.044l0.04-0.026
		l-0.13-0.038c-0.19-0.06-0.21-0.151-0.25-0.246l-0.01-0.045l-0.011-0.022l-0.02,0.009l-0.05,0.019l-0.07,0.168l0.08,0.186
		L249.12,382.794z M249.359,382.252l0.021,0.006l0.05,0.152l0.021,0.118l0.02,0.073l0.07-0.175l0.06-0.197l-0.03-0.119l-0.159-0.109
		l-0.051,0.01l-0.1,0.125v0.033L249.359,382.252z"/>
	<path fill="#F99D1C" d="M239.779,398.303c-0.079-0.033-0.18-0.078-0.279-0.137l-1.811,0.49c0.03,0.15,0.04,0.301,0.061,0.459
		c0.01,0.203-0.04,0.433-0.05,0.63c0.239-0.063,0.93-0.263,1.8-0.499l0.01-0.014c0.06-0.086,0.14-0.205,0.22-0.336
		c0.11-0.172,0.21-0.394,0.25-0.523L239.779,398.303z"/>
	<path fill="#F99D1C" d="M239.34,398.055c-0.12-0.09-0.23-0.199-0.33-0.338l-0.22-0.013l-0.16,0.009l-1.21,0.291
		c0.08,0.164,0.22,0.326,0.25,0.502L239.34,398.055z"/>
	<path fill="#F99D1C" d="M249.819,394.673l-7.42,2.015c0.11,0.118,0.2,0.276,0.261,0.465l7.659-2.076l-0.08,0.175l-7.54,2.046
		c0.011,0.084,0.021,0.172,0.021,0.265c0,0.149-0.021,0.308-0.06,0.476c0.06,0.102,0.09,0.211,0.109,0.32
		c3.24-0.878,6.83-1.849,6.83-1.849C251.149,395.714,250.21,394.558,249.819,394.673"/>
	<path fill="#F99D1C" d="M242.189,398.113c0.101-0.29,0.12-0.52,0.09-0.701l-0.029-0.146c-0.07-0.235-0.23-0.367-0.36-0.439
		c-0.11-0.061-0.2-0.078-0.2-0.078l-0.08-0.171c-0.069-0.112-0.16-0.176-0.25-0.212c-0.25-0.096-0.52,0.04-0.52,0.04
		c0.319,0.162,0.47,0.376,0.53,0.561c0.09,0.221,0.05,0.401,0.05,0.401l0.09,0.1l0.09,0.129c0.3,0.471,0.09,0.914-0.01,1.084
		l-0.05,0.074c0.02,0.127,0.02,0.236,0.01,0.332c-0.04,0.267-0.17,0.401-0.17,0.401c0.529,0.007,0.84-0.286,0.95-0.623
		c0.04-0.13,0.05-0.265,0.029-0.394C242.34,398.338,242.279,398.211,242.189,398.113"/>
	<path fill="#F99D1C" d="M241.119,398.809l0.021-0.024c0.28-0.336,0.189-1.022,0.189-1.022l-0.05-0.076l-0.21-0.102
		c-0.24-0.051-0.54,0.024-0.54,0.024c0.13-0.373,0.641-0.335,0.641-0.335c-0.011-0.092-0.04-0.168-0.07-0.231
		c-0.271-0.477-1.04-0.178-1.04-0.178c0.02-0.185,0.34-0.466,0.34-0.466c-0.76-0.37-1.14,0.421-1.14,0.421
		c-1.08-0.403-1.42,0.647-1.42,0.647c0.72-0.313,1.42-0.146,1.42-0.146l0.13,0.185c0.17,0.211,0.36,0.32,0.53,0.391
		c0.09,0.037,0.18,0.063,0.25,0.088c0.109,0.037,0.189,0.07,0.229,0.136c0.11,0.198-0.08,0.613-0.28,0.959
		c-0.14,0.226-0.27,0.42-0.329,0.502l-0.04,0.044c0.39,0.447,1.029,0.211,1.439-0.439l0.01-0.008c-0.52,0.119-0.56-0.181-0.56-0.181
		S240.909,399.016,241.119,398.809"/>
	<path d="M385.77,380.711v0.246h-0.56v1.663h-0.271v-1.663h-0.56v-0.246H385.77z M387.53,382.62l-0.07-1.15
		c-0.021-0.148,0-0.332-0.01-0.519h-0.011c-0.05,0.177-0.1,0.377-0.159,0.547l-0.381,1.102h-0.21l-0.37-1.13
		c-0.05-0.154-0.09-0.342-0.13-0.519h-0.02c0,0.184,0,0.347-0.01,0.519l-0.061,1.15h-0.27l0.14-1.909h0.37l0.35,1.037
		c0.05,0.145,0.08,0.302,0.13,0.481h0.011c0.04-0.179,0.08-0.346,0.13-0.485l0.35-1.033h0.36l0.14,1.909H387.53z"/>
	<path d="M367.33,382.009c0-1.045-1.45-1.651-1.45-3.054c0-1.046,0.85-1.87,1.92-1.87c1.24,0,2.07,0.989,2.07,2.64
		c0,1.625-1.16,3.204-3.32,3.943C367.149,382.957,367.33,382.502,367.33,382.009"/>
	<g>
		<path d="M264.04,403.075c-1.381-0.647-1.131-1.616-1.07-1.928c0.05-0.31,1.14-5.871,1.14-5.871h5.29c0,0,0.46,4.869,0.46,5.687
			c0.07,1.152-0.03,1.521-0.83,2.112h7.75c-1.109-0.604-1.229-1.237-1.33-1.901c-0.069-0.685-1.87-20.379-1.949-21.245
			c-0.07-0.793,0.26-2.045,0.739-2.388h-12.67c0.391,0.259,0.95,1.199,0.74,2.364c-0.15,0.972-4.09,18.765-4.39,20.257
			c-0.42,1.617-0.721,2.105-1.771,2.913H264.04z M268.399,381.306l0.72,10.17h-4.27l2.14-10.168L268.399,381.306z"/>
		<path d="M298.56,400.794c0-1.446-0.02-17.216-0.02-17.216c0-1.384-0.311-2.24-0.851-2.533l6.84,0.004l6.801,12.423v-9.606
			c0-1.165-0.011-2.208-0.801-2.821h5.46c-0.63,0.463-0.77,1.475-0.77,2.701v19.329h-5.12l-7.75-14.067c0,0-0.01,10.642-0.01,11.73
			c0,1.089,0.25,1.789,0.99,2.332h-5.62C297.71,403.07,298.56,402.244,298.56,400.794"/>
		<path d="M278.2,403.075c0.479-0.372,0.789-1.147,0.789-1.956l0.021-18.387c0-0.807-0.271-1.357-0.78-1.686
			c0,0,9.49-0.001,10.08-0.001c3.63,0,6.69,1.957,6.69,6.892c0,2.821-1.4,5.292-3.53,6.158c0,0,2.87,6.28,3.21,7.091
			c0.37,0.864,0.96,1.616,1.49,1.889h-6.73l-3.16-8.345h-2.02v6.352c0,0.889,0.16,1.645,0.78,1.993h-6.91H278.2z M284.33,390.928
			l2.75,0.004c1.25,0,2.399-0.993,2.399-3.056c0-1.607-1.01-3.014-2.37-3.014c-1.3,0-2.77,0.007-2.77,0.007L284.33,390.928z"/>
		<path d="M355.16,384.859v16.747c0,0.806-0.221,1.14-0.7,1.464l6.6,0.002c-0.43-0.269-0.67-0.753-0.67-1.56v-16.721
			c0,0,2.89-0.001,3.55-0.001s1.101,0.036,1.57,0.82v-4.565h-28.16v4.541c0.48-0.824,0.92-0.822,1.521-0.822
			c0.59,0,3.649-0.001,3.649-0.001v16.703c0,0.807-0.29,1.177-0.729,1.604c0.87,0,5.43-0.001,6.81-0.001
			c-0.5-0.192-0.79-0.752-0.79-1.557l-0.01-16.657L355.16,384.859z"/>
		<path d="M369.01,386.434L369.01,386.434c-0.38,3.823,2,5.603,5.979,7.236c3.82,1.574,4.391,2.392,4.2,3.632
			c-0.17,1.202-1.899,2.157-3.35,2.157c-2.71,0-3.84-0.848-5.54-2.434c-0.88-0.812-1.21-1.185-1.21-1.185l0.01,7.603
			c0,0,0.52-0.271,0.93-0.416c0.521-0.184,1.271-0.387,2.17-0.203c0.53,0.108,1.971,0.539,3.83,0.539c5.29,0,8.221-3.541,8.28-6.708
			c0.1-4.571-3.21-6.075-5.87-7.283l-0.28-0.126l-1.069-0.471c-2.3-1-3.09-1.456-3.011-2.651c0.051-0.824,1.061-1.699,2.82-1.699
			h0.04c2.19-0.006,3.87,1.208,4.71,1.865c0.65,0.505,1.43,1.081,1.43,1.081v-6.395l-1.01,0.401c-0.13,0.054-0.59,0.086-2.149-0.289
			l-0.091-0.023c-0.939-0.227-1.75-0.424-3.02-0.431C371.819,380.605,369.3,383.527,369.01,386.434"/>
		<path d="M327.87,380.583c-6.03,0-9.811,4.819-9.811,11.459c0,3.07,0.76,5.93,2.5,8.053c1.8,2.198,4.12,3.409,7.18,3.409
			c6.11,0,9.94-4.818,9.94-11.462C337.68,385.402,333.909,380.583,327.87,380.583 M327.87,399.562c-2.791,0-4.41-3.398-4.41-7.592
			c0-4.192,1.619-7.59,4.41-7.59c2.789,0,4.409,3.398,4.409,7.59C332.279,396.164,330.659,399.562,327.87,399.562"/>
	</g>
	<path fill="#00C0F3" d="M262.8,402.081c-1.38-0.647-1.13-1.618-1.08-1.929c0.06-0.311,1.14-5.871,1.14-5.871h5.29
		c0,0,0.471,4.869,0.471,5.686c0.06,1.153-0.04,1.521-0.83,2.114h7.75c-1.11-0.604-1.24-1.237-1.341-1.903
		c-0.06-0.684-1.859-20.378-1.939-21.244c-0.08-0.792,0.26-2.045,0.74-2.388h-12.681c0.4,0.259,0.95,1.2,0.75,2.364
		c-0.149,0.972-4.09,18.764-4.399,20.258c-0.41,1.615-0.71,2.104-1.76,2.913H262.8z M267.16,380.311l0.72,10.17h-4.28l2.14-10.167
		L267.16,380.311z"/>
	<path fill="#00C0F3" d="M297.31,399.799c0-1.447-0.02-17.215-0.02-17.215c0-1.385-0.311-2.242-0.84-2.534l6.83,0.005l6.81,12.421
		v-9.604c0-1.165-0.01-2.209-0.8-2.822h5.46c-0.641,0.463-0.771,1.475-0.771,2.702v19.329h-5.12l-7.75-14.068
		c0,0-0.01,10.644-0.01,11.732s0.25,1.788,0.99,2.329l-5.63,0.005C296.46,402.078,297.31,401.248,297.31,399.799"/>
	<path fill="#00C0F3" d="M276.95,402.081c0.479-0.373,0.8-1.149,0.8-1.958l0.02-18.386c0-0.807-0.27-1.357-0.79-1.687
		c0,0,9.49,0,10.08,0c3.641,0,6.7,1.957,6.7,6.892c0,2.821-1.4,5.291-3.54,6.157c0,0,2.87,6.282,3.22,7.092
		c0.37,0.865,0.96,1.617,1.49,1.89h-6.74l-3.149-8.347h-2.021v6.354c0,0.889,0.16,1.645,0.78,1.993h-6.92H276.95z M283.09,389.933
		l2.75,0.005c1.25,0,2.39-0.994,2.39-3.057c0-1.607-1-3.014-2.359-3.014c-1.311,0-2.771,0.006-2.771,0.006L283.09,389.933z"/>
	<path fill="#00C0F3" d="M353.91,383.865l0.01,16.747c0,0.807-0.22,1.139-0.7,1.463l6.59,0.004c-0.43-0.271-0.67-0.754-0.67-1.56
		v-16.722c0,0,2.9-0.001,3.55-0.001c0.66,0,1.11,0.036,1.58,0.82v-4.566h-28.16v4.542c0.471-0.824,0.92-0.822,1.511-0.822
		c0.6,0,3.649-0.001,3.649-0.001v16.703c0,0.807-0.28,1.176-0.729,1.606c0.88,0,5.43-0.004,6.819-0.004
		c-0.5-0.193-0.8-0.752-0.8-1.556V383.86L353.91,383.865z"/>
	<path fill="#00C0F3" d="M366.489,381.552c0-1.045-1.46-1.651-1.46-3.054c0-1.046,0.86-1.87,1.931-1.87
		c1.229,0,2.06,0.989,2.06,2.641c0,1.624-1.149,3.204-3.32,3.943C366.31,382.499,366.489,382.044,366.489,381.552"/>
	<path fill="#00C0F3" d="M367.77,385.438L367.77,385.438c-0.38,3.823,2,5.602,5.97,7.235c3.83,1.575,4.391,2.393,4.21,3.633
		c-0.18,1.2-1.899,2.158-3.35,2.158c-2.72,0-3.85-0.852-5.55-2.435c-0.87-0.811-1.21-1.185-1.21-1.185l0.02,7.604
		c0,0,0.521-0.272,0.931-0.416c0.52-0.184,1.27-0.388,2.17-0.203c0.529,0.108,1.97,0.539,3.83,0.539c5.289,0,8.21-3.543,8.279-6.708
		c0.09-4.571-3.22-6.075-5.88-7.284l-0.27-0.124l-1.07-0.472c-2.3-1-3.1-1.456-3.021-2.651c0.061-0.824,1.07-1.7,2.82-1.7h0.04
		c2.2-0.005,3.87,1.209,4.72,1.866c0.641,0.504,1.431,1.08,1.431,1.08v-6.394l-1.011,0.401c-0.13,0.053-0.59,0.086-2.149-0.289
		l-0.101-0.023c-0.939-0.227-1.75-0.423-3.02-0.431C370.579,379.61,368.06,382.531,367.77,385.438"/>
	<path fill="#00C0F3" d="M326.63,379.587c-6.04,0-9.811,4.819-9.811,11.46c0,3.07,0.76,5.928,2.49,8.051
		c1.8,2.201,4.13,3.412,7.19,3.412c6.109,0,9.939-4.82,9.939-11.463C336.439,384.406,332.659,379.587,326.63,379.587
		 M326.63,398.566c-2.79,0-4.42-3.398-4.42-7.592c0-4.192,1.63-7.59,4.42-7.59s4.41,3.398,4.41,7.59
		C331.04,395.168,329.42,398.566,326.63,398.566"/>
	<path fill="#FFFFFF" d="M273.22,398.646c-0.8-8.203-1.74-19.042-1.81-19.68c-0.08-0.704,0.05-1.428,0.189-1.675h-9.91
		c0.221,0.486,0.2,1.232,0.101,1.799c-0.141,0.867-4.011,18.909-4.37,20.397c-0.29,1.249-0.51,1.521-0.8,1.771h4.569
		c-0.26-0.193-0.319-0.666-0.22-1.193c0.09-0.528,1.28-6.621,1.28-6.621h6.64l0.07,0.719c0.05,0.548,0.43,5.381,0.49,6.199
		c0.029,0.39-0.101,0.745-0.2,0.896c0.6,0,3.819,0.002,4.479,0.002c-0.12-0.201-0.31-0.477-0.359-1.037
		C273.33,399.745,273.22,398.646,273.22,398.646 M262.67,391.249l2.439-11.655l2.771,0.009l0.88,11.646H262.67z"/>
	<path fill="#FFFFFF" d="M310.64,380.805c0.16,0.418,0.189,0.927,0.189,1.528v13.191c0,0-7.979-14.45-8.13-14.719h-4.84
		c0.25,0.578,0.181,1.266,0.181,1.775l0.02,17.174c0,0.622-0.11,1.174-0.26,1.504h2.83c-0.19-0.378-0.271-1.005-0.271-1.611
		l-0.03-14.788c0,0,8.811,16.131,8.961,16.399h3.92c0-0.512-0.011-18.867-0.011-18.867c-0.01-0.816,0.091-1.229,0.23-1.59
		C312.93,380.801,311.17,380.805,310.64,380.805"/>
	<path fill="#FFFFFF" d="M289.199,392.708c0,0,0.341-0.102,0.761-0.352c1.87-1.113,2.96-2.886,2.96-5.46
		c0-4.217-2.55-6.089-5.74-6.089c-0.38,0-5.22-0.004-8.73-0.009c0.07,0.284,0.131,0.577,0.131,0.893l-0.021,18.584
		c-0.01,0.378-0.1,0.741-0.229,0.983c0.569,0,3.79,0.002,4.159,0.002c-0.109-0.182-0.18-0.602-0.18-0.926v-7.387l3.39-0.002
		c0,0,3.08,7.991,3.2,8.32c0.3,0,3.45-0.007,4.24-0.007c-0.09-0.107-0.16-0.217-0.26-0.436
		C292.72,400.451,289.199,392.708,289.199,392.708 M285.85,390.669c-1.05,0-3.52,0.007-3.52,0.007v-7.59h3.54
		c1.859,0,3.22,1.481,3.22,3.748C289.09,389.93,287.1,390.669,285.85,390.669"/>
	<path fill="#FFFFFF" d="M336.85,383.099c0.2-0.06,0.42-0.068,0.89-0.068h4.271l0.01,17.395c0,0.289-0.1,0.69-0.17,0.834
		c0.561,0,3.561,0.002,4.08,0c-0.08-0.168-0.14-0.533-0.14-0.787l-0.011-17.445l8.87,0.008l0.011,17.529
		c0,0.258-0.021,0.502-0.091,0.693c0.54,0.002,3.601,0.002,3.99,0.004c-0.08-0.17-0.12-0.51-0.12-0.789l-0.01-17.441h4.34
		c0.2,0,0.601,0.008,0.79,0.056v-2.282h-26.71V383.099z"/>
	<path fill="#FFFFFF" d="M376.609,388.92c-2.62-1.194-4.649-1.729-4.51-3.841c0.08-1.216,1.39-2.384,3.55-2.384
		c0.521,0,2.93-0.137,5.45,2.264v-3.894c-0.51,0.205-1.62-0.024-2.59-0.257c-0.97-0.234-1.73-0.427-2.95-0.434
		c-5-0.03-6.84,2.935-7.06,5.137c-0.341,3.361,1.76,4.939,5.52,6.482c3.5,1.442,4.95,2.451,4.66,4.42
		c-0.25,1.711-2.43,2.721-4.05,2.788c-2.641,0.104-4.33-0.722-6.021-2.621c-0.02,0.537,0,4.309,0,4.907
		c0.51-0.223,1.101-0.663,2.49-0.377c0.76,0.154,2.1,0.515,3.69,0.515c4.609,0,7.479-2.955,7.539-5.979
		C382.42,391.417,379.35,390.169,376.609,388.92"/>
	<path fill="#FFFFFF" d="M368.149,379.216c0-0.532-0.12-1.761-1.2-1.761c-0.59,0-1.1,0.432-1.1,0.993c0,0.447,0.27,0.787,0.62,1.218
		c0.31,0.389,0.75,0.993,0.8,1.716C367.869,380.73,368.149,379.881,368.149,379.216"/>
	<path fill="#FFFFFF" d="M326.649,380.33c-5.88,0-9.07,4.798-9.07,10.717c0,5.922,3.23,10.721,8.94,10.721
		c5.89,0,9.2-4.799,9.2-10.721C335.72,385.128,332.54,380.33,326.649,380.33 M326.649,399.311c-3.08,0-5.149-3.351-5.149-8.337
		c0-4.983,2.069-8.332,5.149-8.332s5.16,3.349,5.16,8.332C331.81,395.96,329.729,399.311,326.649,399.311"/>
	<path fill="#C6B261" d="M370.22,416.813v0.218h-0.49v1.479h-0.24v-1.479h-0.5v-0.218H370.22z M371.79,418.51l-0.061-1.023
		c-0.01-0.132,0-0.296-0.01-0.461h-0.01c-0.04,0.157-0.09,0.335-0.141,0.486l-0.34,0.98h-0.18l-0.33-1.006
		c-0.04-0.137-0.09-0.304-0.12-0.461h-0.01c-0.01,0.163,0,0.309-0.01,0.461l-0.061,1.023h-0.24l0.12-1.697h0.33l0.32,0.921
		c0.04,0.128,0.07,0.269,0.11,0.427h0.01c0.04-0.158,0.069-0.307,0.109-0.43l0.32-0.918h0.32l0.12,1.697H371.79z"/>
	<path fill="#C6B261" d="M267.77,417.107c0,0-0.5-0.041-0.91-0.041v3.285c0,0.123,0.061,0.199,0.15,0.25h-0.82
		c0.091-0.051,0.141-0.127,0.141-0.25v-3.285c-0.41,0-0.9,0.041-0.9,0.041c-0.14,0-0.24,0.127-0.29,0.215v-0.48h2.91v0.48
		C268,417.234,267.91,417.118,267.77,417.107"/>
	<path fill="#C6B261" d="M271.09,420.601c0.09-0.049,0.14-0.127,0.14-0.249v-1.724h-1.92v1.724c0,0.122,0.061,0.2,0.141,0.249h-0.82
		c0.09-0.049,0.149-0.127,0.149-0.249v-3.261c0-0.127-0.06-0.205-0.149-0.249h0.82c-0.08,0.044-0.141,0.122-0.141,0.249v1.31h1.92
		v-1.31c0-0.127-0.05-0.205-0.14-0.249h0.82c-0.101,0.044-0.15,0.122-0.15,0.249v3.261c0,0.122,0.05,0.2,0.15,0.249H271.09z"/>
	<path fill="#C6B261" d="M274.89,420.601h-2.23c0.101-0.049,0.17-0.116,0.17-0.249v-3.261c0-0.127-0.069-0.205-0.149-0.249h2.07
		l0.01,0.432c-0.11-0.129-0.22-0.193-0.46-0.193c-0.101,0-0.95-0.012-0.95-0.012v1.332h0.9l0.189-0.154v0.535l-0.189-0.153h-0.9
		v1.702c0.12,0.011,0.38,0.039,0.64,0.033c0.601,0,0.811,0,1.011-0.349L274.89,420.601z"/>
	<path fill="#C6B261" d="M278.25,420.611c-0.221,0-0.37-0.143-0.45-0.26c-0.29-0.414-0.49-0.752-0.68-1.061
		c-0.141-0.223-0.261-0.46-0.551-0.46h-0.319v1.521c0,0.123,0.069,0.199,0.16,0.25h-0.83c0.09-0.051,0.149-0.127,0.149-0.25v-3.262
		c0-0.127-0.06-0.203-0.149-0.248h1.04c1.109,0,1.35,0.574,1.35,0.922c0,0.598-0.53,0.902-0.88,0.93c0.3,0.06,0.46,0.293,0.54,0.414
		c0,0,0.59,1.013,0.83,1.271c0.109,0.133,0.35,0.223,0.35,0.223L278.25,420.611z M276.67,417.063c-0.25,0-0.42,0.018-0.42,0.018
		v1.52c0,0,0.18,0.01,0.319,0.01c0.42,0,0.841-0.248,0.841-0.828C277.41,417.521,277.25,417.063,276.67,417.063"/>
	<path fill="#C6B261" d="M281.29,420.601h-2.221c0.101-0.049,0.16-0.116,0.16-0.249v-3.261c0-0.127-0.06-0.205-0.149-0.249h2.08
		l0.01,0.432c-0.11-0.129-0.23-0.193-0.47-0.193c-0.101,0-0.95-0.012-0.95-0.012v1.332h0.899l0.2-0.154v0.535l-0.2-0.153h-0.899
		v1.702c0.12,0.011,0.38,0.039,0.64,0.033c0.601,0,0.811,0,1.01-0.349L281.29,420.601z"/>
	<path fill="#C6B261" d="M283.88,420.601c0.09-0.049,0.149-0.127,0.149-0.249v-3.261c0-0.127-0.06-0.205-0.149-0.249h0.819
		c-0.08,0.044-0.14,0.122-0.14,0.249v3.261c0,0.122,0.06,0.2,0.14,0.249H283.88z"/>
	<path fill="#C6B261" d="M286.54,420.65c-0.48,0-0.82-0.193-1.03-0.31l-0.01-0.829c0.109,0.397,0.41,0.906,1,0.906
		c0.6,0,0.76-0.47,0.76-0.74c0-0.531-0.41-0.636-0.94-0.906c-0.529-0.267-0.81-0.549-0.81-1.002c0-0.662,0.62-0.978,1.15-0.978
		c0.199,0,0.529,0.038,0.79,0.21l0.029,0.73c-0.069-0.267-0.38-0.719-0.899-0.719c-0.471,0-0.61,0.348-0.61,0.586
		c0,0.348,0.22,0.48,0.75,0.74c0.521,0.27,1.04,0.442,1.04,1.184C287.76,420.214,287.13,420.65,286.54,420.65"/>
	<path fill="#C6B261" d="M293.31,417.09v3.615l-2.63-3.25v2.897c0,0.121,0.06,0.198,0.16,0.248h-0.561
		c0.08-0.05,0.141-0.127,0.141-0.248v-3.054c0-0.16,0-0.17-0.061-0.258c-0.06-0.066-0.13-0.145-0.26-0.199h0.771l2.18,2.691v-2.443
		c0-0.127-0.061-0.205-0.14-0.248h0.56C293.38,416.885,293.31,416.963,293.31,417.09"/>
	<path fill="#C6B261" d="M296.05,420.651c-1.07-0.024-2.021-0.847-1.99-1.985c0.03-0.896,0.79-1.914,2.101-1.875
		c0.909,0.017,1.979,0.703,1.949,1.963C298.09,420.015,296.97,420.679,296.05,420.651 M296.09,417.023
		c-0.82,0-1.43,0.604-1.43,1.615c0,1.211,0.76,1.757,1.439,1.757c0.82,0,1.41-0.63,1.41-1.624
		C297.52,417.705,296.92,417.023,296.09,417.023"/>
	<path fill="#C6B261" d="M301.59,420.65c-0.48,0-0.82-0.193-1.03-0.31l-0.01-0.829c0.11,0.397,0.41,0.906,1,0.906
		c0.6,0,0.76-0.47,0.76-0.74c0-0.531-0.41-0.636-0.939-0.906c-0.54-0.267-0.811-0.549-0.811-1.002c0-0.662,0.62-0.978,1.15-0.978
		c0.2,0,0.53,0.038,0.79,0.21l0.03,0.73c-0.07-0.267-0.381-0.719-0.9-0.719c-0.47,0-0.61,0.348-0.61,0.586
		c0,0.348,0.221,0.48,0.75,0.74c0.53,0.27,1.04,0.442,1.04,1.184C302.81,420.214,302.18,420.65,301.59,420.65"/>
	<path fill="#C6B261" d="M306.33,417.09l-0.021,2.316c0,0.907-0.58,1.245-1.27,1.245c-0.61,0-1.391-0.299-1.391-1.233v-2.328
		c0-0.127-0.09-0.205-0.17-0.248h0.88c-0.09,0.043-0.18,0.121-0.18,0.248v2.338c0,0.382,0.13,0.968,0.91,0.968
		c0.74,0,0.97-0.47,0.97-0.968l-0.02-2.338c0-0.127-0.05-0.205-0.141-0.248h0.58C306.39,416.885,306.33,416.963,306.33,417.09"/>
	<path fill="#C6B261" d="M308.439,420.601h-1.189c0.1-0.05,0.149-0.127,0.149-0.248v-3.263c0-0.127-0.05-0.205-0.149-0.248h1.05
		c0.38,0,1.279,0.115,1.279,0.856c0,0.652-0.75,0.874-0.75,0.874s1.091,0.077,1.091,0.989
		C309.92,419.992,309.63,420.601,308.439,420.601 M308.29,417.067c-0.24,0-0.37,0.013-0.37,0.013v1.391c0,0,0.1,0.013,0.229,0.013
		c0.28,0,0.9-0.056,0.9-0.752C309.05,417.25,308.649,417.067,308.29,417.067 M308.369,418.715c-0.18,0-0.449,0.012-0.449,0.012
		v1.637c0,0,0.1,0.016,0.26,0.016c0.35,0,1.16-0.049,1.16-0.873C309.34,418.859,308.829,418.715,308.369,418.715"/>
	<path fill="#C6B261" d="M311.6,420.65c-0.479,0-0.82-0.193-1.03-0.31l-0.01-0.829c0.11,0.397,0.41,0.906,1,0.906
		c0.601,0,0.75-0.47,0.75-0.74c0-0.531-0.399-0.636-0.93-0.906c-0.54-0.267-0.811-0.549-0.811-1.002c0-0.662,0.62-0.978,1.15-0.978
		c0.2,0,0.53,0.038,0.79,0.21l0.02,0.73c-0.06-0.267-0.369-0.719-0.89-0.719c-0.47,0-0.61,0.348-0.61,0.586
		c0,0.348,0.221,0.48,0.75,0.74c0.521,0.27,1.04,0.442,1.04,1.184C312.819,420.214,312.189,420.65,311.6,420.65"/>
	<path fill="#C6B261" d="M315.729,417.107c0,0-0.5-0.041-0.899-0.041v3.285c0,0.123,0.05,0.199,0.14,0.25h-0.82
		c0.101-0.051,0.15-0.127,0.15-0.25v-3.285c-0.42,0-0.91,0.041-0.91,0.041c-0.13,0-0.24,0.127-0.29,0.215v-0.48h2.91l0.01,0.48
		C315.96,417.234,315.87,417.118,315.729,417.107"/>
	<path fill="#C6B261" d="M316.609,420.601c0.09-0.049,0.15-0.127,0.15-0.249v-3.261c0-0.127-0.061-0.205-0.15-0.249h0.82
		c-0.09,0.044-0.15,0.122-0.15,0.249v3.261c0,0.122,0.061,0.2,0.15,0.249H316.609z"/>
	<path fill="#C6B261" d="M320.66,417.107c0,0-0.5-0.041-0.9-0.041v3.285c0,0.123,0.06,0.199,0.14,0.25h-0.81
		c0.09-0.051,0.14-0.127,0.14-0.25v-3.285c-0.41,0-0.91,0.041-0.91,0.041c-0.13,0-0.229,0.127-0.279,0.215v-0.48h2.899l0.011,0.48
		C320.89,417.234,320.81,417.118,320.66,417.107"/>
	<path fill="#C6B261" d="M324.319,417.09l-0.02,2.316c0,0.907-0.59,1.245-1.28,1.245c-0.61,0-1.38-0.299-1.38-1.233v-2.328
		c0-0.127-0.09-0.205-0.18-0.248h0.89c-0.09,0.043-0.18,0.121-0.18,0.248v2.338c0,0.382,0.13,0.968,0.91,0.968
		c0.739,0,0.97-0.47,0.97-0.968l-0.021-2.338c0-0.127-0.06-0.205-0.14-0.248h0.58C324.38,416.885,324.319,416.963,324.319,417.09"/>
	<path fill="#C6B261" d="M327.58,417.107c0,0-0.49-0.041-0.9-0.041v3.285c0,0.123,0.061,0.199,0.15,0.25h-0.82
		c0.09-0.051,0.14-0.127,0.14-0.25v-3.285c-0.409,0-0.899,0.041-0.899,0.041c-0.141,0-0.24,0.127-0.29,0.215v-0.48h2.91v0.48
		C327.819,417.234,327.729,417.118,327.58,417.107"/>
	<path fill="#C6B261" d="M330.66,420.601h-2.221c0.101-0.049,0.17-0.116,0.17-0.249v-3.261c0-0.127-0.069-0.205-0.159-0.249h2.079
		l0.011,0.432c-0.11-0.129-0.221-0.193-0.46-0.193c-0.11,0-0.95-0.012-0.95-0.012v1.332h0.899l0.19-0.154v0.535l-0.19-0.153h-0.899
		v1.702c0.12,0.011,0.38,0.039,0.64,0.033c0.601,0,0.811,0,1.01-0.349L330.66,420.601z"/>
	<path fill="#C6B261" d="M334.989,417.09c-0.14-0.01-1.06-0.022-1.06-0.022v1.334h0.91l0.2-0.155v0.535l-0.2-0.154h-0.91
		l-0.01,1.726c0,0.132,0.069,0.198,0.17,0.248h-0.84c0.1-0.05,0.149-0.116,0.149-0.248v-3.263c0-0.127-0.06-0.205-0.149-0.248h2.199
		l0.011,0.457C335.38,417.168,335.26,417.09,334.989,417.09"/>
	<path fill="#C6B261" d="M337.84,420.651c-1.08-0.024-2.021-0.847-1.99-1.985c0.021-0.896,0.79-1.914,2.1-1.875
		c0.91,0.017,1.98,0.703,1.95,1.963C339.87,420.015,338.76,420.679,337.84,420.651 M337.87,417.023
		c-0.811,0-1.431,0.604-1.431,1.615c0,1.211,0.76,1.757,1.45,1.757c0.81,0,1.4-0.63,1.4-1.624
		C339.3,417.705,338.699,417.023,337.87,417.023"/>
	<path fill="#C6B261" d="M343.199,420.611c-0.21,0-0.37-0.143-0.449-0.26c-0.28-0.414-0.48-0.752-0.671-1.061
		c-0.149-0.223-0.26-0.46-0.55-0.46h-0.319v1.521c0,0.123,0.069,0.199,0.149,0.25h-0.819c0.08-0.051,0.149-0.127,0.149-0.25v-3.262
		c0-0.127-0.069-0.203-0.149-0.248h1.039c1.101,0,1.341,0.574,1.341,0.922c0,0.598-0.53,0.902-0.87,0.93
		c0.3,0.06,0.45,0.293,0.529,0.414c0,0,0.591,1.013,0.83,1.271c0.12,0.133,0.36,0.223,0.36,0.223L343.199,420.611z M341.62,417.063
		c-0.25,0-0.41,0.018-0.41,0.018v1.52c0,0,0.18,0.01,0.319,0.01c0.42,0,0.83-0.248,0.83-0.828
		C342.359,417.521,342.21,417.063,341.62,417.063"/>
	<path fill="#C6B261" d="M347.64,420.639c-1.01-0.094-1.87-0.883-1.84-1.963c0.02-0.906,0.78-1.924,2.09-1.885
		c0.92,0.017,1.99,0.703,1.96,1.953c-0.03,1.116-0.91,1.768-1.729,1.873c0.72,0.514,1.46,0.774,2.14,0.994
		C349.33,421.834,348.35,421.535,347.64,420.639 M347.83,417.023c-0.82,0-1.431,0.604-1.431,1.615c0,1.211,0.761,1.757,1.44,1.757
		c0.81,0,1.41-0.63,1.41-1.624C349.25,417.705,348.649,417.023,347.83,417.023"/>
	<path fill="#C6B261" d="M353.279,417.09l-0.01,2.316c0,0.907-0.59,1.245-1.28,1.245c-0.609,0-1.39-0.299-1.39-1.233v-2.328
		c0-0.127-0.09-0.205-0.17-0.248h0.88c-0.08,0.043-0.18,0.121-0.18,0.248v2.338c0,0.382,0.13,0.968,0.92,0.968
		c0.74,0,0.97-0.47,0.97-0.968L353,417.09c0-0.127-0.061-0.205-0.15-0.248h0.58C353.34,416.885,353.279,416.963,353.279,417.09"/>
	<path fill="#C6B261" d="M356.17,420.6c0.14-0.065,0.18-0.143,0.14-0.27c-0.04-0.066-0.189-0.421-0.359-0.846h-1.431
		c-0.189,0.414-0.33,0.779-0.35,0.846c-0.05,0.127-0.03,0.217,0.109,0.27h-0.67c0.15-0.104,0.2-0.164,0.25-0.27
		c0.101-0.211,1.521-3.576,1.521-3.576s1.43,3.365,1.51,3.576c0.05,0.116,0.09,0.182,0.28,0.27H356.17z M355.229,417.698
		c0,0-0.38,0.951-0.62,1.548h1.24C355.569,418.551,355.229,417.698,355.229,417.698"/>
	<path fill="#C6B261" d="M359.749,420.601h-2.199c0.1-0.049,0.16-0.127,0.16-0.249v-3.261c0-0.127-0.061-0.205-0.16-0.249h0.83
		c-0.091,0.044-0.15,0.122-0.15,0.249v3.233c0.12,0.017,0.34,0.039,0.59,0.039c0.67-0.012,0.86-0.012,1.04-0.349L359.749,420.601z"
		/>
	<path fill="#C6B261" d="M360.439,420.601c0.09-0.049,0.15-0.127,0.15-0.249v-3.261c0-0.127-0.061-0.205-0.15-0.249h0.82
		c-0.08,0.044-0.14,0.122-0.14,0.249v3.261c0,0.122,0.06,0.2,0.14,0.249H360.439z"/>
	<path fill="#C6B261" d="M364.5,417.107c0,0-0.5-0.041-0.9-0.041v3.285c0,0.123,0.05,0.199,0.14,0.25h-0.819
		c0.1-0.051,0.14-0.127,0.14-0.25v-3.285c-0.41,0-0.9,0.041-0.9,0.041c-0.13,0-0.239,0.127-0.289,0.215v-0.48h2.909v0.48
		C364.729,417.234,364.64,417.118,364.5,417.107"/>
	<path fill="#C6B261" d="M367.8,417.145l-0.891,1.676v1.531c0,0.123,0.101,0.199,0.2,0.25h-0.939c0.09-0.051,0.2-0.117,0.2-0.25
		v-1.51l-1.061-1.734c-0.08-0.133-0.15-0.188-0.3-0.266h1.06c-0.13,0.055-0.229,0.082-0.09,0.342l0.811,1.367l0.75-1.443
		c0.08-0.15,0.04-0.221-0.11-0.266h0.7C367.97,416.908,367.87,417.014,367.8,417.145"/>
	<path fill="#8CC63F" d="M246.239,384.344c0.33-0.096,0.61-0.064,0.721,0.04c0.04-0.309,0.06-0.661,0.05-1.05
		c-0.13,0.044-0.17,0.176-0.43,0.096c-0.21-0.112-1.4-1.02-1.431-1.445l0.03-0.236c0.11-0.135,0.45-0.411,0.73-0.54
		c0.119-0.06,0.51-0.08,0.75-0.031c-0.11-0.388-0.261-0.792-0.45-1.212c-1.66-0.621-1.41-2.742-1.99-3.587
		c-0.11-0.152-0.3-0.347-0.51-0.596c-0.141,0.853-0.101,1.688,0.46,2.646c0,0-0.681,0.347-1.59-0.185
		c-0.67-0.344-1.801-1.873-3.36-1.67c-0.58,0.722-1.31,1.44-2.29,2.083c0.5-0.094,1.03-0.152,1.6-0.153
		c0.761,0,1.58,0.105,2.4,0.362c1.11,0.347,1.88,0.855,2.37,1.461c0.5,0.606,0.7,1.299,0.689,1.935c0,0.407-0.069,0.79-0.189,1.136
		c0.06,0.081,0.149,0.14,0.25,0.164c0.29,0.071,0.62-0.18,0.77-0.573l-0.029,0.133c-0.12,0.469-0.49,0.782-0.811,0.704
		c-0.109-0.027-0.2-0.097-0.27-0.193c-0.08,0.191-0.181,0.37-0.28,0.53c-0.36,0.57-0.82,1.021-1.27,1.343
		c-0.2,0.14-0.4,0.257-0.591,0.345l-0.069,0.196c0,0.012-0.15,0.478-0.471,1.213c-0.04,0.108-0.05,0.116-0.149,0.359
		c-0.28,0.608-0.65,1.353-1.12,2.157c0.03,0.302,0.18,0.544,0.41,0.598c0.29,0.072,0.62-0.181,0.77-0.573l-0.029,0.136
		c-0.12,0.462-0.49,0.778-0.811,0.701c-0.27-0.064-0.43-0.375-0.4-0.744c-0.439,0.733-0.96,1.511-1.56,2.279
		c0.03,0.285,0.17,0.511,0.39,0.565c0.301,0.07,0.62-0.182,0.771-0.577l-0.03,0.134c-0.109,0.465-0.479,0.781-0.8,0.703
		c-0.271-0.061-0.43-0.367-0.41-0.73c-0.38,0.476-0.8,0.947-1.25,1.399c-0.32,0.316-0.67,0.646-1.03,0.925
		c-0.409,0.503-0.739,0.8-0.96,0.86c0.021,0.899,1.15,0.405,1.15,0.405c0.66,0.836,1.22-0.165,1.22-0.165
		c0.48,1.015,1.5,0.005,1.5,0.005c0.4,0.822,1.311,0.028,1.311,0.028c0.26,0.5,0.88,0.011,1.42-0.59l-0.24,0.01
		c-0.33-0.077-0.49-0.519-0.37-0.986l0.04-0.129c-0.06,0.418,0.1,0.782,0.4,0.851c0.29,0.071,0.62-0.178,0.77-0.573l-0.03,0.114
		c0.24-0.311,0.391-0.548,0.391-0.548c1.229-0.96,1.89-1.681,2.25-2.197c-0.15,0.136-0.33,0.201-0.5,0.161
		c-0.32-0.075-0.49-0.516-0.37-0.985l0.05-0.128c-0.06,0.414,0.101,0.779,0.39,0.852c0.421,0.089,0.83-0.519,0.83-0.825
		c0-0.1-0.02-0.148-0.02-0.148c-0.08-0.098-1.1-0.584-1.86-1.102c-0.43-0.289-0.79-0.563-0.84-0.845
		c-0.11-0.583,0.62-1.445,0.771-1.397c1.21,0.383,1.75-0.947,1.75-0.947c0.47,0.118,0.88,0.03,1.189-0.097
		c0.17-0.074,0.84-0.408,0.91-1.595c-0.2,0.277-0.79,0.745-1.16,0.41C245.699,384.955,245.6,384.604,246.239,384.344 M237.8,394.417
		c-0.12,0.464-0.49,0.78-0.811,0.701c-0.329-0.077-0.5-0.518-0.369-0.986l0.04-0.127c-0.061,0.416,0.1,0.782,0.399,0.849
		c0.29,0.072,0.61-0.181,0.771-0.573L237.8,394.417z M241.35,392.365c-0.12,0.468-0.479,0.781-0.81,0.706
		c-0.32-0.076-0.49-0.519-0.36-0.984l0.04-0.13c-0.07,0.413,0.1,0.781,0.39,0.851c0.29,0.069,0.62-0.185,0.771-0.576L241.35,392.365
		z M243.5,392.19l-0.03,0.133c-0.13,0.463-0.49,0.78-0.81,0.704c-0.33-0.079-0.49-0.521-0.37-0.986l0.04-0.128
		c-0.061,0.413,0.1,0.781,0.399,0.847C243.02,392.833,243.34,392.581,243.5,392.19 M243.02,389.87l-0.03,0.136
		c-0.13,0.466-0.489,0.778-0.819,0.702c-0.32-0.076-0.49-0.518-0.36-0.983l0.04-0.13c-0.06,0.413,0.1,0.779,0.4,0.851
		C242.54,390.515,242.859,390.265,243.02,389.87 M244.16,385.201c-0.12,0.465-0.48,0.782-0.811,0.704
		c-0.32-0.079-0.49-0.518-0.36-0.985l0.04-0.13c-0.06,0.414,0.101,0.783,0.391,0.852c0.3,0.07,0.62-0.179,0.77-0.572L244.16,385.201
		z"/>
</g>
</svg>
