<?xml version="1.0" encoding="utf-8"?>
<!-- Generator: Adobe Illustrator 18.1.1, SVG Export Plug-In . SVG Version: 6.00 Build 0)  -->
<svg version="1.1" id="Layer_1" xmlns="http://www.w3.org/2000/svg" xmlns:xlink="http://www.w3.org/1999/xlink" x="0px" y="0px"
	 viewBox="0 0 171 103" enable-background="new 0 0 171 103" xml:space="preserve">
<g>
	<g>
		<g>
			<path d="M46.7,47.2c0.4-3.8,2-6.8,3-10c1.3-2.7,3.6-6.9,1.8-11.9c-0.4-3.1-5.3-6.1-4.9-12.1C45.9,10,48,9.1,51.4,8.9
				c1.5-0.1,3.1,0.3,4.5,0.8c1.3,0.4,2.9,2.8,6.1,1.1c5.2-4.6,10.6-8.2,15-8.4c4.2,0.8,8.3,0.6,8,0.5c0,0.1,3.3-0.6,7.7-0.5
				c2,0.2,4.6,1.5,7.2,3c1.4,0.8,2.4,1.6,4,2.8c3.8,1.2,4.2-2.3,5.4-2.3c2-1.3,6.9-1.5,8.2-0.2c1.5,1.9,1,5.7,0.3,8.3
				c-0.5,3.2-2.4,4.3-2.9,7.8c0.3,3,1.4,4.4,1.8,5.6c3.4,8.4,6.2,13.3,5,20.8c2.9-7.3,0.7-13.4-2.7-21.7c-0.4-1.1-1.5-3.1-1.6-4.7
				c-0.1-1.1,2.4-4.3,2.9-7.2c0.7-3,1.8-6.8-0.8-10.6c-4-2.8-7.6-1.9-11.4-0.2c-1.7,1.2-3,2.9-2.8,2.3c-1.1-0.8-2.7-1.9-4-2.7
				c-2.7-1.6-5.4-3-8.2-3.4c-5.3-0.1-8.1,0.6-8.2,0.5c-0.3,0-2.5,0.3-7.9-0.5c-5.6,0.2-11.5,4.4-16.5,8.9c-0.6,0.6-5.5-3.3-9.1-2.5
				c-1.9,0.1-3.7,0.3-5.5,1.6c-1.9,1.5-1.8,4-1.7,5.4c-0.2,7,5.2,10.6,5,12.7c1.3,4.1,0,7.1-1.2,10.6C47.3,40.1,46.3,43.3,46.7,47.2
				z"/>
		</g>
		<path fill-rule="evenodd" clip-rule="evenodd" d="M99,12.7c-1.9,0.7-4.6,0-5.1-1.8C94.6,8.2,99.7,9.6,99,12.7z"/>
		<path fill-rule="evenodd" clip-rule="evenodd" d="M74,10.8c-0.2,2.3-2.9,3.4-5.1,2.5C68.4,10.4,72.2,9.4,74,10.8z"/>
		<path fill-rule="evenodd" clip-rule="evenodd" d="M86.5,27.2c1.4,3.1,9.4,3,9.4,4.1c-0.6,3.2-9.2,1.2-12.3,1.4
			c-6.2,0.3-11.7,1.2-11.7-1.5c1.1-1.5,7.2-0.6,8.8-4.4c0.8-4-3.5-4.9-3.4-8.3c0.2-7.5,12.5-7.3,13-0.4
			C90.5,21.7,85.3,22.5,86.5,27.2z"/>
		<path fill-rule="evenodd" clip-rule="evenodd" d="M108.9,11.2c0,0,0.8-2.4,2.9-3.2c2.1-0.8,2.6,0.5,2.6,3.2c0,2.6-1.3,5.3-1.3,5.3
			L108.9,11.2z"/>
		<path fill-rule="evenodd" clip-rule="evenodd" d="M57.2,14.9c0,0-1-2.4-3.4-2.9c-2.4-0.5-4.2,0.3-2.6,4.5c1.6,4.2,2.9,5.2,2.9,5.2
			S54.9,17.8,57.2,14.9z"/>
		<g>
			<path fill="#003E7E" d="M0,51h11.9c8.3,0,10.1,6.2,10.1,9.5c0,3.2-1.8,5.8-4.6,7.1c3.8,1.3,6.4,4.3,6.4,8.5
				c0,5.2-4.1,9.5-10.7,9.5H0V51z M6.7,65.2h3.7c2.6,0,4.4-1.7,4.4-3.9c0-2.2-1.8-3.9-4.4-3.9H6.7V65.2z M6.7,79.2h3.5
				c4.5,0,6.2-1.4,6.2-4.3c0-3-1.6-4.3-6.2-4.3H6.7V79.2z"/>
			<path fill="#003E7E" d="M35.1,53.1l-4.3,4.3l-4.3-4.3l4.3-4.3L35.1,53.1z M27.5,60l6.4-0.6v26.2L27.5,86V60z"/>
			<path fill="#003E7E" d="M42.9,77.7c-4.4-1.9-6.1-4.1-6.1-8.4c0-6,5.2-10.1,11.7-10.1c2.9,0,5.2,0.3,6.2,0.3
				c2.5,0,6.1-0.8,8.9-1.7l-1.3,5.4h-3.9c1.6,1.8,2.6,3.7,2.6,6.3c0,3.6-2.2,6.2-5.4,7.5c3.6,1.7,5.9,4.3,5.9,8.4
				c0,7-6.7,10.1-12.1,10.1c-5.9,0-9.6-1.5-13-5.1l3.9-4.1c2.7,2.8,4.3,3.9,8.4,3.9c2.6,0,6.1-1.6,6.1-5c0-3.9-3.1-5.8-6.8-5.8
				c-2.2,0-4.3,0.8-6.2,1.9L42.9,77.7z M48.9,74.6c2.9,0,5.7-2.3,5.7-5.3c0-3-2.8-5.3-5.7-5.3c-2.9,0-5.7,2.3-5.7,5.3
				C43.2,72.3,46,74.6,48.9,74.6z"/>
			<path fill="#003E7E" d="M75.7,51h11.9c8.3,0,10.1,6.2,10.1,9.5c0,3.2-1.8,5.8-4.6,7.1c3.8,1.3,6.4,4.3,6.4,8.5
				c0,5.2-4.1,9.5-10.7,9.5H75.7V51z M82.4,65.2h3.7c2.6,0,4.4-1.7,4.4-3.9c0-2.2-1.8-3.9-4.4-3.9h-3.7V65.2z M82.4,79.2h3.5
				c4.5,0,6.2-1.4,6.2-4.3c0-3-1.6-4.3-6.2-4.3h-3.5V79.2z"/>
			<path fill="#003E7E" d="M126.6,83c-3.1,2.2-7,3.4-10.7,3.4c-7.6,0-14.2-5.9-14.2-13.6c0-7.7,6.7-13.6,14.2-13.6
				c5.3,0,9.9,3.2,12.2,7.9L110.5,78c0.5,1.1,1.9,2.6,5,2.6c3.3,0,5.7-1.3,8.4-3L126.6,83z M120,66.2c-1.2-1.2-2.8-1.7-4.5-1.7
				c-4,0-7.3,3.3-7.6,7.2c0,0.6,0,1.1,0.1,1.7L120,66.2z"/>
			<path fill="#003E7E" d="M133.5,59.9c2.4-0.5,4.9-0.7,7.4-0.7c4.6,0,9.6,2,9.6,7.2v19.2l-5.9,0.6V84c-1.8,1.5-4,2.4-6.4,2.4
				c-5.4,0-9.7-3.2-9.7-9c0-4.6,3.9-8.7,8.7-8.7c2.8,0,4.6,0.5,7.1,1.7c0-0.6,0.2-1.1,0.2-1.7c0-3.5-2.5-4.1-5.5-4.1
				c-2.5,0-4.9,0.6-7.3,1.5L133.5,59.9z M139.7,81c2.3,0,4.7-1.4,4.7-3.7c0-2.3-2.4-3.7-4.7-3.7c-2.3,0-4.7,1.4-4.7,3.7
				C135,79.7,137.5,81,139.7,81z"/>
			<path fill="#003E7E" d="M161.4,64L161.4,64c2.3-4,5.2-4.8,9.6-4.8l-2.2,6.8c-4.9,0-7.1,2.9-7.1,7.3v12.3l-6.4,0.4V60l6.1-0.6V64z
				"/>
		</g>
		<g>
			<path fill="#003E7E" d="M91.9,99.9c-0.4,0.2-1.3,0.4-2.3,0.4c-2.5,0-4.4-1.6-4.4-4.5c0-2.8,1.9-4.6,4.6-4.6
				c1.1,0,1.8,0.2,2.1,0.4l-0.3,0.9c-0.4-0.2-1-0.4-1.8-0.4c-2.1,0-3.4,1.3-3.4,3.6c0,2.2,1.2,3.5,3.4,3.5c0.7,0,1.4-0.1,1.9-0.4
				L91.9,99.9z"/>
			<path fill="#003E7E" d="M95.8,100.3c-1.7,0-3-1.3-3-3.3c0-2.1,1.4-3.4,3.1-3.4c1.8,0,3.1,1.3,3.1,3.3
				C98.9,99.3,97.3,100.3,95.8,100.3L95.8,100.3z M95.8,99.4c1.1,0,1.9-1,1.9-2.5c0-1.1-0.5-2.4-1.9-2.4c-1.4,0-1.9,1.3-1.9,2.5
				C93.9,98.4,94.7,99.4,95.8,99.4L95.8,99.4z"/>
			<path fill="#003E7E" d="M100.4,95.5c0-0.7,0-1.2-0.1-1.7h1l0.1,1h0c0.3-0.6,1-1.2,2.1-1.2c0.9,0,2.2,0.5,2.2,2.7v3.8h-1.2v-3.7
				c0-1-0.4-1.9-1.5-1.9c-0.7,0-1.3,0.5-1.5,1.2c-0.1,0.1-0.1,0.4-0.1,0.5v3.8h-1.2V95.5z"/>
			<path fill="#003E7E" d="M107.8,100.2v-5.5h-0.9v-0.9h0.9v-0.3c0-0.9,0.2-1.7,0.7-2.2c0.4-0.4,1-0.6,1.5-0.6c0.4,0,0.8,0.1,1,0.2
				l-0.1,0.9c-0.2-0.1-0.4-0.1-0.7-0.1c-1,0-1.2,0.9-1.2,1.8v0.3h1.5v0.9h-1.5v5.5H107.8z"/>
			<path fill="#003E7E" d="M112,97.2c0,1.5,1,2.2,2.2,2.2c0.8,0,1.3-0.1,1.8-0.3l0.2,0.8c-0.4,0.2-1.1,0.4-2.1,0.4
				c-1.9,0-3.1-1.3-3.1-3.2c0-1.9,1.1-3.4,3-3.4c2.1,0,2.6,1.8,2.6,3c0,0.2,0,0.4,0,0.5H112z M115.4,96.4c0-0.7-0.3-1.9-1.6-1.9
				c-1.2,0-1.7,1.1-1.8,1.9H115.4z"/>
			<path fill="#003E7E" d="M122.4,99.9c-0.3,0.1-1,0.4-1.8,0.4c-1.9,0-3.2-1.3-3.2-3.2c0-2,1.3-3.4,3.4-3.4c0.7,0,1.3,0.2,1.6,0.3
				l-0.3,0.9c-0.3-0.1-0.7-0.3-1.3-0.3c-1.5,0-2.2,1.1-2.2,2.4c0,1.5,0.9,2.4,2.2,2.4c0.7,0,1.1-0.2,1.4-0.3L122.4,99.9z"/>
			<path fill="#003E7E" d="M125.3,92.3v1.5h1.7v0.9h-1.7v3.4c0,0.8,0.2,1.2,0.9,1.2c0.3,0,0.5,0,0.7-0.1l0.1,0.9
				c-0.2,0.1-0.6,0.2-1,0.2c-0.5,0-1-0.2-1.2-0.5c-0.3-0.4-0.4-0.9-0.4-1.7v-3.4h-1v-0.9h1v-1.2L125.3,92.3z"/>
			<path fill="#003E7E" d="M128.8,92.7c-0.4,0-0.7-0.3-0.7-0.7c0-0.4,0.3-0.7,0.7-0.7c0.4,0,0.7,0.3,0.7,0.7
				C129.6,92.4,129.3,92.7,128.8,92.7L128.8,92.7z M128.3,100.2v-6.3h1.2v6.3H128.3z"/>
			<path fill="#003E7E" d="M133.9,100.3c-1.7,0-3-1.3-3-3.3c0-2.1,1.4-3.4,3.1-3.4c1.8,0,3.1,1.3,3.1,3.3
				C137.1,99.3,135.5,100.3,133.9,100.3L133.9,100.3z M134,99.4c1.1,0,1.9-1,1.9-2.5c0-1.1-0.5-2.4-1.9-2.4c-1.4,0-1.9,1.3-1.9,2.5
				C132.1,98.4,132.9,99.4,134,99.4L134,99.4z"/>
			<path fill="#003E7E" d="M138.6,95.5c0-0.7,0-1.2-0.1-1.7h1l0.1,1h0c0.3-0.6,1-1.2,2.1-1.2c0.9,0,2.2,0.5,2.2,2.7v3.8h-1.2v-3.7
				c0-1-0.4-1.9-1.5-1.9c-0.7,0-1.3,0.5-1.5,1.2c-0.1,0.1-0.1,0.4-0.1,0.5v3.8h-1.2V95.5z"/>
			<path fill="#003E7E" d="M146.5,97.2c0,1.5,1,2.2,2.2,2.2c0.8,0,1.3-0.1,1.8-0.3l0.2,0.8c-0.4,0.2-1.1,0.4-2.1,0.4
				c-1.9,0-3.1-1.3-3.1-3.2c0-1.9,1.1-3.4,3-3.4c2.1,0,2.6,1.8,2.6,3c0,0.2,0,0.4,0,0.5H146.5z M149.9,96.4c0-0.7-0.3-1.9-1.6-1.9
				c-1.2,0-1.7,1.1-1.8,1.9H149.9z"/>
			<path fill="#003E7E" d="M152.4,95.8c0-0.7,0-1.4-0.1-2h1l0.1,1.2h0c0.3-0.9,1-1.4,1.8-1.4c0.1,0,0.2,0,0.3,0v1.1
				c-0.1,0-0.2,0-0.4,0c-0.8,0-1.4,0.6-1.5,1.5c0,0.2,0,0.4,0,0.5v3.4h-1.2V95.8z"/>
			<path fill="#003E7E" d="M157.4,93.8l1.4,3.8c0.2,0.4,0.3,0.9,0.4,1.3h0c0.1-0.4,0.2-0.9,0.4-1.3l1.3-3.7h1.2l-1.7,4.5
				c-0.8,2.2-1.4,3.3-2.2,4c-0.6,0.5-1.1,0.7-1.4,0.7l-0.3-1c0.3-0.1,0.7-0.3,1-0.6c0.3-0.2,0.7-0.7,1-1.3c0.1-0.1,0.1-0.2,0.1-0.3
				s0-0.2-0.1-0.3l-2.3-5.9H157.4z"/>
		</g>
	</g>
</g>
</svg>
