<?xml version="1.0" encoding="utf-8"?>
<!-- Generator: Adobe Illustrator 20.1.0, SVG Export Plug-In . SVG Version: 6.00 Build 0)  -->
<svg version="1.1" id="Layer_1" xmlns="http://www.w3.org/2000/svg" xmlns:xlink="http://www.w3.org/1999/xlink" x="0px" y="0px"
	 viewBox="0 0 270.7 109.7" style="enable-background:new 0 0 270.7 109.7;" xml:space="preserve">
<style type="text/css">
	.st0{clip-path:url(#SVGID_2_);fill:url(#SVGID_3_);}
</style>
<g>
	<defs>
		<path id="SVGID_1_" d="M97.6,76.1c1.6-8.7,5.6-20,12.4-26.7c0.9-0.8,3.1-2.7,4.4-1.3c0.5,0.9,0.4,3,0.1,4.1
			c-2.8,10-7.6,23.8-10.9,27.7c-1.3,1.5-2.5,2.1-3.4,2.1C97.8,82.1,96.8,78.5,97.6,76.1 M137,70.2c-2.2-1.7-2.1-6.4-1.7-9.4
			c0.8-5.6,3.5-11.6,8.6-14.7l0.3-0.2c0.8,5.4,0,10.7-1.3,15.9c-0.8,2.5-1.7,5.4-3.5,7.5c-0.4,0.5-1,1.1-1.7,1.1
			C137.4,70.4,137.2,70.4,137,70.2 M166.6,62c-2.1-1.6-2.7-6.4-3-10c-0.2-2.8,0.1-8.2,2.6-10.5c1.6-1.2,3.5-0.9,4.2,0.8
			c1.4,3.3,1.6,9.1,1,12.9c-0.3,2.3-0.9,6.3-3.3,6.9c-0.2,0.1-0.4,0.1-0.5,0.1C167.3,62.2,166.9,62.1,166.6,62 M35.7,13.6
			C27.3,19.2,14.7,29,6,46.3c-8.7,17.4-8.8,41,5.4,53.8c10.3,9.4,26.9,12.1,43.5,7.1c12-3.6,23.9-13.4,33.4-26.1
			c-0.4,7.6,4.6,10.9,9.3,10.9c10.5-0.1,14.7-13.3,14.7-13.3c1.3,3.8,1.9,5.5,5.9,6.5c6.8,1.6,9.7-4,10.8-8.2
			c1.2,2.7,4.3,5.1,7.5,4.7c5-0.6,8.4-5.2,10.2-9.3c6.4-14.2,6-30.4,1.7-45c2.8-0.2,4.7-1,7.1-1.8c1.4-0.5,2.4-0.9,3.8-1.4
			c-2.1,9.2-3.4,18.8-3.1,28.6c0.4,6.5,0.9,14,5.6,18.3c2,2,4.9,2.6,7.7,1.6c3.5-1.1,6.4-6.1,7.6-9.7c0.8-2.2,2-7.5,2.3-11
			c1.4-1,2.8-1.9,4.2-3.1c0.6-0.5,0.9-0.7,1.4-1.1c-0.6,4-1.2,8.6-0.2,12.6c0.7,2.8,2.5,5.2,5.2,5.9c4.6,0.8,9.1-5.2,11.7-8.7
			c0.9,1.6,2.1,3.3,4,3.9c2.2,0.7,5.2-0.3,7-2.5c5.3-6.5,7.5-15.3,10.1-23.2l0.3-0.8c1.4-0.4,2.6-1,3.9-1.8c-1.1,3.3-2,6.8-2.4,10.4
			c-0.5,4.3,0.3,9.8,4,12c1.9,1,4.4-0.3,5.7-1.4c4.3-3.8,7-9.3,9.6-14.2l0.2-0.3c0,2.7,0.5,6.2,1.8,8.5c0.8,1.3,2.4,2.4,3.9,2.2
			c4.5-0.6,6.6-4.8,9-8.3c0.4-0.6,0.9-1.4,1.1-1.8c-1,5.7-3,12-4.1,17.7c-0.3,1.5-1.3,4.7-0.7,6.6c0.6,2.2,2.3,3.7,5.6,3.9
			c0.6,0,0.9-0.3,1-0.7c-0.8-3.6-0.1-6.6,1.2-11.9c2.5-10.9,5.1-21.8,7.5-32.5c0.5-2.5,0.9-6.2-1.3-8c-0.8-0.5-1.6-0.5-2.5-0.2
			c-1.3,0.5-2.1,1.8-2.5,3.1c-2.2,6.2-3.9,12.8-7.5,18.6c-1.1,1.7-2.5,3.9-4.3,3.9c-0.4,0-0.8-0.2-1-1.1c-1.3-5,1.1-10.8,2.7-15.8
			c0.6-1.5,0.9-3.5,0.2-4.9c-0.4-0.7-1.1-1.1-1.9-1.2c-2.2-0.1-3.5,1.8-4.6,3.5c-3.9,7.5-7,16.1-12.2,23c-0.8,0.9-1.6,2-2.8,1.9
			c-0.5-0.1-1-0.5-1.2-1.2c-0.8-3,0.1-7.6,1.4-11.2c1-2.6,2.1-4.3,2.5-6.9c0.2-1.4-0.3-2.6-1.6-3.3c-0.7-0.3-1.4-0.4-2.4,0.1
			c-1.9,1-3.5,2.6-5.6,3c0.4-1.6,0.9-3.1,0.8-4.7c-0.2-1.4-0.6-3-1.9-3.5c-1.3-0.4-2.8-0.1-3.9,1c-3.2,3.4-3.3,8.8-1.7,13
			c-0.9,5.4-3.4,10.7-6.3,15.3c-1.1,1.5-2.1,3.2-3.9,3.5c-1.2,0-1.9-0.8-2.2-2.4c1.7-3.6,3.9-7.5,4.8-11.3c0.7-2.9,1.7-7.4-0.1-10.2
			c-0.4-0.7-1.3-1.1-2.2-1c-1.8,0.1-3.1,1.4-4.1,2.8c-3.8,5.8-4.6,12.5-4.6,19.3c-0.7,2.2-1.8,4.4-3.5,6.1c-0.8,0.8-2.2,1.6-3.3,1.1
			c-0.6-0.4-1-1-1.1-1.8c-0.7-4.2,0.8-8.3,2.1-12.3c2.3-7,4.7-8.8,3.4-11.7c-0.5-1.1-1.6-1.8-2.7-1.8c-1.4-0.1-3.1,0.8-3.9,2.1
			c-1.9,3.3-3.8,6.7-6.6,9.4c-1.6,1.5-3,2.9-5.4,4c-0.2-1.4-0.5-2.7-0.9-4c-1.4-4-4-7.8-8.6-7.4c-1.6,0.1-3.2,1-4.3,1.7
			c0.5-5.8,1.9-11.5,4.6-16.6c1.6-3.1,4.3-6.3,4.5-8.9c0.2-1.4-0.5-2.8-1.7-3.4c-1.2-0.6-2.5-0.6-3.9,0.1c-2.8,1.7-4.4,4.8-5.7,7.6
			c-2.6,3-6.6,4.4-10.6,5.3c-5.3,1.5-8.8,0-12.4-3.2c-1-0.7-2.2-1.6-3.6-1.4c-1.5,0-2.9,1.4-3.5,2.4c-0.7,1.2-0.7,2.9,0,4
			c3.1,4.3,7,7.6,8.8,13.5c0.4,1.4,0.8,2.7,0.8,4.1c-10.3,6.3-16.1,19.1-15.4,30.8c-1,3.4-1.9,9.3-5.9,9.1c-2-0.4-5-7,0.3-26.7
			c0.2-3,1-6.1-0.6-8.9c-0.9-1.6-3-1.8-4.7-1.8c-13.1,1.6-20.7,17-26.4,27.7c-7.2,12-16,19.4-24.9,24c-22,11.4-47.2,7.8-49.4-16.7
			C13.6,52,27.4,24.8,58,11.5C81.7,1.2,97.6,8.8,97.6,22.9c0,6.9-4.2,28-33.8,39.3c-5.1,1.9-14.4,2.9-18.3-1.5
			C39.4,53.8,41.3,45.1,45,39c6.5-10,17.6-16.2,29.4-19.4c1-0.2,1.7-0.7,2.2-1.8c0.3-0.7,0.2-1.4-0.1-2.3c-0.7-1.2-1.9-1.5-3.1-1.4
			C62.7,15.8,53,20.5,45.5,27.1c-8.9,8.4-15.4,19.2-14.3,31.2c0.8,7.9,6.2,14.9,14.1,16.7c8.7,1.8,20.4-2.5,28.2-6.7
			c16.2-9.6,29.6-25.9,31.4-44.2c0.6-8.2-3.5-16.3-10.7-20.5C89.8,1.4,83.8,0,76.8,0C65,0,50.3,3.9,35.7,13.6"/>
	</defs>
	<clipPath id="SVGID_2_">
		<use xlink:href="#SVGID_1_"  style="overflow:visible;"/>
	</clipPath>
	
		<linearGradient id="SVGID_3_" gradientUnits="userSpaceOnUse" x1="-35.1666" y1="564.0336" x2="-34.1666" y2="564.0336" gradientTransform="matrix(268.2799 -71.6671 -71.6671 -268.2799 49859.1445 148890.0312)">
		<stop  offset="0" style="stop-color:#9D773E"/>
		<stop  offset="0.4688" style="stop-color:#D6B67E"/>
		<stop  offset="0.511" style="stop-color:#DBBC84"/>
		<stop  offset="0.6238" style="stop-color:#CDAA73"/>
		<stop  offset="1" style="stop-color:#A0703E"/>
	</linearGradient>
	<polygon class="st0" points="-30.8,7.5 252.9,-68.3 299.2,104.8 15.5,180.6 	"/>
</g>
</svg>
