<svg id="レイヤー_1" xmlns="http://www.w3.org/2000/svg" width="160" height="50" viewBox="0 0 160 50"><style>.st0{fill:#e50112}.st1{fill:#f08c00}</style><path class="st0" d="M126.607 21.443l-3.456 7.516-2.707-7.516H110.36l8.108 17.63-4.254 9.234h9.595l12.369-26.864zM30.344 1.693A128.067 128.067 0 0 0 11.37 18.472V10.78H0v26.359A124.975 124.975 0 0 1 30.344 4.805V1.693zm120.095 19.75v2.297c-1.858-1.816-4.237-2.709-6.397-2.709-4.129 0-8.481 3.255-8.481 10.69 0 8.068 4.683 10.86 8.54 10.86 1.993 0 4.403-.938 6.338-2.717v1.88H160V21.443h-9.561zm-2.624 13.279c-1.5 0-2.72-1.103-2.72-2.931 0-1.902 1.22-2.958 2.72-2.958 1.768 0 2.786 1.322 2.786 2.958 0 1.639-1.271 2.931-2.786 2.931M99.044 21.443v2.297c-1.858-1.816-4.225-2.709-6.399-2.709-4.116 0-8.466 3.255-8.466 10.69 0 8.068 4.679 10.86 8.547 10.86 1.974 0 4.379-.938 6.318-2.717v1.88h9.58V21.443h-9.58zm-2.592 13.279c-1.517 0-2.739-1.103-2.739-2.931 0-1.902 1.222-2.958 2.739-2.958 1.757 0 2.756 1.322 2.756 2.958.001 1.639-1.268 2.931-2.756 2.931M45.784 21.443v2.297c-1.871-1.816-4.227-2.709-6.382-2.709-4.131 0-8.483 3.255-8.483 10.69 0 8.068 4.703 10.86 8.547 10.86 1.993 0 4.403-.938 6.318-2.717v1.88h9.573V21.443h-9.573zm-2.602 13.279c-1.51 0-2.717-1.103-2.717-2.931 0-1.902 1.208-2.958 2.717-2.958 1.772 0 2.769 1.322 2.769 2.958 0 1.639-1.267 2.931-2.769 2.931m30.845-13.761c-2.121 0-4.443.933-6.281 2.764V10.859h-9.404v30.887h9.404v-2.345c1.966 1.9 4.369 2.931 6.016 2.931 3.788 0 8.648-2.544 8.648-10.612-.001-7.436-4.304-10.759-8.383-10.759m-3.714 13.636c-1.485 0-2.739-1.31-2.739-2.943 0-1.634 1.001-2.959 2.739-2.959 1.539 0 2.747 1.064 2.747 2.959-.001 1.832-1.208 2.943-2.747 2.943"/><path class="st1" d="M23.088 28.257a112.657 112.657 0 0 0-10.84 13.488h19.156l-8.316-13.488z"/><path class="st0" d="M.083 41.745h2.928a120.499 120.499 0 0 1 27.333-30.633V7.927C18.272 17.216 7.973 28.69.083 41.745m5.894 0h2.997c5.95-9.018 13.164-17.135 21.37-24.138v-3.278c-9.485 7.823-17.73 17.06-24.367 27.416"/></svg>