<?xml version="1.0" encoding="utf-8"?>
<!-- Generator: Adobe Illustrator 22.0.1, SVG Export Plug-In . SVG Version: 6.00 Build 0)  -->
<svg version="1.1" xmlns="http://www.w3.org/2000/svg" xmlns:xlink="http://www.w3.org/1999/xlink" x="0px" y="0px" width="494.2px"
	 height="308.1px" viewBox="0 0 494.2 308.1" style="enable-background:new 0 0 494.2 308.1;" xml:space="preserve">
<style type="text/css">
	.st0{fill:#AC252B;}
	.st1{fill:#F6E39D;}
	.st2{fill:#4A3024;}
	.st3{fill:#FFFFFF;}
	.st4{fill:#DDDDDE;}
</style>
<g id="BG">
</g>
<g id="LOGO">
	<g>
		<path class="st0" d="M11.9,201.1c23.3,69.1,133.2,96.1,251.5,68.6c114.3-27.6,179.4-112.5,159.7-173.7
			C402,30.6,304.3-4.8,175.6,29.3C65.2,58-7.1,137.2,11.9,201.1z"/>
		<path class="st1" d="M477.5,91.1C452.8,13.2,325.5-21.1,194.9,13.4C61.5,47-20.1,131.8,4.3,211.7
			c22.5,76.6,145.3,113.5,276.1,81.4C413.4,260.5,502.5,169.6,477.5,91.1z M11.9,201.1C-7.1,137.2,65.2,58,175.6,29.3
			C304.3-4.8,402,30.6,423.1,96.1c19.6,61.2-45.4,146.1-159.7,173.7C145.1,297.2,35.1,270.3,11.9,201.1z"/>
		<path id="XMLID_6_" class="st2" d="M460.5,121c0,0.9,0.2,1.8,0.5,2.5c0.3,0.7,0.8,1.4,1.4,1.9c0.6,0.5,1.2,0.9,2,1.2
			c0.8,0.3,1.5,0.4,2.4,0.4c0.8,0,1.6-0.1,2.3-0.4c0.7-0.3,1.4-0.7,2-1.2c0.6-0.5,1-1.2,1.3-1.9c0.3-0.7,0.5-1.6,0.5-2.5
			c0-0.9-0.2-1.7-0.5-2.5c-0.4-0.7-0.8-1.4-1.4-1.9c-0.6-0.5-1.2-0.9-2-1.2c-0.8-0.3-1.5-0.4-2.4-0.4c-0.8,0-1.6,0.1-2.3,0.4
			c-0.7,0.3-1.4,0.7-2,1.2c-0.6,0.5-1,1.2-1.3,1.9C460.6,119.3,460.5,120.1,460.5,121 M462.1,121c0-0.7,0.1-1.3,0.3-1.9
			c0.2-0.6,0.5-1.1,0.9-1.5c0.4-0.4,0.9-0.8,1.4-1c0.6-0.2,1.1-0.4,1.8-0.4c0.6,0,1.2,0.1,1.8,0.4c0.6,0.2,1,0.6,1.5,1
			c0.4,0.4,0.7,0.9,1,1.5c0.3,0.6,0.4,1.2,0.4,1.9c0,0.7-0.1,1.3-0.3,1.9c-0.2,0.6-0.6,1.1-1,1.5c-0.4,0.4-0.9,0.8-1.4,1
			c-0.6,0.2-1.1,0.4-1.8,0.4c-0.6,0-1.2-0.1-1.8-0.4c-0.6-0.2-1-0.6-1.5-1c-0.4-0.4-0.7-0.9-1-1.5
			C462.3,122.3,462.1,121.7,462.1,121z M464.2,117.6l0.1,6.8l1.3,0l0-2.9l0.8,0l1.7,2.9l1.4,0l-1.9-3c0.2,0,0.5-0.1,0.7-0.1
			c0.2-0.1,0.4-0.2,0.6-0.3c0.2-0.1,0.3-0.3,0.4-0.5c0.1-0.2,0.1-0.5,0.1-0.8c0-0.7-0.2-1.2-0.7-1.5c-0.5-0.3-1.1-0.4-2-0.4
			L464.2,117.6z M465.6,120.4l0-1.8l1.1,0c0.1,0,0.3,0,0.5,0c0.2,0,0.3,0.1,0.5,0.1c0.1,0.1,0.2,0.1,0.3,0.2
			c0.1,0.1,0.1,0.3,0.1,0.4c0,0.4-0.1,0.7-0.4,0.8c-0.2,0.1-0.6,0.2-1,0.2L465.6,120.4z"/>
		<path class="st2" d="M490.4,97.4C477.2,56.1,426.3,20.2,382,11.8l0,0.1c0,0,0,0,0,0c48.1,14.5,83.6,41.9,95.5,79.2
			c24.9,78.5-64.2,169.3-197.2,202c-88.6,21.7-173.6,11.8-226.2-20.7c0.1,0.1,39,35.7,139.2,35.7c33.5,0,67.6-4.2,98.7-12.1
			c85-21.7,155.8-65.9,186.1-118.7C493.5,150.5,498.5,122.7,490.4,97.4z"/>
		<path class="st2" d="M17,204.3C-2.2,138.8,70.6,61.4,182.6,34.1c101.9-24.8,177-11.6,218.6,26.3c-0.2-0.3-0.5-0.6-0.8-0.8
			c-40.4-40.7-122.9-57.4-225-30.3C65.2,58-7.1,137.2,11.9,201.1c0,0,0,0,0,0c0.4,1.1,0.8,2.2,1.2,3.3c0.1,0.3,0.3,0.7,0.4,1
			c0.3,0.7,0.6,1.5,0.9,2.2c0.2,0.4,0.3,0.7,0.5,1.1c0.3,0.7,0.6,1.4,0.9,2.1c0.2,0.4,0.4,0.7,0.5,1.1c0.3,0.7,0.7,1.3,1,2
			c0.2,0.4,0.4,0.7,0.6,1c0.4,0.7,0.7,1.3,1.1,2c0.2,0.3,0.4,0.7,0.6,1c0.4,0.7,0.8,1.3,1.2,2c0.2,0.3,0.4,0.6,0.6,0.9
			c0.5,0.7,0.9,1.4,1.4,2c0.2,0.3,0.4,0.5,0.6,0.8c0.5,0.7,1,1.4,1.5,2c0.2,0.2,0.4,0.5,0.6,0.7c0.5,0.7,1.1,1.4,1.7,2.1
			c0.2,0.2,0.4,0.4,0.5,0.6c0.6,0.7,1.2,1.4,1.8,2.1c0.2,0.2,0.3,0.4,0.5,0.5c0.7,0.7,1.3,1.4,2,2.1c0.1,0.2,0.3,0.3,0.4,0.5
			c0.7,0.7,1.4,1.5,2.2,2.2c0.1,0.1,0.2,0.2,0.4,0.4c0.8,0.7,1.6,1.5,2.4,2.2c0.1,0.1,0.2,0.2,0.3,0.3c0.8,0.7,1.7,1.5,2.6,2.2
			c0.1,0.1,0.1,0.1,0.2,0.2c0.9,0.8,1.8,1.5,2.8,2.2c0,0,0.1,0.1,0.1,0.1c1,0.8,2,1.5,3,2.3l0,0C32.6,234.8,22.4,220.7,17,204.3z"/>
		<path class="st2" d="M110.7,60.4L91,119.6l51-59.2h36.4l-80.1,94.7l22,98.2l-30.6,0L72,174.1l-27,79.5H14.8L79.2,60.4H110.7
			 M334.2,60.5l36.4,0l-80.1,94.7l22.1,98.2l-30.6,0l-17.8-79.3l-27,79.5h-30.1l64.3-193.1h31.5l-19.2,58.8L334.2,60.5 M168.5,93.4
			c3.6,0,6.9,1.4,8.8,4c3.6,5,1.1,12.8-5.5,17.3c-3.1,2.1-6.5,3.1-9.7,3.1c-3.6,0-6.9-1.4-8.8-4c-3.6-5-1.1-12.8,5.5-17.3
			C161.9,94.5,165.3,93.4,168.5,93.4 M408.5,95.8l29.2,0l-9.4,26.4H446l-7.7,22l-17.5,0c0,0-11.1,31.9-12.6,36
			c-0.8,2.4-0.1,4.6,1.6,5.1c0.3,0.1,0.7,0.1,1,0.1c1.6,0,2.9-1.3,3.6-3.2c1.6-4.4,4.7-13.4,4.7-13.4h23.1c0,0-1.7,5.8-3.4,10.9
			c-5.1,15.2-13.2,27.7-32.1,27.7c-19.6,0-30.9-18-21.9-43.9C390.8,146.2,408.5,95.8,408.5,95.8 M192.3,95.8l29.2,0l-9.4,26.4h17.6
			l-7.7,22l-17.5,0c0,0-11.1,31.9-12.6,36c-0.8,2.4-0.1,4.6,1.6,5.1c0.3,0.1,0.7,0.1,1,0.1c1.6,0,2.9-1.3,3.6-3.2
			c1.6-4.4,4.7-13.4,4.7-13.4h23.1c0,0-1.7,5.8-3.4,10.9c-5.1,15.2-13.2,27.7-32.1,27.7c-19.6,0-30.9-18-21.9-43.9
			C174.5,146.2,192.3,95.8,192.3,95.8 M357.9,112.1c19.5,0,30.2,15,23.6,36.4c-3.8,12.2-20.3,56.5-20.3,56.5l-27.6,0
			c0.4-1.1,0.6-1.6,1.4-4.2c-5.4,5.1-9.1,6.4-15.3,6.4c-13.2,0-19.2-17.1-13-35.3c6.5-18.8,17.9-22.9,29.9-22.9c6.6,0,11.3,3.1,14,6
			c1.2-3.6,3.4-10.8,4.7-15c1.1-3.6-0.9-6.3-3-6.3c-2,0-4.3,0.7-5.5,4.4c-0.8,2.4-2.1,6-2.1,6h-24
			C324.5,128.1,334.2,112.1,357.9,112.1 M335.7,188.8c1.9,0,3.5-1.7,5.1-5.1c1-2.2,2.9-8,3.3-9.9c0.9-3.8,0.1-6.2-2.3-6.7
			c-0.2,0-0.4-0.1-0.6-0.1c-4.5,0-8.3,9.5-8.7,14.9c-0.3,4.3,0.7,6.6,2.7,6.9C335.4,188.8,335.6,188.8,335.7,188.8 M144.9,122.2
			l29.4,0L145.8,205l-29.7,0L144.9,122.2 M120.3,53.5h-9.6H79.2h-5l-1.6,4.7L8.3,251.4l-3,9.1h9.6H45h5l1.6-4.7l19.1-56.2L83,254.9
			l1.2,5.4l5.5,0l30.6,0l8.7,0l-1.9-8.4l-9-39.9l27.7,0l4.9,0l1.6-4.7L159,188c0.9,5.2,2.8,9.9,5.6,13.8
			c5.8,8.1,14.9,12.6,25.8,12.6c10.4,0,19.1-3.3,25.8-9.9l-15.6,46.8l-3,9.1h9.6h30.1h5l1.6-4.7l19.1-56.2l12.4,55.3l1.2,5.4l5.5,0
			l30.6,0l8.7,0l-1.9-8.4l-9-39.9c2.8,1.4,6,2.2,9.3,2.2c4.5,0,8.1-0.6,11.5-2.2l2.3,0l27.6,0l4.8,0l1.7-4.5
			c0.3-0.8,3.6-9.6,7.4-20.2c0.8,5.5,2.8,10.5,5.7,14.6c5.8,8.1,14.9,12.6,25.8,12.6c10.6,0,19.4-3.4,26.2-10.2
			c5.2-5.2,9.2-12.3,12.5-22.3c1.7-5.2,3.4-10.9,3.5-11.2l2.6-8.9h-9.2h-20.2c1.4-4.1,2.8-8,3.8-10.8l12.6,0l4.9,0l1.6-4.6l7.7-22
			l3.2-9.2H446h-7.8l6.1-17.2l3.3-9.2l-9.8,0l-29.2,0l-4.9,0l-1.6,4.6c-0.1,0.3-6.2,17.6-12.4,35.3c-0.9-4.2-2.6-8.1-5.1-11.4
			c-5.8-7.9-15.2-12.2-26.6-12.2c-7.2,0-13.6,1.3-19.3,3.9l37.3-44.1l9.6-11.4l-14.9,0l-36.4,0l-3.2,0l-2.1,2.4l-27.9,32.5l8.4-25.8
			l3-9.1h-9.5h-31.5h-5l-1.6,4.7l-34.5,103.6h-4.5h-20.2c1.4-4.1,2.8-8,3.8-10.8l12.6,0l4.9,0l1.6-4.6l7.7-22l3.2-9.2h-9.7h-7.8
			l6.1-17.2l3.3-9.2l-9.8,0l-29.2,0l-4.9,0l-1.6,4.6c0,0.1-0.4,1.2-1.1,3.1c-0.5-1.1-1-2.2-1.7-3.1c-3.1-4.4-8.4-6.9-14.4-6.9
			c-1.1,0-2.2,0.1-3.2,0.2l18.4-21.8l9.6-11.4h-14.9H142h-3.2l-2.1,2.4l-28.1,32.6l8.6-25.9L120.3,53.5L120.3,53.5z M105.8,157
			l33.4-39.5l-0.8,2.4l-24.9,71.4L105.8,157L105.8,157z M298.1,157l17.8-21.1c-0.7,2.1-1.4,4.4-1.9,6.7l-1.8,7.8
			c-4.9,4.3-8.7,10.3-11.6,18.1L298.1,157L298.1,157z M339.5,184.3L339.5,184.3L339.5,184.3L339.5,184.3z"/>
		<path class="st3" d="M414.3,182.3c-0.8,2.2-2.4,3.7-4.5,3c-1.6-0.5-2.4-2.7-1.6-5.1c1.5-4.2,12.6-36,12.6-36l17.5,0l7.7-22h-17.6
			l9.4-26.4l-29.2,0c0,0-17.7,50.4-23.8,67.8c-9.1,25.9,2.3,43.9,21.9,43.9c18.9,0,27.1-12.6,32.1-27.7c1.7-5.2,3.4-10.9,3.4-10.9
			H419C419,168.8,415.9,177.9,414.3,182.3z M198,182.3c-0.8,2.2-2.4,3.7-4.5,3c-1.6-0.5-2.4-2.7-1.6-5.1c1.5-4.2,12.6-36,12.6-36
			l17.5,0l7.7-22h-17.6l9.4-26.4l-29.2,0c0,0-17.7,50.4-23.8,67.8c-9.1,25.9,2.3,43.9,21.9,43.9c18.9,0,27.1-12.6,32.1-27.7
			c1.7-5.2,3.4-10.9,3.4-10.9h-23.1C202.7,168.8,199.6,177.9,198,182.3z M116.1,205l28.9-82.8l29.4,0L145.8,205L116.1,205z
			 M357.9,112.1c-23.6,0-33.4,16-37.1,32.1h24c0,0,1.3-3.6,2.1-6c1.2-3.7,3.5-4.4,5.5-4.4c2.1,0,4.1,2.8,3,6.3
			c-1.3,4.2-3.5,11.4-4.7,15c-2.7-2.9-7.4-6-14-6c-11.9,0-23.4,4-29.9,22.9c-6.3,18.2-0.3,35.3,13,35.3c6.2,0,9.8-1.3,15.3-6.4
			c-0.9,2.6-1,3.1-1.4,4.2l27.6,0c0,0,16.5-44.3,20.3-56.5C388.1,127.1,377.4,112.1,357.9,112.1z M344.1,173.7
			c-0.5,2-2.3,7.7-3.3,9.9c-1.7,3.7-3.5,5.4-5.6,5.1c-2-0.3-3-2.6-2.7-6.9c0.4-5.6,4.5-15.7,9.3-14.8
			C344.2,167.5,345,169.9,344.1,173.7z M283.7,119.2l19.2-58.8h-31.5l-64.3,193.1h30.1l27-79.5l17.8,79.3l30.6,0l-22.1-98.2
			l80.1-94.7l-36.4,0L283.7,119.2z M79.2,60.4L14.8,253.6H45l27-79.5l17.8,79.3l30.6,0l-22-98.2l80.1-94.7H142l-51,59.2l19.7-59.2
			H79.2z M177.2,97.5c-3.6-5-11.9-5.4-18.5-0.9c-6.6,4.5-9.1,12.3-5.5,17.3c3.6,5,11.9,5.4,18.5,0.9
			C178.4,110.2,180.8,102.5,177.2,97.5z"/>
		<path class="st4" d="M446.1,122.2l-7.7,22l-17.5,0c0,0-11.1,31.9-12.6,36c-0.7,2-0.3,3.9,0.8,4.7l-5.4,3.8
			c-0.4-0.4-0.7-0.9-0.9-1.4c-2-3.8-1-8.2,0.1-11.7c1.3-4,11.2-32.5,11.6-33.7l1.6-4.5l17.5,0l3-8.7L446.1,122.2z M165,128.8
			L141,198.3l-15.6,0l-9.4,6.7l29.7,0l28.5-82.8L165,128.8z M91,119.6l19.7-59.2l-9.2,6.7l-16.8,50.4L77,140.8L91,119.6z
			 M73.3,149.4l-33.1,97.5H24.1l-9.2,6.7H45l27-79.5L73.3,149.4z M178.4,60.4L164,67.1l-72.9,86.3l20.9,93.3l-16.9,0l-5.3,6.7
			l30.6,0l-22-98.2L178.4,60.4z M283.7,119.2L303,60.5l-9.2,6.7L277,117.5l-7.7,23.3L283.7,119.2z M265.5,149.4l-33.1,97.5h-16.1
			l-9.2,6.7h30.1l27-79.5L265.5,149.4z M370.6,60.4l-14.4,6.7l-72.9,86.3l20.9,93.3l-16.9,0l-5.3,6.7l30.6,0l-22-98.2L370.6,60.4z
			 M221.5,95.8l-9.5,6.7l-9.4,26.4l9.5-6.7L221.5,95.8z M171.7,114.7c6.6-4.5,9.1-12.3,5.5-17.3c-0.1-0.1-0.2-0.3-0.3-0.4l-5.4,3.9
			c0.1,0.1,0.2,0.2,0.3,0.3c0.4,0.5,0.5,1.3,0.3,2.2c-0.3,1.6-1.5,3.9-4.2,5.7c-1.9,1.3-4,2-5.9,2h0c-1.4,0-2.6-0.4-3.2-1.1
			l-5.4,3.9C157.1,118.9,165.2,119.2,171.7,114.7z M216.1,177.6c-5.5,16.5-13,23.2-25.8,23.2c-5.4,0-9.8-1.7-13-4.9l-5.5,3.9
			c4.4,4.9,10.9,7.6,18.5,7.6c18.9,0,27.1-12.6,32.1-27.7c1.7-5.2,3.4-10.9,3.4-10.9l-9,6.7C216.6,176.2,216.4,176.9,216.1,177.6z
			 M437.8,95.8l-9.5,6.7l-9.4,26.4l9.5-6.7L437.8,95.8z M432.5,177.6c-5.5,16.5-13,23.2-25.8,23.2c-5.4,0-9.8-1.7-13-4.9l-5.5,3.9
			c4.4,4.9,10.9,7.6,18.5,7.6c18.9,0,27.1-12.6,32.1-27.7c1.7-5.2,3.4-10.9,3.4-10.9l-9,6.7C433,176.2,432.7,176.9,432.5,177.6z
			 M381.5,148.5c4-12.9,1.7-23.5-5.1-29.9l-5.6,4c1.1,0.8,2,1.8,2.8,2.9c3.7,5,4.2,12.5,1.5,21.1c-3,9.7-14.3,40.4-18.6,51.8
			l-13.5,0l-9.4,6.7l27.6,0C361.2,205,377.7,160.7,381.5,148.5z M352.3,127.1c-5.6,0-9.9,3.3-11.8,9c-0.1,0.4-0.3,0.9-0.5,1.4h-10.2
			l-9,6.7h24c0,0,1.3-3.6,2.1-6c1.2-3.7,3.5-4.4,5.5-4.4c0.6,0,1.3,0.2,1.8,0.7l5.5-3.9C357.7,128.3,355.1,127.1,352.3,127.1z
			 M332.6,181.9c0.4-5.6,4.5-15.7,9.3-14.8c0,0,0.1,0,0.1,0l2.2-6.3c-0.3-0.1-0.7-0.2-1-0.2c-0.6-0.1-1.2-0.2-1.9-0.2
			c-9.7,0-14.8,13.7-15.4,21c-0.7,9.3,3.6,12.4,6.5,13.5l2.2-6.3C333,187.9,332.3,185.6,332.6,181.9z M220.3,128.8l-3,8.7l-17.5,0
			l-1.6,4.5c-0.4,1.2-10.3,29.7-11.6,33.7c-1.1,3.4-2.1,7.8-0.1,11.7c0.3,0.5,0.6,1,0.9,1.4l5.4-3.8c-1.1-0.9-1.5-2.8-0.8-4.7
			c1.5-4.2,12.6-36,12.6-36l17.5,0l7.7-22L220.3,128.8z"/>
	</g>
</g>
</svg>
