<?xml version="1.0" encoding="utf-8"?>
<!-- Generator: Adobe Illustrator 21.0.0, SVG Export Plug-In . SVG Version: 6.00 Build 0)  -->
<svg version="1.1" id="Layer_1" xmlns="http://www.w3.org/2000/svg" xmlns:xlink="http://www.w3.org/1999/xlink" x="0px" y="0px"
	 viewBox="0 0 322.1 119.1" style="enable-background:new 0 0 322.1 119.1;" xml:space="preserve">
<style type="text/css">
	.st0{fill:#243D94;}
	.st1{fill:#FFFFFF;}
	.st2{clip-path:url(#SVGID_2_);fill:url(#SVGID_3_);}
	.st3{clip-path:url(#SVGID_5_);fill:url(#SVGID_6_);}
	.st4{clip-path:url(#SVGID_8_);fill:url(#SVGID_9_);}
	.st5{clip-path:url(#SVGID_11_);fill:url(#SVGID_12_);}
	.st6{clip-path:url(#SVGID_14_);fill:url(#SVGID_15_);}
	.st7{clip-path:url(#SVGID_17_);fill:url(#SVGID_18_);}
</style>
<g>
	<path class="st0" d="M259.4,7l-8,0.9l-34.9,4l-1,13.7c-1.4-2.1-3.1-4-5.2-5.6c-3.1-2.5-6.7-4.1-10.7-4.7c-3.2-0.5-7.3-0.5-12.5,0
		L163,18.2l-13.4,1.6L103,25.1l-8,0.9l-34.9,4.1l-0.6,8.8c-0.6-0.5-1.2-1-1.9-1.5c-1.5-1.1-3.1-2.1-4.8-2.8
		c-1.7-0.7-3.6-1.3-5.6-1.6c-1.8-0.3-3.7-0.4-5.8-0.4c-1.9,0-4,0.2-6.2,0.4L0,37.1l3.1,27l0,0l3.2,27.5l0,0c0.1,1.5-0.8,2.8-2.3,3
		l2.8,24.5l43.5-5.1l-2.1-18.2c0.6-0.1,1.2-0.3,1.8-0.5c0.4-0.1,0.8-0.2,1.2-0.3c1.1-0.3,2.2-0.7,3.2-1.2c0,0,0,0,0,0l2.3,19.5l60-7
		l10.2-1.2l32.1-3.7l1.1-0.1l36.6-4.2c4.5-0.5,8.2-1.3,11.1-2.4c1.7-0.7,3.3-1.5,4.8-2.4l0.3,3l60-7l10.2-1.2l33.3-3.9l-2.8-24.4
		c-1.6,0.1-3-1-3.2-2.6l0,0c0,0-0.5-4-0.5-4l8.5-22.8c0.3-0.8,0.6-1.3,0.7-1.6c0,0,0.1-0.2,0.4-0.5l2.6-3L319.3,0L259.4,7z
		 M158.4,73.3L158.4,73.3c0.1,1.2-0.7,2.2-1.9,2.4c-1.2,0.1-2.3-0.7-2.4-1.9c0,0,0-0.2-0.4-3.5l3.4-9L158.4,73.3z"/>
	<path class="st1" d="M315.3,5l-59.1,6.9l-1.6,0.2l-33.8,3.9l-2.9,41.8l-2.1-18c-0.8-7.1-3.6-12.6-8.1-16.1c-2.5-2-5.4-3.3-8.6-3.8
		c-2.8-0.5-6.5-0.5-11.2,0L159,23.1l-4.5,0.5L99.8,30l-1.6,0.2l-33.8,3.9L63,53.7c-0.4-1.8-0.9-3.5-1.6-4.9
		c-0.8-1.7-1.7-3.2-2.8-4.5c-1-1.2-2.2-2.3-3.7-3.3c-1.3-0.9-2.6-1.7-3.9-2.3c-1.4-0.6-2.9-1-4.5-1.3c-1.5-0.3-3.2-0.4-5-0.3
		c-1.7,0-3.6,0.2-5.8,0.4L5,41l2.4,20.4c0,0,0,0.1,0,0.1L10.8,91c0.1,0.9,0.2,1.7,0.2,2.3c0,0,0,0.1,0,0.1c0.2,1.5-0.8,2.8-2.2,3.1
		l2,17.5l34.5-4l-2.1-18.1c0.9-0.1,1.7-0.2,2.3-0.3c1.3-0.2,2.3-0.4,3.2-0.7c2-0.5,4-1.3,5.8-2.3c1.9-1.1,3.6-2.3,4.9-3.8
		c0.5-0.6,1-1.2,1.5-1.8l-0.1,1.6c-0.2,2.5-0.4,3.4-0.4,3.6c0,0,0,0,0,0.1c0,0.1-0.1,0.2-0.1,0.3c-0.3,0.6-0.9,1.4-1.7,2.1l2,17.4
		l60-7l1.2-0.1l33.3-3.9L153,79.6c-1.6-0.3-2.8-1.5-3.2-3.2c-0.1-0.5-0.2-1.2-0.3-1.8l-0.6-4.9l8.9-23.9c0.3-0.8,0.6-1.5,0.9-2.1
		c0.1-0.2,0.2-0.4,0.4-0.6l0.1,0c0.1,0.4,0.2,1,0.3,2.1l3.4,29.1c0,0.1,0,0.2,0,0.2v0c0,0,0,0,0,0c0,0,0,0,0,0.1
		c0.2,1.7-0.7,3.2-2.1,4l2.1,17.8l33.3-3.9c4.2-0.5,7.4-1.2,10-2.2c2.8-1.1,5.2-2.5,7.2-4.5c1-1,1.9-2.2,2.7-3.4l0.9,7.7l60-7
		l1.2-0.1l33.3-3.9l-2-17.5c-1.3,0-2.4-0.8-2.9-2l0,0c0,0,0,0,0-0.1c0,0,0-0.1,0-0.2c0-0.1-0.1-0.3-0.1-0.5
		c-0.1-0.6-0.3-1.4-0.4-2.5l-0.6-4.9l8.9-23.9c0.3-0.8,0.6-1.5,0.9-2.1c0.2-0.4,0.5-0.8,0.9-1.3l1.3-1.5L315.3,5z M121,80.8
		c0,0,0,0.1,0,0.1c0,0.1,0,0.2,0,0.2c-0.2,0.9-0.9,1.5-1.8,1.7c-0.9,0.1-1.7-0.4-2.1-1.1c0,0,0,0-0.1-0.1c-0.1-0.2-0.7-1.2-1.6-4.1
		l-7.6-23.3l12.5,19.5l0.6,5.2C121,79.8,121,80.4,121,80.8 M277.4,62.6c0,0,0,0.1,0,0.1c0,0.1,0,0.2,0,0.2c-0.2,0.9-0.9,1.5-1.8,1.7
		c-0.9,0.1-1.7-0.4-2.1-1.1c0,0,0,0-0.1-0.1c-0.1-0.2-0.7-1.2-1.6-4.1L264.1,36l12.5,19.5l0.6,5.2C277.4,61.7,277.4,62.3,277.4,62.6
		"/>
	<g>
		<defs>
			<path id="SVGID_1_" d="M135.2,30.5l0.9,7.9l0.1,1.1c0.2,1.4,0.2,2.6,0,3.6c-0.1,1-0.5,2.4-1.1,4.1l-0.9,2.4
				c0,0.2-0.1,0.4-0.2,0.7c-0.1,0.3-0.2,0.6-0.3,1l-0.9-1.5l-1.3-2.2c-1-1.6-1.6-2.9-1.9-3.8c-0.3-0.9-0.6-2-0.8-3.3l-0.1-1.2
				l-0.9-7.9L105,34l1.3,11.3c0.8,0.4,1.4,1,2,1.6c0.6,0.6,1.3,1.7,2.3,3.3l0.6,1.1l13.5,21l0.6,5.3l0.1,1c0.2,1.9,0.2,3.3-0.1,4.2
				c-0.3,1-1,1.8-2,2.4l1.3,11.3l25.5-3l-1.3-11.3c-0.6-0.2-1.1-0.4-1.5-0.7c-0.4-0.3-0.8-0.7-1-1.2c-0.3-0.5-0.5-1.2-0.7-2
				c-0.2-0.8-0.4-1.8-0.5-3l-0.7-6l9.3-25c0.4-1,0.8-1.9,1.2-2.6c0.4-0.7,0.9-1.4,1.5-2.1L155,28.2L135.2,30.5z"/>
		</defs>
		<clipPath id="SVGID_2_">
			<use xlink:href="#SVGID_1_"  style="overflow:visible;"/>
		</clipPath>
		
			<linearGradient id="SVGID_3_" gradientUnits="userSpaceOnUse" x1="-436.1223" y1="585.8104" x2="-435.1223" y2="585.8104" gradientTransform="matrix(18.0502 77.9011 77.9011 -18.0502 -37638.7734 44583.5391)">
			<stop  offset="0" style="stop-color:#FF4402"/>
			<stop  offset="0.2868" style="stop-color:#FF6219"/>
			<stop  offset="0.5106" style="stop-color:#FF7016"/>
			<stop  offset="0.7397" style="stop-color:#FF4B1B"/>
			<stop  offset="1" style="stop-color:#FF4402"/>
		</linearGradient>
		<polygon class="st2" points="153.7,16.9 171.3,92.8 107.7,107.6 90.1,31.6 		"/>
	</g>
	<g>
		<defs>
			<path id="SVGID_4_" d="M291.5,12.3l0.9,7.9l0.1,1.1c0.2,1.4,0.2,2.6,0,3.6c-0.1,1-0.5,2.4-1.1,4.1l-0.9,2.4
				c0,0.2-0.1,0.4-0.2,0.7c-0.1,0.3-0.2,0.6-0.3,1l-0.9-1.5l-1.3-2.2c-1-1.6-1.6-2.9-2-3.8c-0.3-0.9-0.6-2-0.8-3.3l-0.1-1.2
				l-0.9-7.9l-22.8,2.6l1.3,11.3c0.8,0.4,1.4,0.9,2,1.6c0.6,0.6,1.3,1.7,2.3,3.3l0.6,1.1l13.5,21l0.6,5.3l0.1,1
				c0.2,1.8,0.2,3.3-0.1,4.2c-0.3,1-1,1.8-2,2.4l1.3,11.3l25.5-3l-1.3-11.3c-0.6-0.2-1.1-0.4-1.5-0.7c-0.4-0.3-0.8-0.7-1-1.2
				c-0.3-0.5-0.5-1.2-0.7-2c-0.2-0.8-0.4-1.8-0.5-3l-0.7-6l9.3-25c0.4-1,0.8-1.9,1.2-2.6c0.4-0.7,0.9-1.4,1.5-2.1L311.4,10
				L291.5,12.3z"/>
		</defs>
		<clipPath id="SVGID_5_">
			<use xlink:href="#SVGID_4_"  style="overflow:visible;"/>
		</clipPath>
		
			<linearGradient id="SVGID_6_" gradientUnits="userSpaceOnUse" x1="-436.1223" y1="585.8104" x2="-435.1223" y2="585.8104" gradientTransform="matrix(18.0502 77.9011 77.9011 -18.0502 -37486.3867 44548.2266)">
			<stop  offset="0" style="stop-color:#FF4402"/>
			<stop  offset="0.2868" style="stop-color:#FF6219"/>
			<stop  offset="0.5106" style="stop-color:#FF7016"/>
			<stop  offset="0.7397" style="stop-color:#FF4B1B"/>
			<stop  offset="1" style="stop-color:#FF4402"/>
		</linearGradient>
		<polygon class="st3" points="310.1,-1.3 327.7,74.7 264,89.4 246.4,13.5 		"/>
	</g>
	<g>
		<defs>
			<path id="SVGID_7_" d="M31.4,56.4l1.1-0.1l1.5-0.2c1.7-0.2,3,0.1,3.9,0.8c0.9,0.8,1.4,2.1,1.6,4l0.1,0.9l0.7,5.9l0.1,0.9
				c0.2,1.8,0,3.2-0.6,4.1c-0.6,0.9-1.8,1.5-3.6,1.8l-1.5,0.2l-1.1,0.1L31.4,56.4z M41.6,41.6c-1.5,0-3.3,0.1-5.3,0.4l-3.1,0.4
				L10,45l1.8,15.9l0.2,1.5l0.1,1l3.2,27.1c0.1,1.3,0.2,2.3,0.3,3.1c0,0.8,0,1.5-0.1,2c-0.1,0.5-0.3,0.9-0.6,1.2
				c-0.3,0.3-0.7,0.7-1.3,1l1.3,11.3l25.5-3l-1.3-11.3c-1.4-0.4-2.3-0.9-2.8-1.7c-0.5-0.8-0.8-2.2-1.1-4.3l-0.1-0.5l3.5-0.4l1.7-0.2
				c2-0.2,3.5-0.4,4.6-0.6c1.1-0.2,1.9-0.3,2.6-0.5c1.8-0.5,3.4-1.1,4.9-1.9c1.5-0.8,2.8-1.8,3.7-2.9c1-1.1,1.9-2.2,2.5-3.4
				c0.6-1.2,1-2.6,1.3-4.2c0.3-1.6,0.4-3.4,0.3-5.5c0-2.1-0.2-4.5-0.6-7.3c-0.3-2.4-0.6-4.5-1-6.3c-0.4-1.8-0.8-3.3-1.4-4.6
				c-0.6-1.3-1.3-2.4-2.1-3.3c-0.8-0.9-1.8-1.8-2.9-2.7c-1-0.7-2-1.3-3.1-1.8c-1.1-0.5-2.2-0.8-3.5-1c-1.1-0.2-2.4-0.3-3.8-0.3
				C41.9,41.6,41.8,41.6,41.6,41.6"/>
		</defs>
		<clipPath id="SVGID_8_">
			<use xlink:href="#SVGID_7_"  style="overflow:visible;"/>
		</clipPath>
		
			<linearGradient id="SVGID_9_" gradientUnits="userSpaceOnUse" x1="-436.1223" y1="585.8819" x2="-435.1223" y2="585.8819" gradientTransform="matrix(18.0502 77.9012 77.9012 -18.0502 -37737.9062 44606.543)">
			<stop  offset="0" style="stop-color:#FF4402"/>
			<stop  offset="0.2868" style="stop-color:#FF6219"/>
			<stop  offset="0.5106" style="stop-color:#FF7016"/>
			<stop  offset="0.7397" style="stop-color:#FF4B1B"/>
			<stop  offset="1" style="stop-color:#FF4402"/>
		</linearGradient>
		<polygon class="st4" points="57.8,30.5 75.2,105.6 12.6,120.1 -4.8,45 		"/>
	</g>
	<g>
		<defs>
			<path id="SVGID_10_" d="M183.5,38.7l0.7-0.1l0.3,0l1.2-0.1c2-0.2,3.5,0,4.4,0.7c0.9,0.7,1.4,2,1.7,3.9l0.2,1.5l2.6,22.4
				c0.2,1.5,0.2,2.7,0.2,3.6c-0.1,0.9-0.3,1.7-0.6,2.3c-0.4,0.6-0.9,1-1.7,1.2c-0.8,0.2-1.8,0.5-3.1,0.6l-1,0.1l-0.6,0.1L183.5,38.7
				z M188.3,24.3l-2.1,0.2l-24.1,2.8l1.9,15.9c0.1,0.4,0.1,0.9,0.2,1.5l0.1,1l3.2,27.1l0.1,1c0.2,2,0.2,3.4,0,4.2
				c-0.2,0.8-0.9,1.5-1.9,2.2l1.3,11.3l26.7-3.1l2.1-0.2c3.8-0.4,6.7-1.1,8.9-1.9c2.2-0.8,4-2,5.6-3.5c3.5-3.5,4.9-8.5,4.3-14.9
				l-0.2-2.1l-2.7-22.9l-0.3-2.5c-0.7-5.9-2.8-10.3-6.5-13.1c-1.9-1.5-4.1-2.5-6.5-2.9c-1.2-0.2-2.5-0.3-4.1-0.3
				C192.4,24,190.5,24.1,188.3,24.3"/>
		</defs>
		<clipPath id="SVGID_11_">
			<use xlink:href="#SVGID_10_"  style="overflow:visible;"/>
		</clipPath>
		
			<linearGradient id="SVGID_12_" gradientUnits="userSpaceOnUse" x1="-436.1223" y1="585.8979" x2="-435.1223" y2="585.8979" gradientTransform="matrix(18.0502 77.901 77.901 -18.0502 -37589.5977 44572.0859)">
			<stop  offset="0" style="stop-color:#FF4402"/>
			<stop  offset="0.2868" style="stop-color:#FF6219"/>
			<stop  offset="0.5106" style="stop-color:#FF7016"/>
			<stop  offset="0.7397" style="stop-color:#FF4B1B"/>
			<stop  offset="1" style="stop-color:#FF4402"/>
		</linearGradient>
		<polygon class="st5" points="212.4,12.3 229.9,88 164.8,103.1 147.2,27.4 		"/>
	</g>
	<g>
		<defs>
			<path id="SVGID_13_" d="M82.8,64l0.1-10.8c0-0.2,0-0.4,0-0.6l0.2,0l0.3,1c0,0.1,0.1,0.3,0.1,0.4c0.6,2.2,2.2,7.9,2.9,10.4
				l2.3,7.8l-6.1,0.7L82.8,64z M68.6,38.2l-3.3,46.9c-0.1,2.1-0.3,3.6-0.6,4.4c-0.2,0.9-0.7,1.7-1.5,2.5l1.3,11.3l22-2.6l-1.3-11.3
				c-1.8-0.4-2.8-1.5-3-3.1c0-0.2,0-0.4,0-0.6c0-0.2,0-0.7,0.1-1.3l9.6-1.1l0,0h0c0,0,0.4,0.9,0.5,1.7c0,0.2,0.1,0.4,0.1,0.6
				c0,0.3-0.1,0.6-0.1,0.9c0,0.2-0.1,0.3-0.1,0.5c0,0,0,0,0,0.1c-0.3,0.7-0.8,1.3-1.6,1.9l1.3,11.3l24.9-2.9l-1.3-11.3
				c-0.9-0.3-1.7-1-2.3-2c-0.6-1-1.3-2.7-2.1-5.1l-14.4-44L68.6,38.2z"/>
		</defs>
		<clipPath id="SVGID_14_">
			<use xlink:href="#SVGID_13_"  style="overflow:visible;"/>
		</clipPath>
		
			<linearGradient id="SVGID_15_" gradientUnits="userSpaceOnUse" x1="-436.1222" y1="585.9545" x2="-435.1222" y2="585.9545" gradientTransform="matrix(18.0501 77.9008 77.9008 -18.0501 -37689.9453 44595.2656)">
			<stop  offset="0" style="stop-color:#FF4402"/>
			<stop  offset="0.2868" style="stop-color:#FF6219"/>
			<stop  offset="0.5106" style="stop-color:#FF7016"/>
			<stop  offset="0.7397" style="stop-color:#FF4B1B"/>
			<stop  offset="1" style="stop-color:#FF4402"/>
		</linearGradient>
		<polygon class="st6" points="114.1,23.2 131.9,99.8 66,115.1 48.2,38.4 		"/>
	</g>
	<g>
		<defs>
			<path id="SVGID_16_" d="M239.1,45.8l0.1-10.9c0-0.2,0-0.4,0-0.6l0.2,0l0.3,1c0,0.1,0.1,0.3,0.1,0.4c0.6,2.2,2.2,7.9,2.9,10.4
				l2.3,7.8l-6.1,0.7L239.1,45.8z M225,20.1l-3.3,46.9c-0.1,2.1-0.3,3.6-0.6,4.4c-0.2,0.9-0.7,1.7-1.5,2.5l1.3,11.3l22-2.6
				l-1.3-11.3c-1.8-0.4-2.8-1.5-3-3.1c0-0.2,0-0.4,0-0.6c0-0.2,0-0.7,0.1-1.3l9.6-1.1l0,0h0c0,0,0.4,0.9,0.5,1.7c0,0.2,0,0.4,0,0.6
				c0,0.3-0.1,0.6-0.1,0.9c0,0.2-0.1,0.3-0.1,0.5c0,0,0,0,0,0.1c-0.3,0.7-0.8,1.3-1.6,1.9l1.3,11.3l24.9-2.9l-1.3-11.3
				c-0.9-0.3-1.7-1-2.3-2c-0.6-1-1.3-2.7-2.1-5.1l-14.4-44L225,20.1z"/>
		</defs>
		<clipPath id="SVGID_17_">
			<use xlink:href="#SVGID_16_"  style="overflow:visible;"/>
		</clipPath>
		
			<linearGradient id="SVGID_18_" gradientUnits="userSpaceOnUse" x1="-436.1223" y1="585.9544" x2="-435.1223" y2="585.9544" gradientTransform="matrix(18.0504 77.9019 77.9019 -18.0504 -37537.7578 44562.0078)">
			<stop  offset="0" style="stop-color:#FF4402"/>
			<stop  offset="0.2868" style="stop-color:#FF6219"/>
			<stop  offset="0.5106" style="stop-color:#FF7016"/>
			<stop  offset="0.7397" style="stop-color:#FF4B1B"/>
			<stop  offset="1" style="stop-color:#FF4402"/>
		</linearGradient>
		<polygon class="st7" points="270.5,5 288.2,81.7 222.3,96.9 204.6,20.3 		"/>
	</g>
</g>
</svg>
