<svg version="1.1" id="Layer_1" xmlns="http://www.w3.org/2000/svg" x="0" y="0" viewBox="0 0 748 252.5" xml:space="preserve"><style type="text/css">.st0{fill:#da291c}</style><title>pladis-build-assets-060516</title><path class="st0" d="M362.8 195.9l-21.4-.1L328 189s-11 9-30.9 10.4c-47.3 0-71-25.4-71-76.2 0-46.9 23.1-70.3 69.4-70.3 47.4-.6 67.3 11.6 67.2 39.7v103.3zm-37-104.7c-7.6-5-17.2-7.5-28.7-7.5-23 0-34.5 12.9-34.5 38.6 0 30.6 12 45.9 35.9 45.9 9.3.1 18.5-1.3 27.3-4v-73zM0 59c20.3-4.1 41-6.1 61.7-6 49.8 0 74.6 23.2 74.6 69.6 0 51.2-23.2 76.9-69.5 76.9-10.3-.1-20.5-2.5-29.8-7v60H0V59zm37 102.3c9.1 5 19.3 7.6 29.7 7.5 22 0 33.1-15.5 33.1-46.4 0-26.3-12.2-39.5-36.5-39.5-8.8-.1-17.6.5-26.2 2l-.1 76.4zM201.1 0v199.5h-37V0h37zM524.1 190.7c-21.4 5.7-43.5 8.7-65.7 8.8-47.3 0-71-25.4-71-76.2 0-46.9 23.2-70.3 69.5-70.3 9.9 0 19.9 2.3 30.3 7V0h37l-.1 190.7zm-37-99.5c-7.6-5-17.2-7.5-28.7-7.5-23 0-34.5 12.9-34.5 38.6 0 30.6 12 45.9 35.9 45.9 9.3.1 18.5-1.3 27.3-4v-73zM595.9 0v29.3H559V0h36.9zm0 53v146.5H559V53h36.9zM630.8 192.5v-30.7c16.3 6.5 35.1 9.8 56.4 9.8 15.9 0 23.8-5.1 23.8-15.3 0-9.8-5.3-14.6-16-14.6h-26.5c-29.8 0-44.6-14.6-44.6-43.9 0-30.7 21.7-46 65.1-46 17.7-.1 35.2 2.7 52 8.4v30.7c-16.9-6.6-34.9-9.9-53-9.8-20 0-30 5.1-30 15.3 0 9.8 5.8 14.7 17.4 14.7h23.7c32.5 0 48.8 14.6 48.8 43.9 0 30.7-20.7 46-62.2 46-20.3-.1-38.6-2.9-54.9-8.5z"/></svg>