<?xml version="1.0" encoding="utf-8"?>
<!-- Generator: Adobe Illustrator 20.1.0, SVG Export Plug-In . SVG Version: 6.00 Build 0)  -->
<svg version="1.1" id="Layer_1" xmlns="http://www.w3.org/2000/svg" xmlns:xlink="http://www.w3.org/1999/xlink" x="0px" y="0px"
	 viewBox="0 0 364.1 120.9" style="enable-background:new 0 0 364.1 120.9;" xml:space="preserve">
<style type="text/css">
	.st0{fill:#551900;}
	.st1{fill:#FFEF00;}
</style>
<g>
	<g>
		<g>
			<path id="XMLID_378_" class="st0" d="M351,75.3l13-17.9l-2.3-2.7c-7.3-8.7-18.3-11.4-26.9-10.3c1-3.2,1.6-8.1,1.6-11.6H308
				c-0.1,3.6-1.9,10.8-4.8,15.6c-3.9-2.4-8.6-3.7-13.9-3.7c-4,0-8.2,0.7-12.3,2.1c-4.8,1.6-9.4,4.1-13.6,7.2l-1.3-1.4
				c-4.9-5-12.2-8-20-8.3c-0.7,0-1.4,0-2.2,0c-8.7,0.2-16.9,3.6-22.6,9.2c-1.4,1.3-2.7,2.7-3.7,4.1c-0.4-0.7-0.7-1.4-1.2-2.2
				c-4.2-6.9-11.6-10.7-20.7-10.7c-3.9,0-8.2,0.7-12.3,2.1c-6.2,2.1-12,5.6-17.2,10.2c-0.6,0.5-1.2,1.1-1.7,1.6
				c-1.1,1-2.2,2.1-3.2,3.2c-0.6-2.2-1.5-4.3-2.7-6.3c-4.2-6.9-11.6-10.7-20.8-10.7c-3.9,0-8.2,0.7-12.3,2.1c-0.9,0.3-1.7,0.6-2.6,1
				c7.8-9.9,10.2-21.1,6.5-31.1C121.6,6.3,110.9,0,96.9,0C88,0,78.6,2.5,70.2,7.1C37.2,25.4,5.6,71.5,0.6,98.9
				c-2.8,15.2,4.9,19.8,8.3,21c1.6,0.6,3.3,0.9,5.1,0.9c5.3,0,10.8-2.7,16.3-7.9c4.9-4.6,8.9-11.7,13.2-19.2
				c2.3-4.2,4.8-8.5,7.3-12.1c0,0,0,0.1,0,0.1c-1.9,4.7-3.9,9.5-4.6,14.1c-1.8,11.3,4.2,21.2,14.2,23.6c4.6,1.1,9.6,1.1,14.5,0
				c6.2-1.2,12.4-4.2,17.8-7.4c1.5,1.4,3.1,2.6,4.9,3.6c2,1.1,4.3,2,6.7,2.6c2.1,0.6,4.4,1,6.8,1.1c0.8,0,1.6,0.1,2.5,0.1
				c7.4,0,14.1-2.2,18.4-3.9l0.2-0.1c5.6-2.4,10.4-5.2,14.7-8.1c4.4,6.9,12.6,11.5,22.1,12c0.8,0.1,1.7,0.1,2.5,0.1
				c7.3,0,14.1-2.1,18.4-3.9l0.2-0.1c2.3-1,4.6-2.1,6.8-3.3c4.2,3,8.9,5.1,14.1,6.4c1.4,0.4,2.5,0.6,3.5,0.8l0.5,0.1
				c2.6,0.3,5.2,0.4,7.6,0.2c6.8-0.5,13-2.6,17.9-6.3c0.9-0.7,1.6-1.3,2.3-1.9c0.9-0.8,1.7-1.7,2.5-2.6c4.6,6.1,12.3,10.1,21.2,10.5
				c0.8,0.1,1.6,0.1,2.4,0.1c7.4,0,14.1-2.1,18.4-3.9l0.2-0.1c2.3-1,4.6-2.1,6.8-3.3c4.2,3,8.9,5.1,14.1,6.4
				c1.3,0.4,2.5,0.6,3.6,0.8l0.5,0.1c2.6,0.3,5.2,0.4,7.7,0.2c6.8-0.5,13-2.6,17.9-6.2c0.8-0.6,1.6-1.3,2.4-2
				c1.5-1.4,2.8-2.9,3.9-4.5c3.9-5.2,7.4-13.6,2.9-25.1c-0.2-0.7-0.5-1.3-0.7-1.9c-1.3-3-2.9-5.8-4.6-8.7l-0.5-0.9
				c-0.1-0.2-0.2-0.4-0.3-0.6c2.3,0.3,4.3,0.9,8.2,4.2C351,75.3,351,75.3,351,75.3"/>
			<path id="XMLID_368_" class="st1" d="M325.5,44c0.2-0.4,0.4-0.7,0.5-1.1c0.5-1.1,0.7-2.6,0.7-2.6s-10.1,0-10.1,0
				c-0.3,5.4-7,14.7-7.8,15.4l1.1,2.7C312.9,57.1,321.8,51.6,325.5,44z M339.4,53.1c-0.5,0-1,0-1.6,0c-5.9,0.2-12.2,2.3-16.7,6.7
				c-1.2,1.1-2.3,2.3-3.2,3.7c-2.2,3.3-3,7.2-2.7,10.9c0,0.4,0.1,0.7,0.1,1c0.3,1.8,0.9,3.6,1.6,5.2c1,2.2,2.3,4.2,3.5,6.1
				c1.5,2.3,2.7,4.6,3.1,7.2c0.6,3.6-0.9,7-4,8c-2.5,0.7-5.5,0.9-8,0.2c-1.7-0.4-3.3-1-4.8-1.8c-5.1-2.4-8.2-6.8-9.1-7.8l0,0l0,0
				c-0.1-0.1-0.1-0.1-0.2-0.1c-2.6,1.9-9.2,6-15,7.9c-0.9,0.3-1.7,0.5-2.6,0.7c-4,1-8,1.2-10.9-0.7c-2.5-1.7-3.3-3.6-3-8.5
				c0.3-3.5,1.2-6.9,2.4-10.1l33.7,0c3-6.1,4.2-15.4,0.3-21.8c-4.4-7.1-14-7.7-22.5-4.8c-5.4,1.9-10.2,4.8-14.2,8.4
				c-0.5,0.5-1,0.9-1.5,1.4c-6.3,5.9-11,13.3-13.3,20.4c-0.7,2.2-2.9,7.6-0.3,14.6c2.3,6.2,9.2,9.9,16.3,10.3
				c5.4,0.4,11.5-0.9,16.9-3.2c4.2-1.8,8-4,11.4-6.1c0.5,0.5,1.1,1.1,1.6,1.6c4,3.6,8.6,5.8,13.7,7c1,0.2,1.9,0.5,2.9,0.7
				c2,0.2,4,0.3,6,0.2c4.8-0.3,9.5-1.8,13.2-4.5c0.6-0.4,1.1-0.9,1.6-1.3c1.1-1,2-2,2.7-3.2c4.2-5.6,3.8-11.5,1.8-16.8
				c-0.2-0.5-0.4-1-0.6-1.5c-1.2-2.7-2.7-5.4-4.6-8.5c-0.4-0.7-0.8-1.5-1.1-2.2c-0.1-0.2-0.1-0.4-0.2-0.6c-0.3-1.1-0.5-2.3-0.4-3.4
				c0.2-3.3,2.1-6.3,5.8-7.4c2.3-0.7,4.8-0.6,6.9,0c2.5,0.7,4,1.8,5.2,2.7l3.6-4.9C350.2,55.6,345.2,53.4,339.4,53.1z M280.5,62.6
				c2.7-2.4,5.3-3.5,7.8-2.9c1,0.3,1.9,0.8,2.6,1.9c2.7,4.2,0.7,10.5-0.6,14.5L271,76.1C273.8,70.1,277.6,65.2,280.5,62.6z
				 M255.8,58.9c-3.2-3.2-8.2-5.4-13.9-5.7c-0.5,0-1,0-1.5,0c-5.9,0.2-12.2,2.3-16.7,6.7c-1.2,1.1-2.3,2.3-3.2,3.7
				c-2.2,3.3-3,7.1-2.7,10.9c0,0.4,0.1,0.7,0.2,1.1c0.3,1.8,0.9,3.6,1.6,5.2c1,2.2,2.3,4.2,3.5,6.1c1.5,2.3,2.7,4.6,3.1,7.2
				c0.6,3.7-1.1,6.6-4.2,7.6c-6.4,1.9-12.9-0.6-17.3-4.3c-1.7-1.4-2.9-3-4.4-4.6c0,0,0,0,0,0l0,0c0,0-0.1-0.1-0.1-0.1
				c-2.6,1.9-9.2,6-15,7.9c-0.9,0.3-1.7,0.5-2.6,0.7c-4,1-8,1.2-10.9-0.7c-2.5-1.7-3.3-3.5-2.9-8.5c0.3-3.5,1.2-6.9,2.4-10.1l33.7,0
				c3-6,4.2-15.4,0.3-21.8c-4.4-7.2-14-7.7-22.5-4.8c-5.4,1.9-10.2,4.9-14.2,8.4c-0.5,0.5-1.1,1-1.5,1.4c-6,5.6-10.5,12.5-12.9,19.3
				c0,0.1,0,0.1-0.1,0.2c-4.3,3.5-8.9,6.9-18.9,12.5c-2.5,1.4-5,2.6-7.7,3.4c-0.8,0.3-1.7,0.5-2.6,0.7c-4,1-8,1.2-10.9-0.7
				c-2.5-1.7-3.3-3.5-2.9-8.5c0.3-3.5,1.2-6.9,2.4-10.1l33.7,0c3-6.1,4.2-15.4,0.3-21.8c-4.4-7.2-14.1-7.7-22.5-4.8
				c-5.4,1.8-10.2,4.8-14.2,8.4c-0.5,0.5-1,0.9-1.5,1.4c-6.3,5.9-11,13.3-13.3,20.4c-0.3,0.9-0.6,2.3-0.9,3.4
				c-0.4,2-0.6,3.5-0.6,5.1c-3.1,1.7-6.8,3.3-10.7,4.3c-6.1,1.6-14.5-1.3-9.9-14.1c4.3-12,2.1-17.5-3.7-21.3
				c13.4-1.1,27.9-6.5,37.5-15.4c10.7-9.9,12.8-20.1,10-27.7c-4.8-13-25.7-14.3-42.6-5.1C43.7,32,13.8,76.4,9.4,100.6
				c-1.2,6.4-0.1,10.1,2.6,11c3.6,1.3,8.1-1.3,12.2-5.1c6.7-6.3,12.6-20.6,19.9-30.8c3.1-4.4,6.6-8.1,10-9.5
				c2.8-1.1,5.1-0.9,6.7,0.2c7.1,4.7-4.3,20.8-5.9,31.1c-1,6.3,1.8,12.1,7.5,13.5c3.1,0.7,6.8,0.8,10.6-0.1
				c6.6-1.2,14.3-5.3,22-11.1c1.1,3.3,3.3,6.2,6.9,8.2c1.4,0.8,2.9,1.3,4.5,1.7c1.6,0.5,3.3,0.7,5.1,0.8c5.4,0.4,11.5-0.9,17-3.2
				c9.8-4.3,16.9-9.7,23.4-14.9c-0.1,2.2,0.1,4.8,1.2,7.7c2.3,6.2,9.2,9.9,16.3,10.3c5.4,0.4,11.5-0.9,16.9-3.2
				c4.3-1.9,8-3.9,11.4-6.1c0.5,0.5,1,1.1,1.6,1.6c4,3.6,8.6,5.9,13.7,7c1,0.3,1.9,0.5,2.9,0.7c2,0.2,3.9,0.3,6,0.2
				c4.9-0.3,9.5-1.8,13.2-4.5c0.6-0.4,1.1-0.8,1.6-1.3c1-1,2-2.1,2.7-3.2c4.3-5.5,3.9-11.5,1.8-16.8c-0.2-0.5-0.4-1-0.6-1.5
				c-1.2-2.7-2.7-5.4-4.6-8.5c-0.4-0.7-0.8-1.5-1.1-2.3c-0.1-0.2-0.1-0.4-0.2-0.6c-0.3-1.1-0.5-2.3-0.4-3.4c0.2-3.3,2.1-6.3,5.8-7.4
				c2.3-0.7,4.8-0.5,7,0c2.4,0.7,4,1.8,5.2,2.7C252.2,63.8,255.8,58.9,255.8,58.9z M183,62.7c3.2-2.9,5.9-3.2,7.6-2.8
				c1.1,0.2,2.1,0.8,2.7,1.8c2.7,4.2,0.7,10.5-0.6,14.5l-19.3,0.1C176.3,70.2,180.1,65.3,183,62.7z M125.1,62.8
				c2.6-2.3,5.3-3.3,7.4-2.9c1.3,0.3,2.4,0.9,3,1.8c2.7,4.2,0.7,10.5-0.6,14.5l-19.3,0.1C118.4,70.2,122.2,65.4,125.1,62.8z
				 M55.2,58.3c4.9-8.9,13.5-21.2,22.2-30.1c1.8-1.9,3.9-3.8,6-5.5c4.7-3.8,11-6.9,15.6-4.5c1.4,0.7,2.4,2,2.7,4
				c1,6.5-5.5,16.9-17.8,24.7C74.9,52.6,63.7,56.5,55.2,58.3z"/>
		</g>
	</g>
</g>
</svg>
