<?xml version="1.0" encoding="utf-8"?><svg version="1.2" baseProfile="tiny" xmlns="http://www.w3.org/2000/svg" width="691.8" height="369.2" viewBox="0 0 691.8 369.2"><path fill="#FCA731" d="M333.9 80.4c-9.6 20.9-22.8 27.2-33.2 27.2-16.4 0-25.4-7.6-36.7-36.3l-8.1-20.4C243 18.1 232.6 5.9 204.7.4V0h47.5c57.9 0 65.6 21.9 77 50.9l8.1 20.4.3.8c-.7 1.4-2.7 6.1-3.7 8.3z"/><path fill="#F93E39" d="M426.7 50.9l-8.1 20.4c-11.3 28.7-25.8 41.5-49.9 41.5h-57.6v-.4c4.6-1.3 15.6-7.4 22.3-17.1 4.2-6 7.9-13.8 11.9-24l8.1-20.4C364.9 21.8 372.5 0 430.4 0h47.5v.4c-27.8 5.5-38.2 17.7-51.2 50.5z"/><g fill="#131311"><path d="M471.5 133.6c-12.6 0-21.9 10.8-21.9 41.9 0 25.6 7.7 40.8 22.8 40.8 6.2 0 12-2.5 17.5-8.2l9.1 13.2c-10.6 9.7-20.5 13.7-33.4 13.7-28.4 0-46.8-24.4-46.8-59.5 0-31.4 18.9-59.2 51.6-59.2 9.2 0 16.9 1 24.9 4.3v33c-6.4-13.6-14.4-20-23.8-20zM142 123.7c-7.7 0-12.6 4.5-12.6 11.5 0 10.5 10.5 14.4 22.8 21.1 17.7 9.7 25.9 20.6 25.9 36.6 0 25-17.9 42.1-44.3 42.1-11.5 0-22.3-2.8-34.5-8.9V197c11.3 12.7 21.5 18.3 32.6 18.3 9.6 0 15.9-5.4 15.9-13.6 0-10.9-12-16.5-20.3-20.8-15.7-8.2-28.1-18.9-28.1-37.3 0-22.3 18.7-38.4 44.4-38.4 8.8 0 17.5 1.7 25 4.8v31c-7.2-12.2-17.6-17.3-26.8-17.3z"/><path d="M228.9 137.6H223v72.9c0 8.6.7 18.4 1.3 22.4h-31.4c.6-4 1.3-13.7 1.3-22.4v-72.9h-5.9c-4.7 0-11.7.7-16.7 1.6l3.1-20.6h67.8l3.1 20.6c-5-1-11.9-1.6-16.7-1.6zM414 205c-5.2-12.9-7.3-21.6-17-24.9 12.2-6 19.6-15.7 19.6-29.8 0-19.8-12.9-31.7-34.3-31.7h-44.6c.6 4 1.3 13.7 1.3 22.4v69.5c0 8.6-.7 18.4-1.3 22.4h31.4c-.6-4-1.3-13.7-1.3-22.4V186h1.3c5.7 0 7.4 2.8 9.9 9.1l8.6 22.1c4 10.2 7.3 15.6 18.2 15.6H435c-9.6-2.1-12.8-7.6-21-27.8zm-44.7-35.7h-1.5v-34h3.7c10.3 0 16 6.3 16 16.7-.1 10.5-6.7 17.3-18.2 17.3z"/><path d="M286.6 115.7c-29.7 0-46.6 23.3-46.6 60 0 36.6 16.5 60 46.6 60 29.7 0 46.6-23.4 46.6-60s-16.5-60-46.6-60zm.1 102.7c-10.5 0-15.9-12.4-15.9-42.7 0-30.3 5.5-42.7 15.9-42.7 10.3 0 15.8 12.4 15.8 42.7 0 30.3-5.5 42.7-15.8 42.7zM557.7 158.5l22.3 52.6c4.1 9.6 8.7 17.8 11.3 21.7h-36c-1.3-6.3-3.3-13.4-6.6-21.5l-9.9-24.6-8.2 13.4v10.4c0 8.6.7 18.4 1.3 22.4h-31.4c.6-4 1.3-13.7 1.3-22.4V141c0-8.6-.7-18.4-1.3-22.4h31.4c-.6 4-1.3 13.7-1.3 22.4v22.4l13.5-22.4c5.9-9.9 10.6-18.7 12-22.3H584c-3 3.5-8.5 11.3-15.4 22.4l-10.9 17.4z"/></g><path d="M394.3 358.4c1.9 0 7.9-3.8 12.5-7.1l-1.3-2c-1.7 1-2.9 1.3-3.6 1.3-.8 0-1.2-.4-1.2-1.1 0-1.3.9-4.2 2-8 2.2-7.5 4.6-15.4 7.4-23.5l-.8-.9c-3 .9-6.5 1.6-9.5 1.5-.1 2.3-.6 4.5-1.1 6.4-1.7 6.2-4.5 12.1-8.3 17.1-1.6 2.2-6.8 8.6-9.6 8.6-.9 0-1.5-.3-1.5-1 .1-2 .6-3.9 1.1-5.7l3.4-11.7c1.5-5.2 2.8-9.1 2.9-12.6.1-1.7-.6-3-2.2-3-2.1 0-5.7 1.4-10.1 4.3l-3.8 2.5 1.2 2.4c1.2-.6 2.1-.8 2.8-.8.7 0 1.4.3 1.3 1.3-.1 3.4-3.1 12.5-4.9 18.7-.8 2.8-1.8 5.5-1.9 8.5-.1 1.9.8 4.6 3.8 4.6 9.3 0 19.3-12.4 22.2-17.6l-2.2 7c-.8 2.6-1.5 5.1-1.6 7 0 2.8 1.6 3.8 3 3.8zM211.1 316.7c-10 0-21.2 5-25.5 20.5-.7 2.5-1.2 5.2-1.3 7.3-.3 9.2 3 13.8 12.6 13.8 13.4 0 22.4-8.4 25.7-21.1.6-2.3 1-4.8 1.1-6.7.3-8.7-3.6-13.8-12.6-13.8zm-10.5 37.9c-4.3 0-6.7-3.9-6.6-8 .3-8.7 3.5-26.1 13.4-26.1 4.3 0 6.7 3.9 6.6 8-.3 8.6-3.6 26.1-13.4 26.1zM568.3 316.7c-10 0-21.2 5-25.5 20.5-.7 2.5-1.2 5.2-1.3 7.3-.3 9.2 3 13.8 12.6 13.8 13.4 0 22.4-8.4 25.7-21.1.6-2.3 1-4.8 1.1-6.7.3-8.7-3.7-13.8-12.6-13.8zm-10.6 37.9c-4.3 0-6.7-3.9-6.6-8 .3-8.7 3.5-26.1 13.4-26.1 4.3 0 6.7 3.9 6.6 8-.2 8.6-3.5 26.1-13.4 26.1zM348.5 316.7c-10 0-21.2 5-25.5 20.5-.7 2.5-1.2 5.2-1.3 7.3-.3 9.2 3 13.8 12.6 13.8 13.4 0 22.4-8.4 25.7-21.1.6-2.3 1-4.8 1.1-6.7.2-8.7-3.7-13.8-12.6-13.8zm-10.6 37.9c-4.3 0-6.7-3.9-6.6-8 .3-8.7 3.5-26.1 13.4-26.1 4.3 0 6.7 3.9 6.6 8-.3 8.6-3.6 26.1-13.4 26.1zM104.1 358.4l-.9-1c.9-2.6 1.9-5.2 2.6-7.9l2.4-9.2c1.1-4.1 2.6-11.7 2.7-13.5 0-1.4-.4-1.6-1-1.6s-1.5.3-3.5 1.6l-1.3-2.2 4.3-3.3c5.2-3.9 7.8-4.6 9.4-4.6 1.6 0 2.1 1.3 2.1 2.6-.1 2.7-1.1 5.2-3.1 12.8l-.7 2.7c4.5-8.5 9.2-18 16.9-18 .7 0 1.4.2 2.1.5-1.1 4-2 7.9-2.1 11.7l-1.1.5c-1.4-1-3-1.6-4.2-1.6-5.2 0-7.8 6-9.9 9.9-2.8 5.5-4.3 13-5.4 18.9-2.7.3-6.7.7-9.3 1.7M142.7 358.4c-2.5 0-4.9-.8-4.8-5.5.1-1.4.6-3.7 1-5.2l6.2-25.1h-6.5l.7-2.3 7.1-2.7c.8-3.9 1.6-7.9 1.7-10.5v-1.4c1.8-.3 3.5-.7 4.9-1.2l5.7-2.1.8 1c-1.1 3.4-2.1 6.6-3 9.9l-1.3 4.8 11.5-.4.5.4-1.2 4.9c-2.5-.3-5.2-.4-7.9-.4h-4l-5.1 20.3c-.5 2-.9 4-1 6.1-.1 1.8.5 2.4 1.8 2.4.9 0 2.3-.4 4.5-1.9l1.5 2.4-2 1.5c-4.3 3.1-8.1 5-11.1 5M227.8 369.2l10.4-46.8h-7.8l.5-2.1 4.3-1.4c1.9-.6 3.8-1.3 4.3-1.6.2-.8.4-1.6.7-2.6 2.9-11.6 12.9-18.2 22-18.2 1.3 0 3 .2 4.2.7-.9 2.8-1.6 5.9-2.3 9.1l-1.3.3c-2.3-3.5-3.7-5.2-6-5.2-1.5 0-3.1.8-4.2 3.3-1.1 2.7-2.7 10-3.6 13.6 3.5-.1 7-.4 10.6-.7l.4.7c-.7 1.4-1 2.7-1.5 4.4H248l-12.1 45.4-8.1 1.1zM330.8 306.1c-1.4.2-2.9.9-4.2 1.5-8.3 4.6-15.7 18.4-19.5 26.9-.7 1.5-.9 3.1-1.4 4.7l-2 9.1c-.2.9-.3 2-.4 3.1 0 1.4.4 2.3 3.1 2.5l2.5.1-.5 3.1c-4.2-.1-7.7-.2-11.2-.2-3.8 0-7.6.1-11.5.2l.5-3.1 2.1-.1c1.2-.1 2.3-.3 2.9-1.6.4-.7.8-2.3 2-6.7l1.6-6.3c.3-1.2.4-2.4.5-3.7.1-1.5-.7-5.2-1.7-8.8l-2.4-9c-.9-3.3-4.1-12.1-8.8-12.1-.9 0-3.1.2-4 .8l-.2-2.8c2.2-1.4 5.9-4.4 7.9-6 .4-.3 1.4-.4 2.1-.4 4.1 0 7.3 2.2 9.4 6.6 2 4.1 3.3 8.6 4.1 13l2.5 14.2c3.2-7 7.1-13.8 11.6-20.1 3.2-4.5 9.8-12.6 15.8-12.6l-.8 7.7zM624.5 358.4c-1 0-2.6-.9-2.5-3.7.2-4.6 1-7.4 1.8-10.3l9.8-38.5c.8-2.9.8-4.8-2.5-4.8h-1.5l.8-2.8c5-.8 10.2-1.7 14.7-3.6l.8.8c-.5 1.8-1.1 3.6-1.7 5.6l-10.6 41.3c-.5 2-1.2 5-1.3 7.9 0 .7.4 1.1 1 1.1.9 0 2.8-1 4.2-1.9l1.3 2.1c-5.5 3.8-10.1 6.8-14.3 6.8M588.5 358.4l-.9-1c.9-2.6 1.9-5.2 2.6-7.9l2.3-9.2c1.1-4.1 2.6-11.7 2.7-13.5 0-1.4-.4-1.6-1-1.6s-1.5.3-3.5 1.6l-1.3-2.2 4.3-3.3c5.2-3.9 7.8-4.6 9.4-4.6 1.6 0 2.1 1.3 2.1 2.6-.1 2.7-1.1 5.2-3.1 12.8l-.7 2.7c4.5-8.5 9.2-18 16.9-18 .7 0 1.4.2 2.1.5-1.1 4-2 7.9-2.1 11.7l-1.1.5c-1.4-1-3-1.6-4.2-1.6-5.2 0-7.8 6-9.9 9.9-2.8 5.5-4.3 13-5.4 18.9-2.6.3-6.6.7-9.2 1.7M417.2 358.4l-.9-1c1-2.6 1.9-5.2 2.6-7.9l2.4-9.2c1.1-4.1 2.6-11.7 2.7-13.5.1-1.4-.4-1.6-1-1.6s-1.5.3-3.5 1.6l-1.3-2.2 4.3-3.3c5.2-3.9 7.8-4.6 9.4-4.6 1.6 0 2.1 1.3 2 2.6-.1 2.7-1.1 5.2-3.1 12.8l-.7 2.7c4.5-8.5 9.2-18 16.9-18 .7 0 1.4.2 2.1.5-1.1 4-2 7.9-2.1 11.7l-1.1.5c-1.4-1-3-1.6-4.2-1.6-5.2 0-7.8 6-9.9 9.9-2.8 5.5-4.3 13-5.4 18.9-2.6.3-6.6.7-9.2 1.7M61.5 315.9c-1.1 9.3-10.6 16.1-21.6 16.1-2.9 0-5.7-.5-8.4-1.5l-.1-3c1.8.7 3.7 1 5.8 1 5.8 0 11.2-3.7 12.9-11.7 1.9-8.4-2.4-17-16.1-17l-10.4 48.5c-.2.9-.3 2-.4 3.1 0 1.4.4 2.3 3.1 2.5l5.1.3-.5 3c-5.5-.1-9.6-.2-13.8-.2-4.5 0-9 .2-13.6.2l.5-3 4.2-.3c1.2-.1 2.3-.3 3-1.6.4-.7 1-2.3 1.9-6.7l9.5-44.5C10.8 304 5 311 3.3 315.2c-.4-1.5-2.3-5.7-3.3-7 3.7-3.7 14.2-12.1 36.2-12.1 17.3 0 26.7 7.8 25.3 19.8zM550.9 306.1c-7.6 1.4-12.9 9.7-20 27.1l-9.7 23.9H514l-8-41.5-21.4 41.5h-7.2l-1.1-31.5c-.4-11.8-3.2-19.9-7.9-19.9-.9 0-3.1.2-4 .8l-.2-2.8c2.2-1.4 5.9-4.4 7.9-6 .4-.3 1.4-.4 2.1-.4 4.1 0 7.5 2.1 9.4 6.6 2.3 5.5 2.7 14.6 3 20.7l.7 18.7 22.7-44h3.7l8.7 44.9 5.1-13.3c7-18.2 14.9-31.8 24.2-32.4l-.8 7.6zM93.5 326.6c.5-1.9 1.1-3.9 1.7-5.3l1.4-3.7-1.3-1-3.9 2.3c-2.7-1.2-5.3-2.2-8.4-2.2-8.7 0-18.5 5.8-23.5 19.3-1.5 4.1-3.3 11.2-3.5 15.7-.1 2.8 1 6.6 4.6 6.6 10.1 0 19.6-14.4 22-19l-2.9 10.4c-.4 1.3-.7 2.9-.8 4.9-.1 2.7 1.4 3.7 2.4 3.7 3.8 0 8.8-3.1 12.9-6.4l-1.5-2.4c-1.3.8-2.7 1.5-3.5 1.5-.7 0-1.2-.5-1.1-1.7 0-1.2.6-2.9 1-4.5l4.4-18.2zm-10.9 5.9c-3.8 8.1-7 12-10.8 15.8-1.8 1.8-3.5 3-4.7 3-1.1 0-1.5-2-1.4-3.3.1-3 1.6-8.4 2.5-11.4 1.3-4.5 2.6-9.3 5.3-13.1 1.3-1.7 3.4-2.4 5.5-2.4s4.8.9 6.5 1.9c-.7 3.7-1.8 7.1-2.9 9.5zM690.4 301c.4-1.9.9-3.8 1.4-5.6l-.8-.8c-4.5 1.8-9.6 2.8-14.7 3.6l-.8 2.8h1.5c2.5 0 3.2 1.2 3.2 3.7 0 .9-.2 1.9-.5 3.2l-1.9 9.6c-2-.5-3.8-.8-5.8-.8-10.1 0-19.5 7-23.6 20.5-1.4 4.7-2.3 9.6-2.4 13.2-.1 3.9 1.1 8 5.9 8 5.7 0 15-6.9 21.5-18.6l-3 10.8c-.3 1.1-.7 2.7-.7 4.1-.1 1.9.8 3.7 3 3.7s7.9-3.6 12.5-6.8l-1.4-2.2c-1.4.9-3 1.9-3.5 1.9-.7 0-1.2-.6-1.2-1.5 0-.8.4-2.6.5-3.3l10.8-45.5zm-16.1 29.7c-1.9 6.5-12.2 20.6-16.3 20.6-1 0-2.2-.5-2.2-2.2.2-6.4 3.8-21.9 8.3-26.6 1.3-1.3 3.6-1.4 5.5-1.4 2 0 4.2.4 7 1.5l-2.3 8.1z"/></svg>