<?xml version="1.0" encoding="utf-8"?>
<!-- Generator: Adobe Illustrator 15.0.0, SVG Export Plug-In . SVG Version: 6.00 Build 0)  -->
<!DOCTYPE svg PUBLIC "-//W3C//DTD SVG 1.1//EN" "http://www.w3.org/Graphics/SVG/1.1/DTD/svg11.dtd">
<svg version="1.1" id="Layer_1" xmlns="http://www.w3.org/2000/svg" xmlns:xlink="http://www.w3.org/1999/xlink" x="0px" y="0px"
	 width="1048.04px" height="388.6px" viewBox="0 0 1048.04 388.6" enable-background="new 0 0 1048.04 388.6" xml:space="preserve">
<g>
	<defs>
		<path id="SVGID_1_" d="M1013.542,131.339c27.111,116.699-155.496,212.909-419.889,218.086
			c-125.705,2.438-244.541-13.057-337.552-42.548l0.008,0.005c93.551,33.818,217.79,51.922,349.738,49.287
			c258.488-5.147,437.058-101.391,410.527-218.056c-0.723-3.199-1.601-6.375-2.629-9.527c-1.196-3.411-2.566-6.801-4.103-10.17
			C1011.228,122.694,1012.518,127.005,1013.542,131.339 M1013.746,128.586c1.36,3.877,2.493,7.782,3.386,11.718
			c27.327,121.41-149.579,214.711-408.099,219.841c-131.953,2.625-258.834-19.14-352.393-52.948
			c91.958,39.484,212.141,65.508,341.826,67.602c259.529,4.247,455.416-88.254,428.164-217.471
			c-3.068-14.595-9.2-28.696-18.1-42.178c-0.148-0.222-0.252-0.358-0.322-0.432C1010.371,119.288,1012.223,123.912,1013.746,128.586
			 M1008.305,115.465c0.187,0.422,0.365,0.816,0.543,1.241c0.27,0.57,0.535,1.14,0.795,1.711c-0.461-1.243-0.947-2.484-1.458-3.721
			c-0.034-0.033-0.06-0.047-0.076-0.047C1007.983,114.649,1008.305,115.465,1008.305,115.465 M1008.185,114.696
			c0.007,0.007,0.015,0.015,0.022,0.023c-0.035-0.075-0.07-0.15-0.106-0.226C1008.129,114.561,1008.157,114.627,1008.185,114.696
			 M206.235,101.122c-29.26,32.311-51.675,87.702-74.543,120.918c-11.868,17.231-34.651,35.543-63.169,35.002
			c-26.717-0.539-37.097-25.297-34.897-54.235c2.328-31.198,23.727-64.363,51.254-68.512c31.886-4.787,36.197,29.83,24.7,47.253
			c-0.884,1.329-1.759,2.289-0.468,1.894c27.566-12.487,31.202-60.781-6.04-65.512c-35.338-4.444-61.933,23.747-73.15,48.892
			c-11.74,26.348-15.546,69.128,5.437,90.654c10.44,10.755,19.955,17.334,41.625,16.914c33.054-0.612,59.312-24.117,78.328-48.261
			c13.104-16.616,23.518-35.411,34.57-54.555c10.543-18.264,21.764-37.65,33.619-55.446c14.344-21.484,29.329-42.34,50.868-53.604
			c0.2-0.127,0.807-0.476-0.14-0.476c-0.46-0.007-0.914-0.011-1.367-0.011C240.471,62.038,223.603,82.002,206.235,101.122
			 M992.65,57.679L992.65,57.679c0.002-0.002,0.003-0.004,0.005-0.006c-0.001-0.001-0.001-0.003-0.002-0.004L992.65,57.679z
			 M992.638,57.672l0.005,0.003c0.003-0.004,0.006-0.007,0.008-0.01c-0.001-0.003-0.002-0.005-0.003-0.007
			C992.645,57.662,992.641,57.667,992.638,57.672 M992.687,57.662c0.002,0.003,0.004,0.006,0.007,0.008l0.006-0.004
			c-0.003-0.003-0.006-0.007-0.009-0.01C992.69,57.658,992.688,57.66,992.687,57.662 M992.655,57.673
			c0.001,0.003,0.002,0.007,0.002,0.01l-0.006-0.004c-0.001,0.001-0.002,0.002-0.003,0.004l0.002-0.004l-0.007-0.004
			c-0.048,0.064-0.137,0.181-0.173,0.19c-1.76,2.932-4.63,7.293-6.635,9.999c-2.506,3.39-3.585,4.795-5.802,7.424
			c-4.23,4.622-10.041,10.496-15.911,11.788c-0.313,0.068-0.67,0.129-1.058,0.176c-0.006,0.04-0.011,0.08-0.018,0.121
			c-2.171,0.357-4.889,0.323-7.144-1.393c-0.251-0.196-0.481-0.4-0.701-0.603c-0.002-0.023-0.004-0.046-0.005-0.069
			c-0.004-0.004-0.008-0.008-0.012-0.012c0.22,2.497,0.926,4.931,2.361,7.064c0.094,0.178,0.217,0.276,0.403,0.42
			c2.111,1.465,4.583,2.162,7.047,2.332c4.132,0.353,8.452-0.841,11.901-2.977c3.508-2.163,6.125-5.289,8.107-8.461
			c3.175-4.984,4.248-11.15,5.815-17.173c0.544-2.026,1.185-6.015,1.853-8.806v-0.038c-0.002,0-0.004-0.001-0.007-0.002
			C992.663,57.662,992.658,57.667,992.655,57.673 M992.651,57.665c0.001,0.001,0.002,0.003,0.002,0.004l0.006-0.014
			C992.657,57.658,992.654,57.661,992.651,57.665 M992.659,57.655c0.001-0.002,0.002-0.003,0.003-0.004c-0.001,0-0.001,0-0.001,0
			L992.659,57.655z M992.588,57.653c-2.777,0.667-6.778,1.313-8.791,1.84c-6.007,1.596-12.199,2.697-17.144,5.895
			c-3.134,1.988-6.308,4.587-8.465,8.091c-2.117,3.452-3.283,7.734-2.991,11.829c0.217,0.229,0.446,0.437,0.672,0.595
			c1.905,1.47,5.034,1.614,7.195,1.349c0.05-0.351,0.104-0.67,0.217-0.979c1.409-5.845,7.141-11.736,11.723-15.941
			c2.646-2.217,4.057-3.296,7.429-5.819c2.715-2.034,7.089-4.885,9.991-6.648c0.017-0.01,0.16-0.123,0.214-0.193l-0.039-0.022
			L992.588,57.653z M992.674,57.657v0.052c0.672,2.777,1.33,6.77,1.843,8.8c1.589,6.023,2.65,12.199,5.819,17.165
			c2.004,3.172,4.625,6.298,8.131,8.464c3.455,2.133,7.746,3.322,11.871,2.995c0.199-0.177,0.396-0.401,0.573-0.629
			c0.009-0.01,0.017-0.021,0.024-0.032c0.006-0.007,0.012-0.015,0.018-0.023c1.454-1.891,1.592-5.004,1.334-7.15
			c-0.363-0.074-0.711-0.154-1.028-0.223c-5.861-1.436-11.73-7.166-15.933-11.775c-2.221-2.632-3.3-4.043-5.814-7.437
			c-2.004-2.702-4.867-7.047-6.625-9.994c-0.034-0.007-0.143-0.141-0.193-0.2l-0.02,0.013c0.003-0.006,0.008-0.013,0.013-0.021
			c-0.005-0.005-0.009-0.01-0.013-0.013V57.657z M992.7,57.666c0.062,0.067,0.188,0.189,0.188,0.199
			c2.938,1.746,7.297,4.617,10.011,6.61c3.385,2.535,4.821,3.597,7.432,5.815c4.626,4.213,10.496,10.04,11.78,15.927
			c0.069,0.318,0.13,0.683,0.178,1.082c0.018,0.003,0.033,0.006,0.051,0.01c0.34,2.154,0.34,4.898-1.385,7.14
			c-0.006,0.008-0.012,0.016-0.018,0.023c-0.008,0.011-0.016,0.022-0.024,0.032c-0.177,0.229-0.373,0.452-0.569,0.625
			c2.468-0.179,4.923-0.914,7.06-2.349c0.173-0.106,0.297-0.23,0.412-0.412c1.456-2.081,2.149-4.558,2.34-7.072
			c0.318-4.099-0.867-8.402-2.952-11.863c-2.209-3.483-5.348-6.146-8.499-8.105c-4.97-3.181-11.159-4.26-17.168-5.844
			c-2.022-0.523-6.007-1.164-8.793-1.831l-0.015-0.004L992.7,57.666z M992.662,57.651c0.002,0.002,0.004,0.003,0.006,0.004
			c0-0.001,0.001-0.002,0.003-0.002l-0.007-0.005C992.663,57.649,992.662,57.65,992.662,57.651 M992.67,57.653l0.004,0.004v-0.01
			C992.672,57.649,992.67,57.651,992.67,57.653 M992.654,57.646c0.002,0.002,0.004,0.003,0.007,0.005l0.001-0.005l-0.006-0.007
			C992.656,57.642,992.655,57.644,992.654,57.646 M992.637,57.641c0.004,0.006,0.008,0.011,0.011,0.017
			c0.002-0.004,0.004-0.008,0.006-0.012c-0.004-0.002-0.007-0.004-0.011-0.007L992.637,57.641z M992.678,57.641
			c0.004,0.005,0.008,0.01,0.013,0.015c0.003-0.004,0.007-0.009,0.011-0.013l-0.021-0.005
			C992.68,57.639,992.679,57.64,992.678,57.641 M992.654,57.637l0.002,0.002c0.001-0.001,0.001-0.002,0.001-0.003L992.654,57.637z
			 M684.137,212.019c-0.938-1.787-0.468-7.305,0.908-11.35c4.881-14.505,14.904-27.791,25.434-40.453
			c10.279-12.322,20.774-25.765,34.1-31.355c12.326-5.199,12.769,9.285,8.63,17.713c-7.355-10.237-21.916,10.699-6.375,12.733
			c-11.693,18.35-24.613,39.48-44.093,51.369c-2.679,1.637-8.376,4.264-12.91,4.263C687.363,214.939,685.239,214.16,684.137,212.019
			 M345.051,210.218c-1.562-8.682,7.085-20.72,10.449-26.376c9.319-15.58,19.543-28.416,32.282-40.903
			c6.583-6.461,20.583-18.048,25.9-15.007c5.849,2.515,3.262,13.244,1.377,18.196c-9.735-9.323-20.571,12.136-6.38,13.18
			c-5.943,10.33-13.21,20.995-21.82,30.905c-7.777,8.954-18.175,19.886-29.078,23.624c-1.75,0.601-3.723,0.964-5.588,0.964
			C348.726,214.8,345.634,213.543,345.051,210.218 M199.758,29.624c-24.342,1.903-47.564,12.436-55.332,33.3
			c-1.606,4.367-2.252,10.339-1.36,15.478c0.315,1.512,0.795,1.215,1.36,0.161c3.941-8.801,8.027-14.547,15.048-19.992
			c28.595-22.215,81.896-2.129,126.283-1.976c12.776,0.043,26.062-0.649,39.115-3.203c-41.146,29.92-72.229,86.072-98.627,133.644
			c-3.891,6.949-9.048,14.357-11.447,21.531c-4.005,12.062,3.135,16.246,16.888,15.724c8.181-14.828,15.954-31.012,24.993-46.8
			c7.9-13.816,19.224-31.435,33.648-38.621c3.789-1.904,14.505-4.906,16.811-0.467c2.374,4.536-4.739,13.484-8.402,19.002
			c-10.669,16.005-25.509,33.845-29.324,50.528c-1.861,8.215,0.769,17.609,9.344,19.471c19.599,4.243,34.176-6.32,48.107-23.994
			c-0.577,21.284,18.702,27.995,35.892,21.356c15.529-6.001,25.366-15.405,36.83-28.642c7.917-9.14,14.641-18.073,20.927-28.194
			c1.98-3.246,3.585-6.346,5.794-9.854c1.066-1.674,14.153-9.837,16.566-11.672c5.61-4.248,17.774-13.567,15.685-9.744
			c-4.26,9.081-38.384,65.215-41.238,74.467c-3.275,10.622,5.687,13.711,15.435,13.163c12.131-19.96,26.886-42.157,38.214-63.156
			c5.5-10.263,19.998-29.796,24.054-25.91c3.844,3.253-2.676,18.099,3.211,21.802c2.536,1.61,7.416,1.372,10.967,0.191
			c15.469-5.117,38.082-28.411,35.187-22.604c-9.676,17.278-22.674,39.629-33.742,58.772c-5.802,10.041-9.769,14.904-9.421,20.961
			c0.365,5.997,5.981,10.466,15.588,9.88c8.924-14.323,18.375-30.064,27.762-46.297c8.38-14.468,17.967-32.592,34.1-39.527
			c2.53-1.097,14.05-4.614,15.438,0.917c1.092,4.269-5.245,12.406-8.167,16.803c-9.918,14.9-23.507,30.913-29.105,46.824
			c-4.221,12.122-1.053,23.268,11.367,24.088c16.506,1.091,30.455-9.926,36.813-15.016c-1.687,12.946,5.34,16.837,17.674,16.872
			c12.938,0.017,31.971-13.679,41.422-25.944c0.128,15.384,11.842,27.532,29.563,24.088c17.05-3.301,29.996-16.171,41.812-28.191
			c12.552-12.806,22.635-27.966,29.08-41.362c11.336-5.785,29.698-21.396,32.823-22.503c0.672-0.31,1.197,0.042,0.638,1.061
			c-10.011,16.744-24.118,39.112-35.756,58.713c-3.797,6.427-9.947,14.932-7.87,22.534c1.423,5.326,9.607,7.246,15.627,7.004
			c9.544-14.098,18.196-30.969,28.631-48.171c9.231-15.249,19.777-34.626,37.714-39.082c3.704-0.937,10.024-2.424,10.899,1.832
			c1.36,4.719-5.989,14.959-9.973,20.889c-8.614,12.674-17.424,23.305-24.563,38.184c-3.181,6.652-7.464,18.731-1.363,24.538
			c4.298,4.09,11.643,5.577,18.511,4.396c8.996-1.538,18.251-7.662,25.242-13.757c21.803-18.999,35.479-40.806,50.309-61.508
			c4.136,10.89,18.658,19.938,20.111,34.974c1.678,16.777-5.029,35.984-23.265,32.999c-9.854-2.256-8.252-15.466-5.135-26.101
			c0.268-0.935-0.688-1.062-0.688-1.062c-2.625-0.391-5.902-0.094-9.336,1.376c-11.146,4.715-13.252,19.478-4.629,27.973
			c4.724,4.664,11.943,7.179,20.735,7.391c19.692,0.51,44.599-15.825,47.665-37.072c3.594-25.268-20.514-36.248-24.422-52.325
			c-0.681-2.799-0.739-6.779,0.458-9.981c3.263-8.924,23.353-8.228,23.625,4.88c0.102,5.161-3.856,6.185-1.806,10.734
			c2.659,5.883,12.06,5.602,15.584,0.412c2.269-3.301,2.338-9.06,0.349-15.019c-6.575-19.565-40.552-27.082-57.273,3.134
			c-4.128,7.382-34.345,47.02-49.628,63.054c-6.761,7.089-20.553,20.796-23.811,15.091c-2.506-5.419,4.723-14.653,8.759-21.399
			c7.913-13.013,16.972-24.596,24.117-38.639c4.569-9.051,10.797-22.652,3.648-30.441c-12.914-13.983-39.299,6.269-49.114,11.811
			c3.61-26.898-21.161-14.182-32.272-5.924c-7.815,5.844-14.2,11.765-19.556,15.461c5.14-18.876-8.393-30.149-26.784-28.603
			c-17.691,1.449-30.956,12.806-42.765,23.616c-12.521,11.511-21.457,25.323-28.144,38.563c-4.544,8.317-16.633,24.711-28.25,33.917
			c-3.478,2.772-15.758,10.197-14.64,3.584c0.459-4.412,6.735-15.927,11.052-23.344c13.29-22.74,25.977-44.912,39.994-66.817
			c15.774,1.228,27.01-2.629,35.22-9.42c1.69-1.364,3.84-3.416,4.774-5.738c0.17-0.375,0.321-1.351-0.435-0.884
			c-7.941,4.978-21.432,7.284-33.64,5.127c6.661-13.002,14.927-24.462,21.356-37.714c-28.254-4.29-35.139,20.201-45.897,36.359
			c-14.055,0.161-23.82,4.612-30.879,11.723c-0.477,0.484-1.895,1.698,0,1.061c6.999-2.352,16.769-3.071,24.541-1.848
			c-12.395,21.714-33.437,58.059-37.747,64.516c-6.656,9.454-8.683,11.294-15.592,17.244c-4.784,4.129-26.785,16.32-21.731,6.108
			c4.681-10.44,10.432-21.875,20.052-35.637c8.245-11.791,17.696-24.763,19.985-38.61c2.171-12.911-5.029-20.421-19.113-18.651
			c-12.585,1.594-23.067,7.965-32.706,15.911c1.491-9.339-2.183-16.513-9.53-16.815c-15.828-0.658-26.579,18.893-39.996,23.637
			c-5.883,1.576,4.894-21.296-5.216-23.246c-6.226-1.173-10.937,0.246-16.149,3.254c-5.398,3.075-9.48,6.557-13.205,10.44
			c-0.935-9.922-6.13-16.685-16.807-13.181c-13.023,4.265-26.921,19.969-35.892,25.448c3.984-15.631-4.685-26.743-18.654-28.603
			c-16.065-2.201-29.817,6.414-39.969,14.076c-11.001,8.257-19.611,17.283-27.304,27.711c-8.256,11.243-12.979,22.894-19.802,32.973
			c-11.561,17.189-32.119,33.797-31.464,21.708c0.373-8.996,28.097-49.45,32.094-56.666c3.775-6.719,9.225-14.896,7.653-24.834
			c-1.559-9.601-9.667-13.058-19.074-11.814c-13.338,1.746-24.811,7.4-34.938,15.661c18.443-31.168,40.504-60.178,67.047-82.614
			c4.43-3.762,8.346-6.685,11.397-9.955c0.942-0.892,1.112-1.564-0.044-1.415c-4.561,0.498-9.794,0.76-14.491,1.057
			c-33.038,2.091-71.622-2.845-100.343-7.722c-9.901-1.677-22.858-3.199-34.841-3.199C205.62,29.304,202.623,29.403,199.758,29.624
			 M1022.267,28.04c-0.049,0.338-0.116,0.675-0.234,0.989c-1.419,5.875-7.11,11.724-11.74,15.954
			c-2.595,2.209-4.019,3.292-7.395,5.819c-2.714,2.006-7.041,4.856-9.985,6.603c-0.009,0.015-0.017,0.03-0.025,0.045
			c-0.008,0.001-0.016,0.004-0.023,0.009c-0.036,0.048-0.117,0.126-0.162,0.184l0.025,0.006l0.015-0.009
			c2.77-0.637,6.763-1.296,8.793-1.852c6.005-1.588,12.198-2.676,17.155-5.848c3.15-2.009,6.295-4.609,8.457-8.117
			c2.112-3.455,3.273-7.693,2.961-11.834c-0.204-0.222-0.431-0.413-0.634-0.599c-1.446-1.101-3.589-1.449-5.47-1.449
			C1023.386,27.941,1022.795,27.979,1022.267,28.04 M957.947,22.496c-0.204,0.132-0.34,0.273-0.455,0.459
			c-1.431,2.056-2.119,4.562-2.323,7.052c-0.332,4.128,0.866,8.417,2.99,11.875c2.158,3.5,5.31,6.091,8.461,8.1
			c4.979,3.174,11.171,4.261,17.178,5.849c2.013,0.535,6.014,1.172,8.783,1.809l0.019,0.01l0.038-0.009
			c-0.006-0.006-0.01-0.012-0.016-0.018c-0.04-0.034-0.089-0.083-0.132-0.121c-0.037-0.028-0.067-0.048-0.079-0.052
			c-2.906-1.781-7.259-4.617-9.99-6.64c-3.409-2.493-4.791-3.584-7.45-5.793c-4.574-4.205-10.449-10.032-11.744-15.936
			c-0.067-0.311-0.126-0.666-0.173-1.052c-0.023-0.004-0.047-0.007-0.069-0.01c-0.382-2.175-0.314-4.928,1.402-7.174
			c0.167-0.248,0.358-0.453,0.585-0.658C962.477,20.391,960.059,21.097,957.947,22.496 M1008.432,23.172
			c-3.518,2.17-6.1,5.343-8.117,8.466c-3.156,4.969-4.251,11.166-5.832,17.168c-0.535,2.026-1.189,6.015-1.809,8.809l-0.013,0.031
			l0.002,0.002c0.005-0.006,0.009-0.01,0.011-0.012v0.011c0.002-0.002,0.003-0.004,0.004-0.006
			c-0.001-0.002-0.004-0.004-0.004-0.005l0.007,0.002c0.048-0.059,0.129-0.15,0.183-0.179c0.011-0.016,0.018-0.028,0.018-0.036
			c0.011-0.006,0.021-0.012,0.031-0.018c1.744-2.926,4.555-7.237,6.582-9.958c2.507-3.416,3.577-4.834,5.803-7.408
			c4.184-4.639,10.032-10.499,15.94-11.838c0.303-0.062,0.65-0.118,1.029-0.161c0.004-0.027,0.008-0.054,0.012-0.081
			c2.146-0.374,4.923-0.34,7.152,1.367c0.26,0.188,0.484,0.4,0.672,0.595c0.001,0.023,0.003,0.045,0.005,0.068
			c0.005,0.006,0.011,0.012,0.016,0.018c-0.199-2.49-0.938-4.928-2.349-7.052c-0.111-0.186-0.2-0.301-0.39-0.45
			c-2.12-1.444-4.575-2.116-7.068-2.319c-0.455-0.037-0.913-0.054-1.371-0.054C1015.247,20.132,1011.493,21.292,1008.432,23.172
			 M964.98,20.178c-0.003,0.003-0.006,0.006-0.009,0.009c0.003-0.001,0.006-0.001,0.009-0.001c-0.229,0.203-0.415,0.408-0.594,0.659
			c-1.455,1.902-1.595,5.028-1.333,7.184c0.344,0.05,0.7,0.121,1.022,0.172c5.857,1.474,11.71,7.199,15.924,11.804
			c2.218,2.6,3.305,4.026,5.803,7.442c2.038,2.709,4.876,7.076,6.608,10.003c0.02,0.004,0.047,0.025,0.079,0.052
			c0.045,0.034,0.099,0.08,0.132,0.121c0.008,0.006,0.016,0.011,0.021,0.016l0.011-0.002l-0.014-0.014
			c-0.692-2.811-1.291-6.808-1.849-8.826c-1.558-6.006-2.654-12.182-5.814-17.159c-2.025-3.165-4.621-6.312-8.112-8.47
			c-3.087-1.897-6.826-3.041-10.546-3.04C965.872,20.127,965.425,20.144,964.98,20.178"/>
	</defs>
	<clipPath id="SVGID_2_">
		<use xlink:href="#SVGID_1_"  overflow="visible"/>
	</clipPath>
	
		<linearGradient id="SVGID_3_" gradientUnits="userSpaceOnUse" x1="-50.7651" y1="625.1714" x2="-49.7651" y2="625.1714" gradientTransform="matrix(312.282 669.6909 669.6909 -312.282 -402445.2813 229081.0469)">
		<stop  offset="0" style="stop-color:#A0471F"/>
		<stop  offset="0.1" style="stop-color:#A0471F"/>
		<stop  offset="0.5" style="stop-color:#FAAF83"/>
		<stop  offset="0.9" style="stop-color:#A0471F"/>
		<stop  offset="1" style="stop-color:#A0471F"/>
	</linearGradient>
	<polygon clip-path="url(#SVGID_2_)" fill="url(#SVGID_3_)" points="868.219,-378.027 1191.355,314.941 200.038,777.201 
		-123.099,84.232 	"/>
</g>
</svg>
